CiSfOpenHand.ufo
<glyph name="exclam" format="1">
  <advance width="140"/>
  <unicode hex="0021"/>
  <outline>
    <contour>
      <point x="88" y="208" type="curve" smooth="yes"/>
      <point x="93.6084" y="191.175"/>
      <point x="80.2998" y="172.047"/>
      <point x="62.5" y="183" type="curve" smooth="yes"/>
      <point x="53.5225" y="188.524"/>
      <point x="51" y="203.499"/>
      <point x="51" y="217" type="curve" smooth="yes"/>
      <point x="50.333" y="223"/>
      <point x="50" y="228.333"/>
      <point x="50" y="233" type="curve" smooth="yes"/>
      <point x="50" y="638" type="line" smooth="yes"/>
      <point x="50" y="642.667"/>
      <point x="50.333" y="647.334"/>
      <point x="51" y="652.001" type="curve" smooth="yes"/>
      <point x="51" y="658.001" type="line" smooth="yes"/>
      <point x="53.6953" y="679.565"/>
      <point x="87" y="679.982"/>
      <point x="87" y="656" type="curve" smooth="yes"/>
      <point x="86" y="649" type="line"/>
      <point x="86" y="233" type="line" smooth="yes"/>
      <point x="86" y="229"/>
      <point x="86.333" y="224.667"/>
      <point x="87" y="220" type="curve" smooth="yes"/>
      <point x="87" y="215.333"/>
      <point x="87.333" y="211.333"/>
    </contour>
    <contour>
      <point x="50" y="35.5" type="curve" smooth="yes"/>
      <point x="50" y="45.6953"/>
      <point x="57.6523" y="53"/>
      <point x="68" y="53" type="curve" smooth="yes"/>
      <point x="79.1758" y="53"/>
      <point x="89" y="43.5303"/>
      <point x="89" y="32.5" type="curve" smooth="yes"/>
      <point x="89" y="22.5908"/>
      <point x="81.4346" y="14"/>
      <point x="71.5" y="14" type="curve" smooth="yes"/>
      <point x="61.1406" y="14"/>
      <point x="50" y="24.4658"/>
    </contour>
  </outline>
</glyph>
<glyph name="quotedbl" format="1">
  <advance width="316"/>
  <unicode hex="0022"/>
  <outline>
    <contour>
      <point x="231" y="614" type="line" smooth="yes"/>
      <point x="231" y="623.502"/>
      <point x="238.827" y="631.997"/>
      <point x="248.501" y="631.997" type="curve" smooth="yes"/>
      <point x="258.14" y="631.997"/>
      <point x="267.001" y="623.492"/>
      <point x="267.001" y="613.997" type="curve" smooth="yes"/>
      <point x="267.001" y="545.997" type="line" smooth="yes"/>
      <point x="267.001" y="529.778"/>
      <point x="263.789" y="511.623"/>
      <point x="260.001" y="498.998" type="curve" smooth="yes"/>
      <point x="253.001" y="477.998" type="line" smooth="yes"/>
      <point x="249.109" y="467.297"/>
      <point x="247.492" y="464.948"/>
      <point x="246.001" y="455.999" type="curve" smooth="yes"/>
      <point x="242.117" y="442.407"/>
      <point x="221.65" y="436.443"/>
      <point x="213.001" y="450.499" type="curve" smooth="yes"/>
      <point x="208.748" y="457.41"/>
      <point x="210.823" y="463.467"/>
      <point x="213.001" y="470" type="curve" smooth="yes"/>
      <point x="214.269" y="480.143"/>
      <point x="222.515" y="499.705"/>
      <point x="226" y="509" type="curve" smooth="yes"/>
      <point x="228.484" y="518.936"/>
      <point x="231" y="533.784"/>
      <point x="231" y="546" type="curve" smooth="yes"/>
    </contour>
    <contour>
      <point x="94.501" y="641.997" type="curve" smooth="yes"/>
      <point x="104.176" y="641.997"/>
      <point x="112" y="633.501"/>
      <point x="112" y="623.998" type="curve" smooth="yes"/>
      <point x="112" y="568.998" type="line" smooth="yes"/>
      <point x="112" y="557.262"/>
      <point x="112.408" y="539.633"/>
      <point x="110" y="529.998" type="curve" smooth="yes"/>
      <point x="106" y="513.998" type="line" smooth="yes"/>
      <point x="97.9648" y="495.25"/>
      <point x="91.6875" y="471.062"/>
      <point x="85" y="450.998" type="curve" smooth="yes"/>
      <point x="79.1221" y="430.426"/>
      <point x="44.4561" y="438.096"/>
      <point x="50.999" y="460.997" type="curve" smooth="yes"/>
      <point x="53.5273" y="471.109"/>
      <point x="56.2793" y="479.696"/>
      <point x="60" y="488.997" type="curve" smooth="yes"/>
      <point x="66" y="506.997" type="line" smooth="yes"/>
      <point x="70.6582" y="522.523"/>
      <point x="75.1055" y="532.622"/>
      <point x="76.001" y="549.997" type="curve" smooth="yes"/>
      <point x="77.2676" y="574.585"/>
      <point x="76.001" y="599.33"/>
      <point x="76.001" y="623.997" type="curve" smooth="yes"/>
      <point x="76.001" y="633.491"/>
      <point x="84.8643" y="641.997"/>
    </contour>
  </outline>
</glyph>
<glyph name="numbersign" format="1">
  <advance width="631"/>
  <unicode hex="0023"/>
  <outline>
    <contour>
      <point x="186" y="201" type="line"/>
      <point x="167.734" y="202.305"/>
      <point x="140.001" y="203.998"/>
      <point x="123.5" y="203.998" type="curve" smooth="yes"/>
      <point x="101" y="203.998" type="line" smooth="yes"/>
      <point x="96.333" y="203.998"/>
      <point x="91.333" y="202.665"/>
      <point x="86" y="199.998" type="curve" smooth="yes"/>
      <point x="75" y="195.998" type="line" smooth="yes"/>
      <point x="52.9238" y="186.537"/>
      <point x="39.5371" y="219.8"/>
      <point x="61" y="228.998" type="curve" smooth="yes"/>
      <point x="72" y="232.998" type="line" smooth="yes"/>
      <point x="81.333" y="236.998"/>
      <point x="90.333" y="239.331"/>
      <point x="99" y="239.998" type="curve" smooth="yes"/>
      <point x="124" y="239.998" type="line" smooth="yes"/>
      <point x="144.112" y="239.998"/>
      <point x="175.075" y="238.323"/>
      <point x="195.999" y="235.998" type="curve"/>
      <point x="209.362" y="277.997"/>
      <point x="217.801" y="325.444"/>
      <point x="228.999" y="367.999" type="curve" smooth="yes"/>
      <point x="228.999" y="369.332"/>
      <point x="229.332" y="370.332"/>
      <point x="229.999" y="370.999" type="curve" smooth="yes"/>
      <point x="200.999" y="370.999" type="line" smooth="yes"/>
      <point x="161.226" y="370.999"/>
      <point x="130.305" y="369.733"/>
      <point x="99.999" y="362.999" type="curve" smooth="yes"/>
      <point x="77.5967" y="359.799"/>
      <point x="68.9736" y="394.71"/>
      <point x="92" y="397.999" type="curve" smooth="yes"/>
      <point x="123.342" y="404.964"/>
      <point x="159.159" y="406.999"/>
      <point x="200.999" y="406.999" type="curve" smooth="yes"/>
      <point x="239.999" y="406.999" type="line"/>
      <point x="249.162" y="436.778"/>
      <point x="257.617" y="473.93"/>
      <point x="267.999" y="502.999" type="curve" smooth="yes"/>
      <point x="277.999" y="530.999" type="line" smooth="yes"/>
      <point x="278.666" y="533.666"/>
      <point x="281.666" y="542.666"/>
      <point x="286.999" y="557.999" type="curve" smooth="yes"/>
      <point x="296.999" y="582.999" type="line" smooth="yes"/>
      <point x="303.232" y="603.257"/>
      <point x="308.787" y="614.293"/>
      <point x="314.999" y="634.999" type="curve" smooth="yes"/>
      <point x="321.191" y="655.641"/>
      <point x="330.531" y="672.087"/>
      <point x="337.998" y="692" type="curve" smooth="yes"/>
      <point x="343.367" y="704.528"/>
      <point x="364.256" y="708.732"/>
      <point x="370.998" y="693" type="curve" smooth="yes"/>
      <point x="374.505" y="684.817"/>
      <point x="370.3" y="677.138"/>
      <point x="367.998" y="671" type="curve" smooth="yes"/>
      <point x="360.722" y="649.17"/>
      <point x="351.207" y="630.328"/>
      <point x="343.998" y="607.501" type="curve" smooth="yes"/>
      <point x="339.428" y="593.029"/>
      <point x="335.172" y="585.434"/>
      <point x="329.998" y="571.001" type="curve" smooth="yes"/>
      <point x="310.998" y="518.001" type="line" smooth="yes"/>
      <point x="304.934" y="498.291"/>
      <point x="297.998" y="483.502"/>
      <point x="292.998" y="461.001" type="curve" smooth="yes"/>
      <point x="288.097" y="442.375"/>
      <point x="284.381" y="424.021"/>
      <point x="277.998" y="407" type="curve"/>
      <point x="396.998" y="407" type="line"/>
      <point x="400.207" y="439.091"/>
      <point x="408.442" y="496.91"/>
      <point x="416.998" y="526" type="curve" smooth="yes"/>
      <point x="425.992" y="556.579"/>
      <point x="431.501" y="580.258"/>
      <point x="439.999" y="610" type="curve" smooth="yes"/>
      <point x="445.328" y="629.982"/>
      <point x="452.624" y="642.406"/>
      <point x="459.999" y="659" type="curve" smooth="yes"/>
      <point x="468.268" y="678.293"/>
      <point x="502.649" y="667.518"/>
      <point x="492.999" y="645" type="curve" smooth="yes"/>
      <point x="487.254" y="627.765"/>
      <point x="479.861" y="619.449"/>
      <point x="474.999" y="599.999" type="curve" smooth="yes"/>
      <point x="458.478" y="546.303"/>
      <point x="442.172" y="486.55"/>
      <point x="435" y="421.999" type="curve" smooth="yes"/>
      <point x="433" y="405.999" type="line"/>
      <point x="452.287" y="405.999"/>
      <point x="475.824" y="401.156"/>
      <point x="492" y="398.999" type="curve" smooth="yes"/>
      <point x="509.312" y="395.753"/>
      <point x="541.78" y="388.423"/>
      <point x="558" y="383.999" type="curve" smooth="yes"/>
      <point x="568" y="380.999" type="line" smooth="yes"/>
      <point x="590.078" y="377.845"/>
      <point x="582.035" y="340.417"/>
      <point x="559" y="346.998" type="curve" smooth="yes"/>
      <point x="549" y="348.998" type="line" smooth="yes"/>
      <point x="514.47" y="359.357"/>
      <point x="469.608" y="367.614"/>
      <point x="429" y="370.998" type="curve"/>
      <point x="424.103" y="322.027"/>
      <point x="419.634" y="270.054"/>
      <point x="416" y="220.998" type="curve" smooth="yes"/>
      <point x="415.333" y="215.665"/>
      <point x="415" y="210.332"/>
      <point x="415" y="204.999" type="curve"/>
      <point x="462.425" y="200.482"/>
      <point x="512.827" y="197.632"/>
      <point x="548" y="181.999" type="curve" smooth="yes"/>
      <point x="557.984" y="178.671"/>
      <point x="572.609" y="171.384"/>
      <point x="566.5" y="155.499" type="curve" smooth="yes"/>
      <point x="563.673" y="148.148"/>
      <point x="553.139" y="140.464"/>
      <point x="543" y="144.999" type="curve" smooth="yes"/>
      <point x="509.584" y="159.946"/>
      <point x="458.804" y="164.542"/>
      <point x="412" y="168.999" type="curve"/>
      <point x="412" y="164.999" type="line" smooth="yes"/>
      <point x="408.924" y="121.927"/>
      <point x="397" y="85.6719"/>
      <point x="397" y="43.999" type="curve" smooth="yes"/>
      <point x="397" y="18.999" type="line" smooth="yes"/>
      <point x="397" y="11.666"/>
      <point x="397.667" y="3.33301"/>
      <point x="399" y="-6" type="curve" smooth="yes"/>
      <point x="401" y="-21" type="line" smooth="yes"/>
      <point x="404.22" y="-43.5361"/>
      <point x="368.255" y="-48.7842"/>
      <point x="365" y="-26" type="curve" smooth="yes"/>
      <point x="363" y="-11" type="line" smooth="yes"/>
      <point x="361.667" y="0.333008"/>
      <point x="361" y="10.333"/>
      <point x="361" y="19" type="curve" smooth="yes"/>
      <point x="361" y="44" type="line" smooth="yes"/>
      <point x="361" y="86.082"/>
      <point x="372.78" y="124.54"/>
      <point x="376" y="168" type="curve" smooth="yes"/>
      <point x="376" y="173" type="line"/>
      <point x="336.499" y="178.643"/>
      <point x="292.712" y="181.831"/>
      <point x="254" y="189" type="curve" smooth="yes"/>
      <point x="222" y="195" type="line"/>
      <point x="207.387" y="143.853"/>
      <point x="193.766" y="85.4453"/>
      <point x="182" y="32.5" type="curve" smooth="yes"/>
      <point x="178.049" y="14.7217"/>
      <point x="175.694" y="-12.7695"/>
      <point x="152" y="-6" type="curve" smooth="yes"/>
      <point x="131.639" y="-0.182617"/>
      <point x="143.01" y="24.875"/>
      <point x="147" y="41.5" type="curve" smooth="yes"/>
      <point x="157.154" y="83.8096"/>
      <point x="167.407" y="134.501"/>
      <point x="180" y="177" type="curve" smooth="yes"/>
    </contour>
    <contour>
      <point x="380" y="223.998" type="curve" smooth="yes"/>
      <point x="383.537" y="271.752"/>
      <point x="390.368" y="323.628"/>
      <point x="393" y="370.998" type="curve"/>
      <point x="267" y="370.998" type="line"/>
      <point x="256.778" y="340.335"/>
      <point x="252.657" y="304.111"/>
      <point x="242.999" y="270.999" type="curve" smooth="yes"/>
      <point x="239.666" y="257.666"/>
      <point x="235.999" y="243.999"/>
      <point x="231.999" y="229.999" type="curve"/>
      <point x="273.882" y="221.622"/>
      <point x="319.9" y="214.606"/>
      <point x="365" y="210.998" type="curve" smooth="yes"/>
      <point x="379" y="208.998" type="line"/>
      <point x="379.667" y="214.331"/>
      <point x="380" y="219.331"/>
    </contour>
  </outline>
</glyph>
<glyph name="dollar" format="1">
  <advance width="531"/>
  <unicode hex="0024"/>
  <outline>
    <contour>
      <point x="271" y="674" type="curve" smooth="yes"/>
      <point x="271" y="695.144"/>
      <point x="275.001" y="717.695"/>
      <point x="275.001" y="736.999" type="curve" smooth="yes"/>
      <point x="275.001" y="748.999" type="line" smooth="yes"/>
      <point x="275.001" y="758.501"/>
      <point x="282.827" y="766.999"/>
      <point x="292.501" y="766.999" type="curve" smooth="yes"/>
      <point x="302.14" y="766.999"/>
      <point x="311.001" y="758.494"/>
      <point x="311.001" y="748.999" type="curve" smooth="yes"/>
      <point x="311.001" y="736.999" type="line" smooth="yes"/>
      <point x="311.001" y="714.319"/>
      <point x="307.001" y="700.079"/>
      <point x="307.001" y="672.999" type="curve" smooth="yes"/>
      <point x="306.334" y="656.999"/>
      <point x="305.667" y="641.666"/>
      <point x="305" y="626.999" type="curve" smooth="yes"/>
      <point x="305" y="620.332"/>
      <point x="304.667" y="613.332"/>
      <point x="304" y="605.999" type="curve"/>
      <point x="346" y="605.999" type="line" smooth="yes"/>
      <point x="389.197" y="605.999"/>
      <point x="426.255" y="599.822"/>
      <point x="459" y="589.999" type="curve" smooth="yes"/>
      <point x="469" y="586.999" type="line" smooth="yes"/>
      <point x="482.113" y="581.379"/>
      <point x="486.789" y="561.394"/>
      <point x="471" y="553.499" type="curve" smooth="yes"/>
      <point x="462.741" y="549.37"/>
      <point x="454.775" y="553.74"/>
      <point x="448" y="555.999" type="curve" smooth="yes"/>
      <point x="419.024" y="565.657"/>
      <point x="384.175" y="569.999"/>
      <point x="346" y="569.999" type="curve" smooth="yes"/>
      <point x="303" y="569.999" type="line"/>
      <point x="301" y="528.999" type="line" smooth="yes"/>
      <point x="299.547" y="494.134"/>
      <point x="296.756" y="456.8"/>
      <point x="298" y="416.999" type="curve" smooth="yes"/>
      <point x="298" y="337.999" type="line"/>
      <point x="302.667" y="335.332"/>
      <point x="306.667" y="332.665"/>
      <point x="310" y="329.998" type="curve" smooth="yes"/>
      <point x="342" y="305.998" type="line" smooth="yes"/>
      <point x="377.413" y="283.865"/>
      <point x="414.662" y="262.297"/>
      <point x="436.999" y="225.999" type="curve" smooth="yes"/>
      <point x="443.666" y="216.666"/>
      <point x="447.666" y="208.666"/>
      <point x="448.999" y="201.999" type="curve" smooth="yes"/>
      <point x="450.999" y="187.999" type="line" smooth="yes"/>
      <point x="452.332" y="181.999"/>
      <point x="452.665" y="173.999"/>
      <point x="451.998" y="163.999" type="curve" smooth="yes"/>
      <point x="451.998" y="138.856"/>
      <point x="446.177" y="127.555"/>
      <point x="429.998" y="115.998" type="curve" smooth="yes"/>
      <point x="410.217" y="98.1943"/>
      <point x="379.702" y="86.1904"/>
      <point x="357.998" y="70.998" type="curve" smooth="yes"/>
      <point x="344.583" y="62.4609"/>
      <point x="332.427" y="54.458"/>
      <point x="318.999" y="46.998" type="curve" smooth="yes"/>
      <point x="299.999" y="34.998" type="line" smooth="yes"/>
      <point x="299.332" y="34.998"/>
      <point x="298.665" y="34.665"/>
      <point x="297.998" y="33.998" type="curve" smooth="yes"/>
      <point x="297.998" y="-98.002" type="line" smooth="yes"/>
      <point x="297.998" y="-107.504"/>
      <point x="290.172" y="-116.002"/>
      <point x="280.498" y="-116.002" type="curve" smooth="yes"/>
      <point x="270.859" y="-116.002"/>
      <point x="261.998" y="-107.497"/>
      <point x="261.998" y="-98.002" type="curve" smooth="yes"/>
      <point x="261.998" y="14.998" type="line" smooth="yes"/>
      <point x="261.331" y="14.3311"/>
      <point x="260.664" y="13.998"/>
      <point x="259.997" y="13.998" type="curve" smooth="yes"/>
      <point x="244.611" y="6.30566"/>
      <point x="222.91" y="1.99805"/>
      <point x="201.997" y="1.99805" type="curve" smooth="yes"/>
      <point x="158.889" y="-2.3125"/>
      <point x="131.341" y="27.4775"/>
      <point x="111.497" y="52.498" type="curve" smooth="yes"/>
      <point x="92.3203" y="76.6777"/>
      <point x="85.5029" y="101.782"/>
      <point x="73.9971" y="133.998" type="curve" smooth="yes"/>
      <point x="68.4287" y="150.704"/>
      <point x="64.3145" y="173.206"/>
      <point x="57.9971" y="188.999" type="curve" smooth="yes"/>
      <point x="52.96" y="205.37"/>
      <point x="52.0625" y="231.416"/>
      <point x="49.998" y="249.999" type="curve" smooth="yes"/>
      <point x="46.8096" y="272.321"/>
      <point x="83.002" y="276.968"/>
      <point x="85.998" y="253" type="curve" smooth="yes"/>
      <point x="87.9141" y="237.675"/>
      <point x="88.627" y="214.57"/>
      <point x="92.998" y="200" type="curve" smooth="yes"/>
      <point x="111.412" y="144.757"/>
      <point x="118.586" y="86.3291"/>
      <point x="158.997" y="54" type="curve" smooth="yes"/>
      <point x="169.904" y="44.1836"/>
      <point x="174.731" y="40.7832"/>
      <point x="188.997" y="39" type="curve" smooth="yes"/>
      <point x="192.997" y="37.667"/>
      <point x="196.664" y="37.334"/>
      <point x="199.997" y="38.001" type="curve" smooth="yes"/>
      <point x="225.005" y="38.001"/>
      <point x="245.064" y="45.5938"/>
      <point x="261.998" y="55.001" type="curve"/>
      <point x="261.998" y="318.001" type="line"/>
      <point x="251.036" y="326.223"/>
      <point x="232.587" y="336.942"/>
      <point x="221.998" y="344.002" type="curve" smooth="yes"/>
      <point x="203.653" y="358.27"/>
      <point x="184.521" y="370.539"/>
      <point x="168.998" y="388.002" type="curve" smooth="yes"/>
      <point x="150.836" y="406.164"/>
      <point x="127.998" y="425.337"/>
      <point x="127.998" y="461.001" type="curve" smooth="yes"/>
      <point x="127.998" y="487.001" type="line" smooth="yes"/>
      <point x="126.273" y="505.974"/>
      <point x="138.097" y="534.158"/>
      <point x="145.499" y="546.001" type="curve" smooth="yes"/>
      <point x="166.837" y="580.143"/>
      <point x="214.706" y="606.001"/>
      <point x="267.999" y="606.001" type="curve"/>
      <point x="268.666" y="613.334"/>
      <point x="268.999" y="620.667"/>
      <point x="268.999" y="628" type="curve" smooth="yes"/>
      <point x="269.666" y="642.667"/>
      <point x="270.333" y="658"/>
    </contour>
    <contour>
      <point x="416.001" y="164.999" type="curve" smooth="yes"/>
      <point x="417.237" y="179.838"/>
      <point x="416.239" y="185.276"/>
      <point x="412.999" y="194.998" type="curve" smooth="yes"/>
      <point x="412.999" y="196.998"/>
      <point x="410.999" y="200.998"/>
      <point x="406.999" y="206.998" type="curve" smooth="yes"/>
      <point x="383.597" y="246.003"/>
      <point x="339.158" y="262.159"/>
      <point x="305" y="288.998" type="curve" smooth="yes"/>
      <point x="303" y="290.331"/>
      <point x="300.667" y="291.998"/>
      <point x="298" y="293.998" type="curve" smooth="yes"/>
      <point x="298" y="75.998" type="line"/>
      <point x="321.184" y="87.5898"/>
      <point x="339.758" y="103.717"/>
      <point x="363.001" y="116.998" type="curve" smooth="yes"/>
      <point x="378.018" y="125.084"/>
      <point x="396.133" y="133.613"/>
      <point x="408.001" y="143.998" type="curve" smooth="yes"/>
      <point x="416.42" y="149.611"/>
      <point x="416.001" y="151.226"/>
    </contour>
    <contour>
      <point x="264.999" y="530.998" type="curve" smooth="yes"/>
      <point x="264.999" y="537.938"/>
      <point x="266.998" y="563.745"/>
      <point x="266.998" y="569.998" type="curve"/>
      <point x="262.998" y="569.998"/>
      <point x="258.998" y="569.665"/>
      <point x="254.998" y="568.998" type="curve" smooth="yes"/>
      <point x="227.356" y="568.998"/>
      <point x="205.065" y="554.458"/>
      <point x="188.999" y="539.998" type="curve" smooth="yes"/>
      <point x="176.363" y="530.17"/>
      <point x="172.354" y="523.401"/>
      <point x="166.999" y="505.998" type="curve" smooth="yes"/>
      <point x="164.332" y="497.998"/>
      <point x="163.332" y="492.331"/>
      <point x="163.999" y="488.998" type="curve" smooth="yes"/>
      <point x="163.999" y="460.998" type="line" smooth="yes"/>
      <point x="163.999" y="445.215"/>
      <point x="169.905" y="439.44"/>
      <point x="177.999" y="429.998" type="curve" smooth="yes"/>
      <point x="194.999" y="412.998" type="line" smooth="yes"/>
      <point x="213.469" y="391.89"/>
      <point x="237.749" y="376.43"/>
      <point x="261.999" y="360.998" type="curve"/>
      <point x="261.999" y="415.998" type="line" smooth="yes"/>
      <point x="260.782" y="457.355"/>
      <point x="263.478" y="492.968"/>
    </contour>
  </outline>
</glyph>
<glyph name="percent" format="1">
  <advance width="637"/>
  <unicode hex="0025"/>
  <outline>
    <contour>
      <point x="159" y="37" type="curve" smooth="yes"/>
      <point x="155.905" y="15.3379"/>
      <point x="120.14" y="19.1406"/>
      <point x="122.997" y="41.998" type="curve" smooth="yes"/>
      <point x="124.621" y="54.9873"/>
      <point x="126.679" y="63.166"/>
      <point x="132.997" y="73.9971" type="curve" smooth="yes"/>
      <point x="136.33" y="79.3301"/>
      <point x="138.997" y="84.9971"/>
      <point x="140.997" y="90.9971" type="curve" smooth="yes"/>
      <point x="150.578" y="110.158"/>
      <point x="159.512" y="138.113"/>
      <point x="170.998" y="158.997" type="curve" smooth="yes"/>
      <point x="204.525" y="226.051"/>
      <point x="238.868" y="305.779"/>
      <point x="276.499" y="368.497" type="curve" smooth="yes"/>
      <point x="301.999" y="410.997" type="line" smooth="yes"/>
      <point x="316.189" y="432.829"/>
      <point x="332.477" y="461.404"/>
      <point x="345.999" y="479.998" type="curve" smooth="yes"/>
      <point x="371.336" y="508.502"/>
      <point x="391.1" y="541.099"/>
      <point x="417.999" y="567.998" type="curve" smooth="yes"/>
      <point x="431.408" y="582.627"/>
      <point x="446.206" y="596.164"/>
      <point x="460.999" y="607.998" type="curve" smooth="yes"/>
      <point x="470.999" y="615.998" type="line" smooth="yes"/>
      <point x="489.557" y="631.463"/>
      <point x="511.077" y="603.063"/>
      <point x="493" y="587.999" type="curve" smooth="yes"/>
      <point x="484" y="579.999" type="line" smooth="yes"/>
      <point x="456.298" y="558.453"/>
      <point x="428.96" y="530.819"/>
      <point x="408" y="502" type="curve" smooth="yes"/>
      <point x="389.509" y="476.574"/>
      <point x="374.262" y="459.246"/>
      <point x="357" y="431" type="curve" smooth="yes"/>
      <point x="319.902" y="372.262"/>
      <point x="285.037" y="315.509"/>
      <point x="254" y="249" type="curve" smooth="yes"/>
      <point x="238" y="213.572"/>
      <point x="220.438" y="173.12"/>
      <point x="202.999" y="143" type="curve" smooth="yes"/>
      <point x="187.936" y="114.379"/>
      <point x="179.411" y="80.6855"/>
      <point x="164" y="55" type="curve" smooth="yes"/>
      <point x="160.579" y="49.2988"/>
      <point x="159.947" y="44.582"/>
    </contour>
    <contour>
      <point x="504.997" y="253.999" type="curve"/>
      <point x="501.279" y="267.01"/>
      <point x="509.911" y="281.616"/>
      <point x="525.497" y="278.499" type="curve" smooth="yes"/>
      <point x="539.074" y="275.783"/>
      <point x="544.936" y="258.884"/>
      <point x="551.996" y="248.998" type="curve" smooth="yes"/>
      <point x="557.212" y="244.825"/>
      <point x="561.068" y="234.853"/>
      <point x="563.996" y="228.998" type="curve" smooth="yes"/>
      <point x="574.736" y="207.518"/>
      <point x="583.402" y="183.327"/>
      <point x="585.996" y="153.498" type="curve" smooth="yes"/>
      <point x="586.663" y="145.831"/>
      <point x="587.33" y="138.331"/>
      <point x="587.997" y="130.998" type="curve" smooth="yes"/>
      <point x="587.997" y="65.8184"/>
      <point x="563.674" y="15.9336"/>
      <point x="508.997" y="4.99805" type="curve" smooth="yes"/>
      <point x="483.918" y="-0.0175781"/>
      <point x="459.42" y="6.41895"/>
      <point x="440.997" y="12.999" type="curve" smooth="yes"/>
      <point x="405.846" y="24.7158"/>
      <point x="384.997" y="57.2051"/>
      <point x="384.997" y="102.999" type="curve" smooth="yes"/>
      <point x="384.997" y="122.999" type="line" smooth="yes"/>
      <point x="384.997" y="161.59"/>
      <point x="393.44" y="190.033"/>
      <point x="404.997" y="216.999" type="curve" smooth="yes"/>
      <point x="410.82" y="229.81"/>
      <point x="433.189" y="247.396"/>
      <point x="446.997" y="251.999" type="curve" smooth="yes"/>
      <point x="452.997" y="253.999"/>
      <point x="460.997" y="254.999"/>
      <point x="470.997" y="254.999" type="curve" smooth="yes"/>
      <point x="490.997" y="254.999" type="line" smooth="yes"/>
      <point x="494.997" y="254.999"/>
      <point x="499.664" y="254.666"/>
    </contour>
    <contour>
      <point x="551.997" y="129.999" type="curve" smooth="yes"/>
      <point x="548.519" y="164.788"/>
      <point x="544.146" y="195.277"/>
      <point x="528.997" y="217.999" type="curve"/>
      <point x="512.997" y="217.999" type="line" smooth="yes"/>
      <point x="503.664" y="218.666"/>
      <point x="496.331" y="218.999"/>
      <point x="490.998" y="218.999" type="curve" smooth="yes"/>
      <point x="470.998" y="218.999" type="line" smooth="yes"/>
      <point x="441.172" y="218.999"/>
      <point x="434.787" y="196.324"/>
      <point x="427.498" y="172.999" type="curve" smooth="yes"/>
      <point x="422.94" y="158.416"/>
      <point x="420.998" y="143.191"/>
      <point x="420.998" y="123.999" type="curve" smooth="yes"/>
      <point x="420.998" y="102.999" type="line" smooth="yes"/>
      <point x="420.998" y="58.2168"/>
      <point x="445.577" y="43.7646"/>
      <point x="486.998" y="39.999" type="curve" smooth="yes"/>
      <point x="508.282" y="37.8701"/>
      <point x="514.21" y="43.0527"/>
      <point x="526.997" y="52.999" type="curve" smooth="yes"/>
      <point x="545.018" y="65.8711"/>
      <point x="551.997" y="100.755"/>
    </contour>
    <contour>
      <point x="212.997" y="637.999" type="curve" smooth="yes"/>
      <point x="211.996" y="638.999" type="line"/>
      <point x="209.869" y="653.888"/>
      <point x="224.627" y="668.149"/>
      <point x="239.496" y="658.999" type="curve" smooth="yes"/>
      <point x="243.829" y="656.332"/>
      <point x="246.329" y="652.665"/>
      <point x="246.996" y="647.998" type="curve" smooth="yes"/>
      <point x="249.996" y="637.998" type="line" smooth="yes"/>
      <point x="252.414" y="624.701"/>
      <point x="254.996" y="616.963"/>
      <point x="254.996" y="601.998" type="curve" smooth="yes"/>
      <point x="254.996" y="544.998" type="line" smooth="yes"/>
      <point x="254.996" y="537.665"/>
      <point x="254.329" y="530.665"/>
      <point x="252.996" y="523.998" type="curve" smooth="yes"/>
      <point x="250.996" y="505.998" type="line" smooth="yes"/>
      <point x="249.478" y="492.328"/>
      <point x="247.602" y="476.662"/>
      <point x="242.996" y="463.998" type="curve" smooth="yes"/>
      <point x="237.476" y="448.815"/>
      <point x="233.29" y="426.154"/>
      <point x="225.996" y="413.998" type="curve" smooth="yes"/>
      <point x="214.562" y="396.031"/>
      <point x="196.358" y="378.998"/>
      <point x="167.996" y="378.998" type="curve" smooth="yes"/>
      <point x="146.051" y="376.56"/>
      <point x="126.111" y="383.973"/>
      <point x="107.996" y="387.998" type="curve" smooth="yes"/>
      <point x="74.3271" y="398.099"/>
      <point x="49.9961" y="420.93"/>
      <point x="49.9961" y="463.998" type="curve" smooth="yes"/>
      <point x="49.9961" y="480.998" type="line" smooth="yes"/>
      <point x="49.9961" y="487.665"/>
      <point x="50.6631" y="494.665"/>
      <point x="51.9961" y="501.998" type="curve" smooth="yes"/>
      <point x="53.9961" y="519.998" type="line" smooth="yes"/>
      <point x="53.9961" y="545.961"/>
      <point x="63.7588" y="562.229"/>
      <point x="71.9961" y="581.999" type="curve" smooth="yes"/>
      <point x="79.0547" y="598.47"/>
      <point x="98.4863" y="623.992"/>
      <point x="111.996" y="632.999" type="curve" smooth="yes"/>
      <point x="122.223" y="638.681"/>
      <point x="151.861" y="646.999"/>
      <point x="166.997" y="646.999" type="curve" smooth="yes"/>
      <point x="183.997" y="646.999" type="line" smooth="yes"/>
      <point x="195.612" y="646.999"/>
      <point x="204.052" y="642.472"/>
    </contour>
    <contour>
      <point x="88.9961" y="517.999" type="curve" smooth="yes"/>
      <point x="88.9961" y="506.762"/>
      <point x="85.9961" y="492.479"/>
      <point x="85.9961" y="479.999" type="curve" smooth="yes"/>
      <point x="85.9961" y="463.999" type="line" smooth="yes"/>
      <point x="85.9961" y="449.496"/>
      <point x="88.8555" y="441.104"/>
      <point x="96.9961" y="434.999" type="curve" smooth="yes"/>
      <point x="106.996" y="426.999" type="line" smooth="yes"/>
      <point x="119.571" y="421.969"/>
      <point x="137.299" y="417.241"/>
      <point x="152.996" y="414.999" type="curve" smooth="yes"/>
      <point x="157.663" y="414.332"/>
      <point x="161.996" y="414.332"/>
      <point x="165.996" y="414.999" type="curve" smooth="yes"/>
      <point x="199.038" y="414.999"/>
      <point x="199.722" y="450.813"/>
      <point x="208.996" y="473.999" type="curve" smooth="yes"/>
      <point x="215.024" y="490.076"/>
      <point x="214.418" y="511.111"/>
      <point x="217.995" y="528.999" type="curve" smooth="yes"/>
      <point x="218.662" y="533.666"/>
      <point x="218.995" y="538.999"/>
      <point x="218.995" y="544.999" type="curve" smooth="yes"/>
      <point x="218.995" y="601.999" type="line" smooth="yes"/>
      <point x="218.995" y="603.332"/>
      <point x="218.662" y="604.999"/>
      <point x="217.995" y="606.999" type="curve"/>
      <point x="207.694" y="598.758"/>
      <point x="198.468" y="604.157"/>
      <point x="189.996" y="608.998" type="curve" smooth="yes"/>
      <point x="188.663" y="610.331"/>
      <point x="186.663" y="610.998"/>
      <point x="183.996" y="610.998" type="curve" smooth="yes"/>
      <point x="166.996" y="610.998" type="line" smooth="yes"/>
      <point x="158.595" y="610.998"/>
      <point x="136.247" y="604.498"/>
      <point x="129.996" y="601.998" type="curve" smooth="yes"/>
      <point x="108.42" y="587.614"/>
      <point x="93.1855" y="547.327"/>
    </contour>
  </outline>
</glyph>
<glyph name="ampersand" format="1">
  <advance width="562"/>
  <unicode hex="0026"/>
  <outline>
    <contour>
      <point x="168" y="301" type="curve"/>
      <point x="128.146" y="278.227"/>
      <point x="93.543" y="249.802"/>
      <point x="86" y="197.001" type="curve"/>
      <point x="86" y="181.001" type="line" smooth="yes"/>
      <point x="86" y="140.74"/>
      <point x="97.1709" y="112.757"/>
      <point x="120" y="95.001" type="curve" smooth="yes"/>
      <point x="126" y="90.334"/>
      <point x="130.667" y="87.667"/>
      <point x="134" y="87" type="curve" smooth="yes"/>
      <point x="150.5" y="81.5" type="line" smooth="yes"/>
      <point x="159.165" y="78.6113"/>
      <point x="165.809" y="75.5312"/>
      <point x="175" y="73.999" type="curve" smooth="yes"/>
      <point x="179.667" y="73.999"/>
      <point x="184.334" y="73.666"/>
      <point x="189.001" y="72.999" type="curve" smooth="yes"/>
      <point x="241.863" y="72.999"/>
      <point x="287.767" y="88.6895"/>
      <point x="319" y="110.999" type="curve"/>
      <point x="304.955" y="125.044"/>
      <point x="288.505" y="144.044"/>
      <point x="273" y="157.999" type="curve" smooth="yes"/>
      <point x="235.805" y="188.432"/>
      <point x="208.503" y="225.351"/>
      <point x="185" y="269" type="curve" smooth="yes"/>
      <point x="180.343" y="278.315"/>
      <point x="174.688" y="290.968"/>
    </contour>
    <contour>
      <point x="185" y="351.001" type="curve"/>
      <point x="206.537" y="363.564"/>
      <point x="226.722" y="375.86"/>
      <point x="249" y="387" type="curve" smooth="yes"/>
      <point x="274.055" y="398.136"/>
      <point x="294.839" y="413.678"/>
      <point x="307" y="438" type="curve" smooth="yes"/>
      <point x="316.833" y="455.699"/>
      <point x="319.669" y="480.682"/>
      <point x="323" y="504" type="curve" smooth="yes"/>
      <point x="323.667" y="508"/>
      <point x="324" y="512"/>
      <point x="324" y="516" type="curve" smooth="yes"/>
      <point x="324" y="549" type="line" smooth="yes"/>
      <point x="324" y="556.333"/>
      <point x="323.667" y="562"/>
      <point x="323" y="566" type="curve" smooth="yes"/>
      <point x="323" y="579.11"/>
      <point x="303.374" y="592.812"/>
      <point x="295" y="597" type="curve" smooth="yes"/>
      <point x="273.048" y="604.317"/>
      <point x="248.433" y="613"/>
      <point x="220" y="613" type="curve" smooth="yes"/>
      <point x="187.071" y="613"/>
      <point x="172.004" y="571.011"/>
      <point x="163" y="547" type="curve" smooth="yes"/>
      <point x="153.973" y="528.946"/>
      <point x="151" y="500.133"/>
      <point x="151" y="474" type="curve" smooth="yes"/>
      <point x="151" y="457.661"/>
      <point x="152.584" y="444.352"/>
      <point x="157" y="430.001" type="curve" smooth="yes"/>
      <point x="167.644" y="396.549"/>
      <point x="170.016" y="377.973"/>
    </contour>
    <contour>
      <point x="344.001" y="84" type="curve"/>
      <point x="304.069" y="57.3789"/>
      <point x="253.246" y="36.9971"/>
      <point x="187.005" y="36.9971" type="curve" smooth="yes"/>
      <point x="161.972" y="40.126"/>
      <point x="145.038" y="46.7383"/>
      <point x="124.005" y="51.9961" type="curve" smooth="yes"/>
      <point x="96.6025" y="59.4697"/>
      <point x="67.4336" y="91.6016"/>
      <point x="59.0039" y="118.997" type="curve" smooth="yes"/>
      <point x="54.9844" y="137.087"/>
      <point x="50.0039" y="160.396"/>
      <point x="50.0039" y="180.998" type="curve" smooth="yes"/>
      <point x="50.0039" y="198.998" type="line" smooth="yes"/>
      <point x="53.8682" y="241.506"/>
      <point x="76.2373" y="269.604"/>
      <point x="98.0039" y="294.998" type="curve" smooth="yes"/>
      <point x="105.758" y="303.721"/>
      <point x="141.263" y="327.475"/>
      <point x="153.005" y="333.998" type="curve"/>
      <point x="145.064" y="353.054"/>
      <point x="136.885" y="368.83"/>
      <point x="131.005" y="389.998" type="curve" smooth="yes"/>
      <point x="129.703" y="396.507"/>
      <point x="118.05" y="435.685"/>
      <point x="116.005" y="449.998" type="curve" smooth="yes"/>
      <point x="115.338" y="458.665"/>
      <point x="115.005" y="466.665"/>
      <point x="115.005" y="473.998" type="curve" smooth="yes"/>
      <point x="115.005" y="528.531"/>
      <point x="128.753" y="569.602"/>
      <point x="150.005" y="602.998" type="curve" smooth="yes"/>
      <point x="162.802" y="623.107"/>
      <point x="176.254" y="635.897"/>
      <point x="199.006" y="644.998" type="curve" smooth="yes"/>
      <point x="205.673" y="647.665"/>
      <point x="212.673" y="648.998"/>
      <point x="220.006" y="648.998" type="curve" smooth="yes"/>
      <point x="226.006" y="648.998"/>
      <point x="231.673" y="648.665"/>
      <point x="237.006" y="647.998" type="curve" smooth="yes"/>
      <point x="253.006" y="645.998" type="line" smooth="yes"/>
      <point x="285.962" y="642.336"/>
      <point x="314.209" y="631.309"/>
      <point x="335.006" y="611.997" type="curve" smooth="yes"/>
      <point x="354.562" y="593.838"/>
      <point x="360.006" y="583.984"/>
      <point x="360.006" y="548.997" type="curve" smooth="yes"/>
      <point x="360.006" y="515.997" type="line" smooth="yes"/>
      <point x="360.006" y="444.879"/>
      <point x="331.719" y="388.853"/>
      <point x="284.006" y="364.996" type="curve" smooth="yes"/>
      <point x="255.955" y="349.412"/>
      <point x="228.67" y="332.328"/>
      <point x="200.006" y="317.996" type="curve"/>
      <point x="211.943" y="293.924"/>
      <point x="224.675" y="268.438"/>
      <point x="240.006" y="247.996" type="curve" smooth="yes"/>
      <point x="253.261" y="230.954"/>
      <point x="260.91" y="217.304"/>
      <point x="277.006" y="202.996" type="curve" smooth="yes"/>
      <point x="296.388" y="183.614"/>
      <point x="319.988" y="163.266"/>
      <point x="338.006" y="142.995" type="curve" smooth="yes"/>
      <point x="341.339" y="138.995"/>
      <point x="344.672" y="135.328"/>
      <point x="348.005" y="131.995" type="curve"/>
      <point x="372.071" y="145.748"/>
      <point x="394.662" y="168.206"/>
      <point x="411.004" y="189.996" type="curve" smooth="yes"/>
      <point x="419.294" y="199.47"/>
      <point x="433.044" y="210.859"/>
      <point x="440.005" y="221.996" type="curve" smooth="yes"/>
      <point x="447.217" y="234.017"/>
      <point x="464.815" y="252.495"/>
      <point x="474.004" y="262.997" type="curve" smooth="yes"/>
      <point x="481.004" y="270.997" type="line" smooth="yes"/>
      <point x="497.354" y="287.347"/>
      <point x="522.855" y="264.819"/>
      <point x="508.004" y="246.997" type="curve" smooth="yes"/>
      <point x="501.004" y="238.997" type="line" smooth="yes"/>
      <point x="492.911" y="229.749"/>
      <point x="476.807" y="212.883"/>
      <point x="470.003" y="201.997" type="curve" smooth="yes"/>
      <point x="461.851" y="190.351"/>
      <point x="447.243" y="176.776"/>
      <point x="438.003" y="165.996" type="curve" smooth="yes"/>
      <point x="426.003" y="151.996" type="line" smooth="yes"/>
      <point x="415.922" y="140.476"/>
      <point x="395.983" y="119.152"/>
      <point x="382.002" y="110.997" type="curve" smooth="yes"/>
      <point x="382.002" y="110.997"/>
      <point x="374.002" y="104.997"/>
      <point x="374.002" y="104.997" type="curve"/>
      <point x="374.002" y="104.997"/>
      <point x="382.002" y="94.9971"/>
      <point x="382.002" y="94.9971" type="curve" smooth="yes"/>
      <point x="390.555" y="82.168"/>
      <point x="400.729" y="74.7236"/>
      <point x="410.502" y="62.9971" type="curve" smooth="yes"/>
      <point x="427.251" y="42.8984"/>
      <point x="438.801" y="18.1416"/>
      <point x="460.002" y="2.99805" type="curve" smooth="yes"/>
      <point x="473.757" y="-4.8623"/>
      <point x="468.628" y="-26.9854"/>
      <point x="453.502" y="-29.002" type="curve" smooth="yes"/>
      <point x="444.484" y="-30.2041"/>
      <point x="438.528" y="-24.9482"/>
      <point x="433.003" y="-21.001" type="curve" smooth="yes"/>
      <point x="426.336" y="-16.334"/>
      <point x="420.669" y="-11.001"/>
      <point x="416.002" y="-5.00098" type="curve" smooth="yes"/>
      <point x="406.002" y="8.99902" type="line" smooth="yes"/>
      <point x="399.946" y="19.5967"/>
      <point x="391.309" y="29.5059"/>
      <point x="383.002" y="38.999" type="curve" smooth="yes"/>
      <point x="369.002" y="54.999" type="line" smooth="yes"/>
      <point x="360.829" y="63.1719"/>
      <point x="352.89" y="75.1113"/>
    </contour>
  </outline>
</glyph>
<glyph name="quotesingle" format="1">
  <advance width="176"/>
  <unicode hex="0027"/>
  <outline>
    <contour>
      <point x="80" y="436" type="line" smooth="yes"/>
      <point x="67.4688" y="425.558"/>
      <point x="50" y="434.457"/>
      <point x="50" y="450.502" type="curve" smooth="yes"/>
      <point x="50" y="455.502"/>
      <point x="52" y="459.669"/>
      <point x="56" y="463.002" type="curve" smooth="yes"/>
      <point x="65" y="472.002" type="line" smooth="yes"/>
      <point x="73.71" y="478.776"/>
      <point x="80.3467" y="484.695"/>
      <point x="85" y="494.001" type="curve" smooth="yes"/>
      <point x="86.8066" y="501.226"/>
      <point x="91" y="507.831"/>
      <point x="91" y="516.001" type="curve" smooth="yes"/>
      <point x="91" y="615.001" type="line" smooth="yes"/>
      <point x="91" y="618.334"/>
      <point x="90" y="621.667"/>
      <point x="88" y="625" type="curve" smooth="yes"/>
      <point x="83" y="634" type="line" smooth="yes"/>
      <point x="72.791" y="654.418"/>
      <point x="102.012" y="670.482"/>
      <point x="115" y="651" type="curve" smooth="yes"/>
      <point x="120" y="642" type="line" smooth="yes"/>
      <point x="124.667" y="634"/>
      <point x="127" y="625"/>
      <point x="127" y="615" type="curve" smooth="yes"/>
      <point x="127" y="518" type="line" smooth="yes"/>
      <point x="127" y="504.699"/>
      <point x="121.74" y="493.96"/>
      <point x="119" y="483" type="curve" smooth="yes"/>
      <point x="113.388" y="466.163"/>
      <point x="102.007" y="456.706"/>
      <point x="89" y="445" type="curve" smooth="yes"/>
    </contour>
  </outline>
</glyph>
<glyph name="parenleft" format="1">
  <advance width="268"/>
  <unicode hex="0028"/>
  <outline>
    <contour>
      <point x="199" y="697" type="line" smooth="yes"/>
      <point x="221.016" y="700.146"/>
      <point x="225.402" y="664.054"/>
      <point x="201.002" y="661.004" type="curve" smooth="yes"/>
      <point x="193.002" y="661.004" type="line" smooth="yes"/>
      <point x="189.875" y="661.004"/>
      <point x="177.838" y="637.676"/>
      <point x="174.002" y="630.004" type="curve" smooth="yes"/>
      <point x="164.157" y="610.315"/>
      <point x="151.567" y="580.173"/>
      <point x="145.002" y="555.004" type="curve" smooth="yes"/>
      <point x="134.388" y="509.01"/>
      <point x="121.67" y="461.343"/>
      <point x="111.002" y="416.004" type="curve" smooth="yes"/>
      <point x="105.654" y="399.96"/>
      <point x="98.1445" y="354.145"/>
      <point x="93.002" y="340.004" type="curve" smooth="yes"/>
      <point x="89.3594" y="323.613"/>
      <point x="89.0107" y="293.086"/>
      <point x="87.002" y="274.003" type="curve" smooth="yes"/>
      <point x="86.335" y="261.336"/>
      <point x="86.002" y="248.669"/>
      <point x="86.002" y="236.002" type="curve" smooth="yes"/>
      <point x="86.002" y="144.002" type="line" smooth="yes"/>
      <point x="86.002" y="95.8936"/>
      <point x="99.2041" y="54.1943"/>
      <point x="109.002" y="15.002" type="curve" smooth="yes"/>
      <point x="116.607" y="-12.8857"/>
      <point x="130.797" y="-31.8701"/>
      <point x="144.002" y="-52.998" type="curve" smooth="yes"/>
      <point x="158.745" y="-75.1133"/>
      <point x="183.356" y="-88.8135"/>
      <point x="200.002" y="-109.998" type="curve" smooth="yes"/>
      <point x="211.002" y="-121.998" type="line" smooth="yes"/>
      <point x="227.43" y="-138.427"/>
      <point x="198.98" y="-162.974"/>
      <point x="184.001" y="-144.999" type="curve" smooth="yes"/>
      <point x="173.001" y="-132.999" type="line" smooth="yes"/>
      <point x="156.013" y="-112.235"/>
      <point x="128.37" y="-95.9893"/>
      <point x="114.002" y="-72.999" type="curve" smooth="yes"/>
      <point x="98.5293" y="-51.3369"/>
      <point x="81.8174" y="-24.5322"/>
      <point x="75.002" y="5.00098" type="curve" smooth="yes"/>
      <point x="69.4844" y="22.9326"/>
      <point x="63.5225" y="41.0996"/>
      <point x="61.002" y="60.001" type="curve" smooth="yes"/>
      <point x="57.1074" y="87.2607"/>
      <point x="50.002" y="112.257"/>
      <point x="50.002" y="144.001" type="curve" smooth="yes"/>
      <point x="50.002" y="236.001" type="line" smooth="yes"/>
      <point x="50.002" y="263.133"/>
      <point x="52.6963" y="290.186"/>
      <point x="54.002" y="315.001" type="curve" smooth="yes"/>
      <point x="55.5107" y="348.198"/>
      <point x="60.5459" y="350.267"/>
      <point x="66.002" y="383.001" type="curve" smooth="yes"/>
      <point x="72.9395" y="419.077"/>
      <point x="78.8867" y="431.429"/>
      <point x="86.001" y="467.002" type="curve" smooth="yes"/>
      <point x="101.344" y="528.374"/>
      <point x="115.476" y="596.741"/>
      <point x="142" y="646.001" type="curve" smooth="yes"/>
      <point x="148.673" y="661.57"/>
      <point x="155.015" y="671.218"/>
      <point x="164" y="682" type="curve" smooth="yes"/>
      <point x="170" y="691.333"/>
      <point x="178.667" y="696.333"/>
      <point x="190" y="697" type="curve" smooth="yes"/>
    </contour>
  </outline>
</glyph>
<glyph name="parenright" format="1">
  <advance width="310"/>
  <unicode hex="0029"/>
  <outline>
    <contour>
      <point x="83" y="-154" type="line" smooth="yes"/>
      <point x="70.665" y="-172.503"/>
      <point x="40.2744" y="-152.087"/>
      <point x="52.999" y="-133" type="curve" smooth="yes"/>
      <point x="59.999" y="-123" type="line" smooth="yes"/>
      <point x="74.0908" y="-102.869"/>
      <point x="85.4375" y="-89.0381"/>
      <point x="98.999" y="-67" type="curve" smooth="yes"/>
      <point x="110.388" y="-49.2842"/>
      <point x="127.858" y="-34.1035"/>
      <point x="138.999" y="-16" type="curve" smooth="yes"/>
      <point x="154.727" y="4.96973"/>
      <point x="170.072" y="33.1025"/>
      <point x="184.999" y="54" type="curve" smooth="yes"/>
      <point x="196.296" y="73.3662"/>
      <point x="204.237" y="81.4619"/>
      <point x="210.998" y="103.999" type="curve" smooth="yes"/>
      <point x="219.889" y="133.635"/>
      <point x="224.998" y="169.429"/>
      <point x="224.998" y="208" type="curve" smooth="yes"/>
      <point x="224.998" y="388" type="line" smooth="yes"/>
      <point x="224.998" y="421.316"/>
      <point x="218.308" y="452.21"/>
      <point x="214.998" y="481.999" type="curve" smooth="yes"/>
      <point x="212.998" y="497.999" type="line" smooth="yes"/>
      <point x="210.746" y="513.76"/>
      <point x="204.46" y="525.151"/>
      <point x="200.998" y="539" type="curve" smooth="yes"/>
      <point x="185.903" y="584.283"/>
      <point x="149.975" y="611.931"/>
      <point x="117.998" y="641" type="curve" smooth="yes"/>
      <point x="79.998" y="679" type="line" smooth="yes"/>
      <point x="74.665" y="684.333"/>
      <point x="69.332" y="690"/>
      <point x="63.999" y="696" type="curve" smooth="yes"/>
      <point x="55.999" y="704" type="line" smooth="yes"/>
      <point x="40.8857" y="722.136"/>
      <point x="65.7588" y="745.24"/>
      <point x="81.999" y="729" type="curve" smooth="yes"/>
      <point x="124.091" y="679.035"/>
      <point x="183.775" y="642.82"/>
      <point x="218.499" y="586" type="curve" smooth="yes"/>
      <point x="227.613" y="571.086"/>
      <point x="232.018" y="552.963"/>
      <point x="239.999" y="537" type="curve" smooth="yes"/>
      <point x="248.96" y="505.638"/>
      <point x="254.648" y="467.856"/>
      <point x="257.999" y="431" type="curve" smooth="yes"/>
      <point x="259.999" y="409" type="line" smooth="yes"/>
      <point x="260.666" y="401.667"/>
      <point x="260.999" y="394.667"/>
      <point x="260.999" y="388" type="curve" smooth="yes"/>
      <point x="260.999" y="208" type="line" smooth="yes"/>
      <point x="260.999" y="156.123"/>
      <point x="254.675" y="104.239"/>
      <point x="235.999" y="70" type="curve" smooth="yes"/>
      <point x="224.219" y="44.083"/>
      <point x="203.216" y="15.8242"/>
      <point x="186" y="-10" type="curve" smooth="yes"/>
      <point x="174.359" y="-28.917"/>
      <point x="162.005" y="-47.7451"/>
      <point x="147" y="-64" type="curve" smooth="yes"/>
      <point x="129.615" y="-83.123"/>
      <point x="117.713" y="-108.668"/>
      <point x="102" y="-126.999" type="curve" smooth="yes"/>
      <point x="98" y="-131.666"/>
      <point x="94" y="-137.333"/>
      <point x="90" y="-144" type="curve" smooth="yes"/>
    </contour>
  </outline>
</glyph>
<glyph name="asterisk" format="1">
  <advance width="344"/>
  <unicode hex="002A"/>
  <outline>
    <contour>
      <point x="68" y="375" type="line" smooth="yes"/>
      <point x="58.7705" y="375"/>
      <point x="50.001" y="383.772"/>
      <point x="50.001" y="393.001" type="curve" smooth="yes"/>
      <point x="50.001" y="402.23"/>
      <point x="58.7725" y="411.001"/>
      <point x="68.001" y="411.001" type="curve" smooth="yes"/>
      <point x="94.001" y="411.001" type="line" smooth="yes"/>
      <point x="118.697" y="411.001"/>
      <point x="138.211" y="388.79"/>
      <point x="152" y="375.001" type="curve" smooth="yes"/>
      <point x="153.333" y="373.668"/>
      <point x="154.666" y="372.668"/>
      <point x="155.999" y="372.001" type="curve" smooth="yes"/>
      <point x="155.999" y="484.001" type="line" smooth="yes"/>
      <point x="155.999" y="493.503"/>
      <point x="163.825" y="502.001"/>
      <point x="173.499" y="502.001" type="curve" smooth="yes"/>
      <point x="183.138" y="502.001"/>
      <point x="191.999" y="493.496"/>
      <point x="191.999" y="484.001" type="curve" smooth="yes"/>
      <point x="191.999" y="379.001" type="line"/>
      <point x="199.853" y="394.707"/>
      <point x="215.621" y="412.2"/>
      <point x="226.999" y="425" type="curve" smooth="yes"/>
      <point x="238.558" y="439.449"/>
      <point x="251.494" y="448.425"/>
      <point x="264.999" y="460" type="curve" smooth="yes"/>
      <point x="284.477" y="472.985"/>
      <point x="305.58" y="446.065"/>
      <point x="287.999" y="432" type="curve" smooth="yes"/>
      <point x="262.944" y="414.331"/>
      <point x="241.713" y="389.482"/>
      <point x="224.499" y="363" type="curve" smooth="yes"/>
      <point x="215.783" y="349.591"/>
      <point x="207.5" y="334.364"/>
      <point x="193.999" y="327" type="curve"/>
      <point x="207.999" y="307" type="line" smooth="yes"/>
      <point x="216.298" y="294.552"/>
      <point x="228.361" y="275.047"/>
      <point x="237.998" y="263.001" type="curve" smooth="yes"/>
      <point x="253.441" y="242.409"/>
      <point x="262.854" y="225.192"/>
      <point x="277.997" y="205.001" type="curve" smooth="yes"/>
      <point x="292.206" y="187.24"/>
      <point x="263.686" y="166.376"/>
      <point x="248.997" y="184.002" type="curve" smooth="yes"/>
      <point x="240.021" y="196.568"/>
      <point x="227.58" y="212.731"/>
      <point x="219.997" y="226.002" type="curve" smooth="yes"/>
      <point x="209.05" y="244.248"/>
      <point x="189.577" y="267.702"/>
      <point x="177.997" y="287.002" type="curve" smooth="yes"/>
      <point x="173.997" y="293.002"/>
      <point x="169.33" y="299.669"/>
      <point x="163.997" y="307.002" type="curve"/>
      <point x="153.274" y="285.556"/>
      <point x="136.8" y="268.007"/>
      <point x="127.998" y="246.001" type="curve" smooth="yes"/>
      <point x="122.713" y="231.906"/>
      <point x="114.514" y="217.788"/>
      <point x="108.999" y="204.001" type="curve" smooth="yes"/>
      <point x="108.332" y="201.334"/>
      <point x="107.999" y="197.667"/>
      <point x="107.999" y="193" type="curve" smooth="yes"/>
      <point x="107.999" y="184" type="line" smooth="yes"/>
      <point x="107.999" y="173.65"/>
      <point x="100.695" y="166"/>
      <point x="90.499" y="166" type="curve" smooth="yes"/>
      <point x="80.3193" y="166"/>
      <point x="71.999" y="173.645"/>
      <point x="71.999" y="184" type="curve" smooth="yes"/>
      <point x="71.999" y="193" type="line" smooth="yes"/>
      <point x="71.999" y="220.773"/>
      <point x="85.8975" y="237.747"/>
      <point x="93.999" y="258" type="curve" smooth="yes"/>
      <point x="101.865" y="278.977"/>
      <point x="115.502" y="294.756"/>
      <point x="125.999" y="314" type="curve" smooth="yes"/>
      <point x="131.756" y="322.635"/>
      <point x="135.43" y="329.431"/>
      <point x="141.999" y="336" type="curve"/>
      <point x="131.468" y="343.898"/>
      <point x="121.53" y="356.102"/>
      <point x="110.999" y="364" type="curve" smooth="yes"/>
      <point x="105.942" y="367.793"/>
      <point x="99.3271" y="375"/>
      <point x="94" y="375" type="curve" smooth="yes"/>
    </contour>
  </outline>
</glyph>
<glyph name="plus" format="1">
  <advance width="557"/>
  <unicode hex="002B"/>
  <outline>
    <contour>
      <point x="301" y="35" type="line" smooth="yes"/>
      <point x="301" y="25.498"/>
      <point x="293.172" y="17.001"/>
      <point x="283.498" y="17.001" type="curve" smooth="yes"/>
      <point x="273.859" y="17.001"/>
      <point x="264.998" y="25.5059"/>
      <point x="264.998" y="35.001" type="curve" smooth="yes"/>
      <point x="264.998" y="108.001" type="line" smooth="yes"/>
      <point x="264.998" y="115.334"/>
      <point x="265.665" y="123.667"/>
      <point x="266.998" y="133" type="curve" smooth="yes"/>
      <point x="268.998" y="161" type="line" smooth="yes"/>
      <point x="270.993" y="188.929"/>
      <point x="275.134" y="224.959"/>
      <point x="276.999" y="252" type="curve" smooth="yes"/>
      <point x="278.999" y="281" type="line" smooth="yes"/>
      <point x="279.666" y="289.667"/>
      <point x="279.999" y="297.334"/>
      <point x="279.999" y="304.001" type="curve" smooth="yes"/>
      <point x="279.999" y="308.001" type="line"/>
      <point x="235.999" y="308.001" type="line" smooth="yes"/>
      <point x="190.827" y="308.001"/>
      <point x="146.698" y="301.451"/>
      <point x="107.999" y="295.001" type="curve" smooth="yes"/>
      <point x="91.999" y="293.001" type="line" smooth="yes"/>
      <point x="81.8379" y="290.969"/>
      <point x="75.6094" y="280.771"/>
      <point x="63.499" y="284.001" type="curve" smooth="yes"/>
      <point x="49.2949" y="287.789"/>
      <point x="44.7734" y="308.872"/>
      <point x="58.999" y="317.001" type="curve" smooth="yes"/>
      <point x="81.042" y="331.696"/>
      <point x="114.761" y="329.792"/>
      <point x="145.998" y="337.001" type="curve" smooth="yes"/>
      <point x="155.998" y="339.001"/>
      <point x="166.331" y="340.334"/>
      <point x="176.998" y="341.001" type="curve" smooth="yes"/>
      <point x="196.732" y="341.001"/>
      <point x="215.506" y="344.001"/>
      <point x="235.998" y="344.001" type="curve" smooth="yes"/>
      <point x="280.998" y="344.001" type="line"/>
      <point x="281.665" y="349.334"/>
      <point x="281.998" y="355.001"/>
      <point x="281.998" y="361.001" type="curve" smooth="yes"/>
      <point x="281.998" y="371.853"/>
      <point x="283.998" y="383.763"/>
      <point x="283.998" y="394.001" type="curve" smooth="yes"/>
      <point x="283.998" y="422.001" type="line" smooth="yes"/>
      <point x="284.665" y="426.001"/>
      <point x="284.998" y="431.001"/>
      <point x="284.998" y="437.001" type="curve" smooth="yes"/>
      <point x="285.665" y="443.001"/>
      <point x="285.998" y="449.334"/>
      <point x="285.998" y="456.001" type="curve" smooth="yes"/>
      <point x="285.998" y="519.001" type="line" smooth="yes"/>
      <point x="285.998" y="528.503"/>
      <point x="293.824" y="537.001"/>
      <point x="303.498" y="537.001" type="curve" smooth="yes"/>
      <point x="313.137" y="537.001"/>
      <point x="321.998" y="528.496"/>
      <point x="321.998" y="519.001" type="curve" smooth="yes"/>
      <point x="321.998" y="456.001" type="line" smooth="yes"/>
      <point x="321.998" y="449.334"/>
      <point x="321.665" y="442.667"/>
      <point x="320.998" y="436" type="curve" smooth="yes"/>
      <point x="320.998" y="428.667"/>
      <point x="320.665" y="422.667"/>
      <point x="319.998" y="418" type="curve" smooth="yes"/>
      <point x="319.998" y="394" type="line" smooth="yes"/>
      <point x="319.998" y="388.667"/>
      <point x="317.998" y="382.799"/>
      <point x="317.998" y="376" type="curve" smooth="yes"/>
      <point x="317.998" y="360.5" type="line" smooth="yes"/>
      <point x="317.998" y="354.833"/>
      <point x="317.665" y="349.333"/>
      <point x="316.998" y="344" type="curve"/>
      <point x="431.998" y="344" type="line" smooth="yes"/>
      <point x="448.714" y="344"/>
      <point x="466.108" y="338"/>
      <point x="482.999" y="338" type="curve" smooth="yes"/>
      <point x="489.999" y="338" type="line" smooth="yes"/>
      <point x="499.229" y="338"/>
      <point x="507.999" y="329.229"/>
      <point x="507.999" y="320" type="curve" smooth="yes"/>
      <point x="507.999" y="310.771"/>
      <point x="499.228" y="302"/>
      <point x="489.999" y="302" type="curve" smooth="yes"/>
      <point x="483.999" y="302" type="line" smooth="yes"/>
      <point x="470.336" y="302"/>
      <point x="454.936" y="303.745"/>
      <point x="443" y="307" type="curve" smooth="yes"/>
      <point x="439" y="307.667"/>
      <point x="435.333" y="308"/>
      <point x="432" y="308" type="curve" smooth="yes"/>
      <point x="316" y="308" type="line"/>
      <point x="316" y="305" type="line" smooth="yes"/>
      <point x="316" y="297"/>
      <point x="315.667" y="288"/>
      <point x="315" y="278" type="curve" smooth="yes"/>
      <point x="312" y="249" type="line" smooth="yes"/>
      <point x="309.941" y="220.179"/>
      <point x="307.017" y="186.229"/>
      <point x="305" y="158" type="curve" smooth="yes"/>
      <point x="303" y="130" type="line" smooth="yes"/>
      <point x="301.667" y="121.333"/>
      <point x="301" y="114"/>
      <point x="301" y="108" type="curve" smooth="yes"/>
    </contour>
  </outline>
</glyph>
<glyph name="comma" format="1">
  <advance width="178"/>
  <unicode hex="002C"/>
  <outline>
    <contour>
      <point x="93" y="35" type="line" smooth="yes"/>
      <point x="93" y="45.3496"/>
      <point x="100.304" y="53"/>
      <point x="110.5" y="53" type="curve" smooth="yes"/>
      <point x="120.68" y="53"/>
      <point x="129" y="45.3555"/>
      <point x="129" y="35" type="curve" smooth="yes"/>
      <point x="129" y="26" type="line" smooth="yes"/>
      <point x="129" y="-6.10938"/>
      <point x="115.454" y="-24.9004"/>
      <point x="99" y="-43" type="curve" smooth="yes"/>
      <point x="91.0322" y="-51.9639"/>
      <point x="88.1641" y="-56.6025"/>
      <point x="82" y="-64" type="curve" smooth="yes"/>
      <point x="69.2002" y="-83.1992"/>
      <point x="38.877" y="-60.1475"/>
      <point x="54" y="-42" type="curve" smooth="yes"/>
      <point x="58" y="-36" type="line"/>
      <point x="73" y="-18" type="line" smooth="yes"/>
      <point x="83.0332" y="-6.5332"/>
      <point x="93" y="5.35059"/>
      <point x="93" y="26" type="curve" smooth="yes"/>
    </contour>
  </outline>
</glyph>
<glyph name="hyphen" format="1">
  <advance width="452"/>
  <unicode hex="002D"/>
  <outline>
    <contour>
      <point x="323" y="276" type="curve" smooth="yes"/>
      <point x="289.587" y="276"/>
      <point x="251.216" y="284.001"/>
      <point x="218.001" y="284.001" type="curve" smooth="yes"/>
      <point x="114.001" y="284.001" type="line" smooth="yes"/>
      <point x="106.001" y="284.001"/>
      <point x="98.334" y="283.668"/>
      <point x="91.001" y="283.001" type="curve" smooth="yes"/>
      <point x="78.4404" y="283.001"/>
      <point x="70.0449" y="275.823"/>
      <point x="59.501" y="281.501" type="curve" smooth="yes"/>
      <point x="46.6396" y="288.426"/>
      <point x="47.9463" y="310.699"/>
      <point x="63" y="315" type="curve" smooth="yes"/>
      <point x="71.3193" y="317.377"/>
      <point x="79.5127" y="319"/>
      <point x="91" y="319" type="curve" smooth="yes"/>
      <point x="98.333" y="319.667"/>
      <point x="106" y="320"/>
      <point x="114" y="320" type="curve" smooth="yes"/>
      <point x="218" y="320" type="line" smooth="yes"/>
      <point x="252.241" y="320"/>
      <point x="289.981" y="312"/>
      <point x="324" y="312" type="curve" smooth="yes"/>
      <point x="329.333" y="311.333"/>
      <point x="335" y="311"/>
      <point x="341" y="311" type="curve" smooth="yes"/>
      <point x="358.401" y="311"/>
      <point x="371.464" y="307.727"/>
      <point x="387" y="306" type="curve" smooth="yes"/>
      <point x="409.5" y="302.786"/>
      <point x="406.237" y="270"/>
      <point x="383" y="270" type="curve"/>
      <point x="373" y="272" type="line" smooth="yes"/>
      <point x="361.375" y="273.162"/>
      <point x="352.529" y="275"/>
      <point x="341" y="275" type="curve" smooth="yes"/>
      <point x="335" y="275"/>
      <point x="329" y="275.333"/>
    </contour>
  </outline>
</glyph>
<glyph name="period" format="1">
  <advance width="138"/>
  <unicode hex="002E"/>
  <outline>
    <contour>
      <point x="50" y="19.5" type="curve" smooth="yes"/>
      <point x="50" y="29.4346"/>
      <point x="57.5654" y="37"/>
      <point x="67.5" y="37" type="curve" smooth="yes"/>
      <point x="78.4688" y="37"/>
      <point x="89" y="27.7861"/>
      <point x="89" y="16.5" type="curve" smooth="yes"/>
      <point x="89" y="6.32031"/>
      <point x="81.3555" y="-2"/>
      <point x="71" y="-2" type="curve" smooth="yes"/>
      <point x="59.2754" y="-2"/>
      <point x="50" y="8.24609"/>
    </contour>
  </outline>
</glyph>
<glyph name="slash" format="1">
  <advance width="419"/>
  <unicode hex="002F"/>
  <outline>
    <contour>
      <point x="85" y="-77" type="line" smooth="yes"/>
      <point x="78.4951" y="-92.1777"/>
      <point x="56.459" y="-90.8857"/>
      <point x="51.501" y="-77.0039" type="curve" smooth="yes"/>
      <point x="49.834" y="-72.3369"/>
      <point x="49.667" y="-67.6699"/>
      <point x="51" y="-63.0029" type="curve" smooth="yes"/>
      <point x="57" y="-51.0029" type="line" smooth="yes"/>
      <point x="71.0869" y="-17.1953"/>
      <point x="80.7402" y="16.9199"/>
      <point x="95.001" y="53.9971" type="curve" smooth="yes"/>
      <point x="114.443" y="102.603"/>
      <point x="132.597" y="156.026"/>
      <point x="153.001" y="204.998" type="curve" smooth="yes"/>
      <point x="173.264" y="254.528"/>
      <point x="194.537" y="304.757"/>
      <point x="209.001" y="358.998" type="curve" smooth="yes"/>
      <point x="215.029" y="377.084"/>
      <point x="222.263" y="387.046"/>
      <point x="227.001" y="405.998" type="curve" smooth="yes"/>
      <point x="238.567" y="446.48"/>
      <point x="255.271" y="485.387"/>
      <point x="269.001" y="521.999" type="curve" smooth="yes"/>
      <point x="275.001" y="541.999" type="line" smooth="yes"/>
      <point x="280.277" y="555.189"/>
      <point x="285.804" y="568.408"/>
      <point x="290.001" y="581" type="curve" smooth="yes"/>
      <point x="295.001" y="596" type="line" smooth="yes"/>
      <point x="297.488" y="608.435"/>
      <point x="305.646" y="620.837"/>
      <point x="310.001" y="631" type="curve" smooth="yes"/>
      <point x="316.673" y="644.345"/>
      <point x="329.007" y="662.761"/>
      <point x="336.001" y="675" type="curve" smooth="yes"/>
      <point x="348.71" y="694.062"/>
      <point x="379.068" y="675.601"/>
      <point x="366.001" y="656" type="curve" smooth="yes"/>
      <point x="353.853" y="634.74"/>
      <point x="335.598" y="612.583"/>
      <point x="329.001" y="588" type="curve" smooth="yes"/>
      <point x="311.089" y="521.249"/>
      <point x="281.017" y="462.555"/>
      <point x="262.001" y="396" type="curve" smooth="yes"/>
      <point x="255.541" y="376.62"/>
      <point x="248.846" y="366.997"/>
      <point x="243.001" y="348" type="curve" smooth="yes"/>
      <point x="216.827" y="256.393"/>
      <point x="177.528" y="174.702"/>
      <point x="146" y="88" type="curve" smooth="yes"/>
      <point x="127.646" y="37.5264"/>
      <point x="108.458" y="-17.0098"/>
      <point x="90" y="-65" type="curve" smooth="yes"/>
    </contour>
  </outline>
</glyph>
<glyph name="zero" format="1">
  <advance width="475"/>
  <unicode hex="0030"/>
  <outline>
    <contour>
      <point x="390" y="530" type="line"/>
      <point x="401.247" y="538.436"/>
      <point x="416.499" y="533.242"/>
      <point x="419.996" y="521.001" type="curve" smooth="yes"/>
      <point x="421.996" y="511.001" type="line" smooth="yes"/>
      <point x="423.996" y="503.001"/>
      <point x="424.996" y="494.334"/>
      <point x="424.996" y="485.001" type="curve" smooth="yes"/>
      <point x="425.663" y="476.334"/>
      <point x="425.996" y="469.667"/>
      <point x="425.996" y="465" type="curve" smooth="yes"/>
      <point x="425.996" y="362" type="line" smooth="yes"/>
      <point x="424.736" y="348.146"/>
      <point x="424.463" y="331.566"/>
      <point x="421.996" y="317.999" type="curve" smooth="yes"/>
      <point x="417.996" y="295.999" type="line" smooth="yes"/>
      <point x="411.666" y="261.184"/>
      <point x="399.374" y="238.582"/>
      <point x="387.996" y="208.999" type="curve" smooth="yes"/>
      <point x="373.956" y="176.239"/>
      <point x="358.725" y="151.911"/>
      <point x="343.996" y="119.999" type="curve" smooth="yes"/>
      <point x="321.5" y="75.0078"/>
      <point x="290.261" y="35.0352"/>
      <point x="246.996" y="10.999" type="curve" smooth="yes"/>
      <point x="235.018" y="4.46484"/>
      <point x="221.172" y="0.999023"/>
      <point x="204.997" y="0.999023" type="curve" smooth="yes"/>
      <point x="165.222" y="0.999023"/>
      <point x="138.42" y="14.7168"/>
      <point x="113.997" y="30.999" type="curve" smooth="yes"/>
      <point x="92.7578" y="44.5156"/>
      <point x="84.8447" y="74.3818"/>
      <point x="74.998" y="98.999" type="curve" smooth="yes"/>
      <point x="61.0811" y="133.791"/>
      <point x="50.998" y="172.116"/>
      <point x="50.998" y="220" type="curve" smooth="yes"/>
      <point x="50.998" y="230.667"/>
      <point x="50.665" y="238.667"/>
      <point x="49.998" y="244" type="curve" smooth="yes"/>
      <point x="49.998" y="268.77"/>
      <point x="54.3037" y="296.286"/>
      <point x="55.998" y="320" type="curve" smooth="yes"/>
      <point x="57.3398" y="337.447"/>
      <point x="61.207" y="357.574"/>
      <point x="64.998" y="374" type="curve" smooth="yes"/>
      <point x="68.1797" y="397.859"/>
      <point x="75.7412" y="413.018"/>
      <point x="82.999" y="436" type="curve" smooth="yes"/>
      <point x="95.0127" y="472.04"/>
      <point x="108.388" y="507.544"/>
      <point x="127.999" y="535" type="curve" smooth="yes"/>
      <point x="151.508" y="562.783"/>
      <point x="175.592" y="594"/>
      <point x="224.999" y="594" type="curve" smooth="yes"/>
      <point x="246.14" y="594"/>
      <point x="265.465" y="590.707"/>
      <point x="284" y="587" type="curve" smooth="yes"/>
      <point x="301" y="582" type="line" smooth="yes"/>
      <point x="330.702" y="572.1"/>
      <point x="356.368" y="563.632"/>
      <point x="376" y="544" type="curve" smooth="yes"/>
    </contour>
    <contour>
      <point x="260.997" y="554.001" type="curve" smooth="yes"/>
      <point x="249.785" y="555.402"/>
      <point x="236.21" y="558.001"/>
      <point x="223.998" y="558.001" type="curve" smooth="yes"/>
      <point x="190.695" y="558.001"/>
      <point x="172.872" y="532.403"/>
      <point x="156.998" y="513.001" type="curve" smooth="yes"/>
      <point x="133.476" y="480.658"/>
      <point x="121.568" y="433.484"/>
      <point x="105.998" y="393.001" type="curve" smooth="yes"/>
      <point x="93.875" y="353.602"/>
      <point x="90.875" y="308.529"/>
      <point x="86.998" y="262.001" type="curve" smooth="yes"/>
      <point x="86.3311" y="256.001"/>
      <point x="85.998" y="250.668"/>
      <point x="85.998" y="246.001" type="curve" smooth="yes"/>
      <point x="86.665" y="239.334"/>
      <point x="86.998" y="230.667"/>
      <point x="86.998" y="220" type="curve" smooth="yes"/>
      <point x="86.998" y="154.062"/>
      <point x="109.557" y="111.364"/>
      <point x="128.998" y="66" type="curve" smooth="yes"/>
      <point x="140.645" y="48.5303"/>
      <point x="177.613" y="37"/>
      <point x="204.998" y="37" type="curve" smooth="yes"/>
      <point x="223.919" y="37"/>
      <point x="234.831" y="44.8887"/>
      <point x="246.998" y="53" type="curve" smooth="yes"/>
      <point x="257.78" y="61.0869"/>
      <point x="276.774" y="79.6484"/>
      <point x="283.998" y="91" type="curve" smooth="yes"/>
      <point x="297.998" y="113" type="line" smooth="yes"/>
      <point x="320.152" y="147.813"/>
      <point x="336.345" y="184.692"/>
      <point x="354.998" y="222" type="curve" smooth="yes"/>
      <point x="360.723" y="238.029"/>
      <point x="368.09" y="253.276"/>
      <point x="372.998" y="268" type="curve" smooth="yes"/>
      <point x="383.831" y="286.958"/>
      <point x="385.609" y="316.727"/>
      <point x="387.998" y="343" type="curve" smooth="yes"/>
      <point x="389.998" y="363" type="line"/>
      <point x="389.998" y="465" type="line" smooth="yes"/>
      <point x="389.998" y="469.667"/>
      <point x="389.665" y="476"/>
      <point x="388.998" y="484" type="curve"/>
      <point x="380.998" y="491" type="line" smooth="yes"/>
      <point x="360.807" y="504.461"/>
      <point x="348.645" y="526.542"/>
      <point x="324.998" y="536.001" type="curve" smooth="yes"/>
      <point x="312.197" y="541.121"/>
      <point x="304.139" y="544.081"/>
      <point x="290.997" y="547.001" type="curve" smooth="yes"/>
      <point x="273.997" y="552.001" type="line" smooth="yes"/>
      <point x="269.997" y="553.334"/>
      <point x="265.664" y="554.001"/>
    </contour>
  </outline>
</glyph>
<glyph name="one" format="1">
  <advance width="554"/>
  <unicode hex="0031"/>
  <outline>
    <contour>
      <point x="68" y="-11" type="line" smooth="yes"/>
      <point x="58.7705" y="-11"/>
      <point x="49.9951" y="-2.22559"/>
      <point x="49.9951" y="7.00293" type="curve" smooth="yes"/>
      <point x="49.9951" y="16.2324"/>
      <point x="58.7666" y="25.0029"/>
      <point x="67.9951" y="25.0029" type="curve" smooth="yes"/>
      <point x="108.995" y="25.0029" type="line" smooth="yes"/>
      <point x="119.662" y="25.0029"/>
      <point x="128.995" y="25.3359"/>
      <point x="136.995" y="26.0029" type="curve" smooth="yes"/>
      <point x="162.995" y="28.0029" type="line" smooth="yes"/>
      <point x="186.297" y="29.667"/>
      <point x="214.097" y="32.123"/>
      <point x="240.995" y="31.002" type="curve" smooth="yes"/>
      <point x="287.995" y="31.002" type="line"/>
      <point x="287.995" y="134.002" type="line" smooth="yes"/>
      <point x="287.995" y="147.61"/>
      <point x="284.995" y="165.216"/>
      <point x="284.995" y="179.002" type="curve" smooth="yes"/>
      <point x="286.829" y="190.006"/>
      <point x="283.995" y="205.759"/>
      <point x="283.995" y="218.002" type="curve" smooth="yes"/>
      <point x="283.995" y="224.669"/>
      <point x="283.662" y="231.336"/>
      <point x="282.995" y="238.003" type="curve" smooth="yes"/>
      <point x="282.995" y="257.137"/>
      <point x="279.995" y="273.751"/>
      <point x="279.995" y="294.003" type="curve" smooth="yes"/>
      <point x="279.995" y="312.003" type="line" smooth="yes"/>
      <point x="279.995" y="316.67"/>
      <point x="279.662" y="321.67"/>
      <point x="278.995" y="327.003" type="curve" smooth="yes"/>
      <point x="278.995" y="337.672"/>
      <point x="277.1" y="345.961"/>
      <point x="275.995" y="357.003" type="curve" smooth="yes"/>
      <point x="275.995" y="367.867"/>
      <point x="273.995" y="378.593"/>
      <point x="273.995" y="389.003" type="curve" smooth="yes"/>
      <point x="273.328" y="393.67"/>
      <point x="272.995" y="398.67"/>
      <point x="272.995" y="404.003" type="curve" smooth="yes"/>
      <point x="272.995" y="590.003" type="line" smooth="yes"/>
      <point x="271.662" y="588.003"/>
      <point x="269.995" y="586.336"/>
      <point x="267.995" y="585.003" type="curve" smooth="yes"/>
      <point x="241.652" y="555.367"/>
      <point x="225.541" y="527.567"/>
      <point x="202.995" y="496.003" type="curve" smooth="yes"/>
      <point x="188.289" y="475.782"/>
      <point x="182.808" y="454.735"/>
      <point x="168.995" y="435.003" type="curve" smooth="yes"/>
      <point x="161.84" y="423.554"/>
      <point x="156.198" y="391.524"/>
      <point x="133.496" y="402.002" type="curve" smooth="yes"/>
      <point x="112.277" y="411.795"/>
      <point x="129.718" y="440.422"/>
      <point x="138.996" y="455.002" type="curve" smooth="yes"/>
      <point x="154.2" y="475.273"/>
      <point x="158.291" y="496.585"/>
      <point x="173.997" y="518.002" type="curve" smooth="yes"/>
      <point x="197.557" y="549.414"/>
      <point x="214.622" y="578.584"/>
      <point x="241.998" y="609.002" type="curve" smooth="yes"/>
      <point x="255.998" y="624.335"/>
      <point x="267.665" y="633.335"/>
      <point x="276.998" y="636.002" type="curve" smooth="yes"/>
      <point x="293.096" y="639.222"/>
      <point x="308.998" y="630.404"/>
      <point x="308.998" y="614.002" type="curve" smooth="yes"/>
      <point x="308.998" y="404.002" type="line" smooth="yes"/>
      <point x="308.998" y="399.335"/>
      <point x="309.331" y="394.668"/>
      <point x="309.998" y="390.001" type="curve" smooth="yes"/>
      <point x="309.998" y="385.334"/>
      <point x="310.331" y="380.667"/>
      <point x="310.998" y="376" type="curve" smooth="yes"/>
      <point x="310.998" y="370.667"/>
      <point x="311.331" y="365"/>
      <point x="311.998" y="359" type="curve" smooth="yes"/>
      <point x="313.998" y="345" type="line" smooth="yes"/>
      <point x="314.665" y="339.667"/>
      <point x="314.998" y="334"/>
      <point x="314.998" y="328" type="curve" smooth="yes"/>
      <point x="315.665" y="322.667"/>
      <point x="315.998" y="317.334"/>
      <point x="315.998" y="312.001" type="curve" smooth="yes"/>
      <point x="315.998" y="294.001" type="line" smooth="yes"/>
      <point x="315.998" y="274.014"/>
      <point x="318.998" y="258.146"/>
      <point x="318.998" y="239" type="curve" smooth="yes"/>
      <point x="319.665" y="232.333"/>
      <point x="319.998" y="225.333"/>
      <point x="319.998" y="218" type="curve" smooth="yes"/>
      <point x="319.998" y="204.758"/>
      <point x="322.304" y="189.056"/>
      <point x="320.998" y="176" type="curve" smooth="yes"/>
      <point x="320.998" y="163.208"/>
      <point x="323.998" y="148.056"/>
      <point x="323.998" y="134" type="curve" smooth="yes"/>
      <point x="323.998" y="31" type="line"/>
      <point x="463.998" y="31" type="line" smooth="yes"/>
      <point x="473.926" y="31"/>
      <point x="483.832" y="38.9229"/>
      <point x="494.498" y="34" type="curve" smooth="yes"/>
      <point x="507.458" y="28.0186"/>
      <point x="507.537" y="5.43945"/>
      <point x="491.998" y="1" type="curve" smooth="yes"/>
      <point x="484.053" y="-1.97949"/>
      <point x="473.992" y="-5"/>
      <point x="463.998" y="-5" type="curve" smooth="yes"/>
      <point x="313.998" y="-5" type="line" smooth="yes"/>
      <point x="311.331" y="-6.33301"/>
      <point x="308.498" y="-7"/>
      <point x="305.498" y="-7" type="curve" smooth="yes"/>
      <point x="302.498" y="-7"/>
      <point x="299.998" y="-6.33301"/>
      <point x="297.998" y="-5" type="curve" smooth="yes"/>
      <point x="240.998" y="-5" type="line" smooth="yes"/>
      <point x="215.338" y="-3.88477"/>
      <point x="187.85" y="-6.31934"/>
      <point x="165.999" y="-8" type="curve" smooth="yes"/>
      <point x="139.999" y="-10" type="line" smooth="yes"/>
      <point x="130.666" y="-10.667"/>
      <point x="120.333" y="-11"/>
      <point x="109" y="-11" type="curve" smooth="yes"/>
    </contour>
  </outline>
</glyph>
<glyph name="two" format="1">
  <advance width="477"/>
  <unicode hex="0032"/>
  <outline>
    <contour>
      <point x="428" y="49.5" type="curve" smooth="yes"/>
      <point x="428" y="39.8252"/>
      <point x="419.499" y="32"/>
      <point x="409.996" y="32" type="curve" smooth="yes"/>
      <point x="306.996" y="32" type="line" smooth="yes"/>
      <point x="277.307" y="32"/>
      <point x="248.942" y="29.1836"/>
      <point x="216.997" y="28" type="curve" smooth="yes"/>
      <point x="175.249" y="26.4541"/>
      <point x="137.349" y="24.5879"/>
      <point x="102.997" y="16" type="curve" smooth="yes"/>
      <point x="75.3691" y="11.3955"/>
      <point x="37.4111" y="24.0273"/>
      <point x="54.9971" y="57.001" type="curve" smooth="yes"/>
      <point x="65.3662" y="69.9629"/>
      <point x="78.0889" y="92.1299"/>
      <point x="87.9971" y="106.001" type="curve" smooth="yes"/>
      <point x="99.7129" y="120.06"/>
      <point x="109.563" y="138.79"/>
      <point x="121.997" y="153" type="curve" smooth="yes"/>
      <point x="140.976" y="175.141"/>
      <point x="159.824" y="197.769"/>
      <point x="177.997" y="222" type="curve" smooth="yes"/>
      <point x="208.721" y="255.796"/>
      <point x="230.295" y="286.61"/>
      <point x="255.998" y="327" type="curve" smooth="yes"/>
      <point x="270.438" y="352.549"/>
      <point x="289.939" y="383.123"/>
      <point x="305.998" y="403.999" type="curve" smooth="yes"/>
      <point x="316.472" y="417.091"/>
      <point x="321.437" y="428.314"/>
      <point x="326.998" y="445" type="curve" smooth="yes"/>
      <point x="332.136" y="456.303"/>
      <point x="334.998" y="461.547"/>
      <point x="334.998" y="473" type="curve" smooth="yes"/>
      <point x="334.998" y="517.092"/>
      <point x="317.375" y="546.536"/>
      <point x="290.998" y="565" type="curve" smooth="yes"/>
      <point x="283.373" y="571.778"/>
      <point x="267.683" y="582"/>
      <point x="256.998" y="582" type="curve" smooth="yes"/>
      <point x="253.665" y="582.667"/>
      <point x="249.998" y="583.334"/>
      <point x="245.998" y="584.001" type="curve" smooth="yes"/>
      <point x="218.998" y="584.001" type="line" smooth="yes"/>
      <point x="195.085" y="584.001"/>
      <point x="170.993" y="579.284"/>
      <point x="153.998" y="572.001" type="curve" smooth="yes"/>
      <point x="136.576" y="560.386"/>
      <point x="108.394" y="538.988"/>
      <point x="99.998" y="518" type="curve" smooth="yes"/>
      <point x="99.3311" y="516"/>
      <point x="98.998" y="512.667"/>
      <point x="98.998" y="508" type="curve" smooth="yes"/>
      <point x="98.998" y="495.569"/>
      <point x="109.781" y="490.243"/>
      <point x="105.998" y="477" type="curve" smooth="yes"/>
      <point x="102.194" y="463.688"/>
      <point x="79.5527" y="458.705"/>
      <point x="72.998" y="474" type="curve" smooth="yes"/>
      <point x="68.0342" y="483.929"/>
      <point x="62.998" y="493.671"/>
      <point x="62.998" y="508" type="curve" smooth="yes"/>
      <point x="62.998" y="527.82"/>
      <point x="68.4775" y="537.334"/>
      <point x="76.498" y="549" type="curve" smooth="yes"/>
      <point x="84.1357" y="560.109"/>
      <point x="108.376" y="584.548"/>
      <point x="119.998" y="593" type="curve" smooth="yes"/>
      <point x="146.6" y="608.961"/>
      <point x="175.623" y="620"/>
      <point x="218.999" y="620" type="curve" smooth="yes"/>
      <point x="228.666" y="620"/>
      <point x="238.407" y="621.199"/>
      <point x="247.999" y="620" type="curve" smooth="yes"/>
      <point x="263.999" y="618" type="line" smooth="yes"/>
      <point x="289.943" y="611.514"/>
      <point x="315.245" y="593.754"/>
      <point x="331.999" y="577" type="curve" smooth="yes"/>
      <point x="356.685" y="555.4"/>
      <point x="370.999" y="517.879"/>
      <point x="370.999" y="473" type="curve" smooth="yes"/>
      <point x="370.999" y="448.313"/>
      <point x="359.544" y="426.799"/>
      <point x="350.999" y="408.001" type="curve" smooth="yes"/>
      <point x="340.924" y="386.171"/>
      <point x="328.048" y="372.995"/>
      <point x="312.999" y="351.001" type="curve" smooth="yes"/>
      <point x="290.906" y="317.013"/>
      <point x="268.298" y="275.16"/>
      <point x="243.999" y="246.001" type="curve" smooth="yes"/>
      <point x="216.453" y="212.333"/>
      <point x="188.297" y="176.758"/>
      <point x="160.999" y="144" type="curve" smooth="yes"/>
      <point x="145.93" y="125.916"/>
      <point x="132.248" y="103.298"/>
      <point x="116.999" y="85" type="curve" smooth="yes"/>
      <point x="109.22" y="75.665"/>
      <point x="101.74" y="62.2354"/>
      <point x="94.999" y="51" type="curve"/>
      <point x="144.617" y="60.9238"/>
      <point x="206.085" y="63.4385"/>
      <point x="265" y="66" type="curve" smooth="yes"/>
      <point x="279.667" y="67.333"/>
      <point x="293.667" y="68"/>
      <point x="307" y="68" type="curve" smooth="yes"/>
      <point x="410" y="68" type="line" smooth="yes"/>
      <point x="419.494" y="68"/>
      <point x="428" y="59.1367"/>
    </contour>
  </outline>
</glyph>
<glyph name="three" format="1">
  <advance width="509"/>
  <unicode hex="0033"/>
  <outline>
    <contour>
      <point x="242" y="336" type="line" smooth="yes"/>
      <point x="233.614" y="336"/>
      <point x="230.874" y="372"/>
      <point x="235.994" y="372" type="curve" smooth="yes"/>
      <point x="248.591" y="372"/>
      <point x="274.327" y="376.499"/>
      <point x="282.995" y="383" type="curve" smooth="yes"/>
      <point x="296.599" y="390.773"/>
      <point x="306.115" y="392.998"/>
      <point x="322.995" y="402" type="curve" smooth="yes"/>
      <point x="347.165" y="414.891"/>
      <point x="362.677" y="423.196"/>
      <point x="382.995" y="438.999" type="curve" smooth="yes"/>
      <point x="391.555" y="445.113"/>
      <point x="397.878" y="453.394"/>
      <point x="401.994" y="462.999" type="curve" smooth="yes"/>
      <point x="404.661" y="466.999"/>
      <point x="405.994" y="470.999"/>
      <point x="405.994" y="474.999" type="curve" smooth="yes"/>
      <point x="407.327" y="478.999"/>
      <point x="407.994" y="482.999"/>
      <point x="407.994" y="486.999" type="curve" smooth="yes"/>
      <point x="407.994" y="501.999" type="line" smooth="yes"/>
      <point x="407.994" y="506.666"/>
      <point x="407.661" y="510.999"/>
      <point x="406.994" y="514.999" type="curve" smooth="yes"/>
      <point x="406.994" y="580.449"/>
      <point x="346.619" y="617.349"/>
      <point x="299.994" y="635.998" type="curve" smooth="yes"/>
      <point x="295.327" y="637.998"/>
      <point x="290.327" y="638.998"/>
      <point x="284.994" y="638.998" type="curve" smooth="yes"/>
      <point x="157.994" y="638.998" type="line" smooth="yes"/>
      <point x="137.955" y="638.998"/>
      <point x="134.879" y="601.651"/>
      <point x="129.994" y="586.998" type="curve" smooth="yes"/>
      <point x="127.784" y="579.262"/>
      <point x="123.656" y="571.305"/>
      <point x="121.995" y="562.998" type="curve" smooth="yes"/>
      <point x="121.328" y="557.665"/>
      <point x="119.995" y="550.332"/>
      <point x="117.995" y="540.999" type="curve"/>
      <point x="130.558" y="540.999"/>
      <point x="139.583" y="525.381"/>
      <point x="131.995" y="513.999" type="curve" smooth="yes"/>
      <point x="126.995" y="503.999" type="line" smooth="yes"/>
      <point x="117.637" y="489.961"/>
      <point x="95.5078" y="488.352"/>
      <point x="85.9951" y="504.999" type="curve" smooth="yes"/>
      <point x="81.9951" y="512.332"/>
      <point x="79.9951" y="519.665"/>
      <point x="79.9951" y="526.998" type="curve" smooth="yes"/>
      <point x="79.9951" y="544.409"/>
      <point x="85.9092" y="572.435"/>
      <point x="90.9951" y="585.998" type="curve" smooth="yes"/>
      <point x="97.6875" y="599.384"/>
      <point x="99.9648" y="619.431"/>
      <point x="105.995" y="632.998" type="curve" smooth="yes"/>
      <point x="114.488" y="654.23"/>
      <point x="130.109" y="674.133"/>
      <point x="156.995" y="674.998" type="curve" smooth="yes"/>
      <point x="199.604" y="676.369"/>
      <point x="242.328" y="674.998"/>
      <point x="284.995" y="674.998" type="curve" smooth="yes"/>
      <point x="313.39" y="674.998"/>
      <point x="338.024" y="657.839"/>
      <point x="356.995" y="646.998" type="curve" smooth="yes"/>
      <point x="383.964" y="631.587"/>
      <point x="412.604" y="607.012"/>
      <point x="425.996" y="577.997" type="curve" smooth="yes"/>
      <point x="433.694" y="559.521"/>
      <point x="442.996" y="539.737"/>
      <point x="442.996" y="516.998" type="curve" smooth="yes"/>
      <point x="443.663" y="512.331"/>
      <point x="443.996" y="507.331"/>
      <point x="443.996" y="501.998" type="curve" smooth="yes"/>
      <point x="443.996" y="486.998" type="line" smooth="yes"/>
      <point x="443.996" y="440.526"/>
      <point x="414.751" y="413.852"/>
      <point x="384.996" y="395.999" type="curve" smooth="yes"/>
      <point x="364.996" y="383.999" type="line" smooth="yes"/>
      <point x="357.616" y="379.571"/>
      <point x="344.062" y="373.71"/>
      <point x="333.996" y="366.999" type="curve"/>
      <point x="379.875" y="361.901"/>
      <point x="418.058" y="345.899"/>
      <point x="437.996" y="313.999" type="curve" smooth="yes"/>
      <point x="456.107" y="291.359"/>
      <point x="459.996" y="252.229"/>
      <point x="459.996" y="213.999" type="curve" smooth="yes"/>
      <point x="459.996" y="182.445"/>
      <point x="455.278" y="152.362"/>
      <point x="440.996" y="133.999" type="curve" smooth="yes"/>
      <point x="430.56" y="121.476"/>
      <point x="426.352" y="114.25"/>
      <point x="411.996" y="100.999" type="curve" smooth="yes"/>
      <point x="402.663" y="92.332"/>
      <point x="392.996" y="85.332"/>
      <point x="382.996" y="79.999" type="curve" smooth="yes"/>
      <point x="364.243" y="71.3438"/>
      <point x="361.501" y="68.002"/>
      <point x="344.997" y="56.999" type="curve" smooth="yes"/>
      <point x="325.181" y="46.1904"/>
      <point x="303.716" y="28.415"/>
      <point x="278.996" y="20.999" type="curve" smooth="yes"/>
      <point x="257.352" y="16.1895"/>
      <point x="234.058" y="10.999"/>
      <point x="207.995" y="10.999" type="curve" smooth="yes"/>
      <point x="172.506" y="10.999"/>
      <point x="154.497" y="28.998"/>
      <point x="128.995" y="43.999" type="curve" smooth="yes"/>
      <point x="95.6992" y="66.7803"/>
      <point x="82.0342" y="98.1377"/>
      <point x="67.9961" y="138.498" type="curve" smooth="yes"/>
      <point x="63.1582" y="152.407"/>
      <point x="61.7725" y="162.263"/>
      <point x="56.9971" y="174.998" type="curve" smooth="yes"/>
      <point x="54.9971" y="181.665"/>
      <point x="53.9971" y="188.332"/>
      <point x="53.9971" y="194.999" type="curve" smooth="yes"/>
      <point x="51.9971" y="210.999" type="line" smooth="yes"/>
      <point x="50.6641" y="216.999"/>
      <point x="49.9971" y="222.999"/>
      <point x="49.9971" y="228.999" type="curve" smooth="yes"/>
      <point x="49.9971" y="246.999" type="line" smooth="yes"/>
      <point x="49.9971" y="267.115"/>
      <point x="61.6133" y="283.935"/>
      <point x="70.9971" y="295.999" type="curve" smooth="yes"/>
      <point x="86.0488" y="314.396"/>
      <point x="114.159" y="321.286"/>
      <point x="143.997" y="323.999" type="curve" smooth="yes"/>
      <point x="151.997" y="325.332"/>
      <point x="158.33" y="325.999"/>
      <point x="162.997" y="325.999" type="curve" smooth="yes"/>
      <point x="168.997" y="325.999" type="line" smooth="yes"/>
      <point x="179.354" y="325.999"/>
      <point x="186.997" y="317.68"/>
      <point x="186.997" y="307.499" type="curve" smooth="yes"/>
      <point x="186.997" y="297.304"/>
      <point x="179.345" y="289.999"/>
      <point x="168.997" y="289.999" type="curve" smooth="yes"/>
      <point x="162.997" y="289.999" type="line" smooth="yes"/>
      <point x="141.557" y="289.999"/>
      <point x="108.643" y="285.859"/>
      <point x="98.9971" y="272.999" type="curve" smooth="yes"/>
      <point x="94.5186" y="267.625"/>
      <point x="85.9971" y="257.429"/>
      <point x="85.9971" y="246.999" type="curve" smooth="yes"/>
      <point x="85.9971" y="229.999" type="line" smooth="yes"/>
      <point x="85.9971" y="218.956"/>
      <point x="88.9971" y="208.448"/>
      <point x="88.9971" y="197.999" type="curve" smooth="yes"/>
      <point x="94.7988" y="157.385"/>
      <point x="112.392" y="119.237"/>
      <point x="130.997" y="90" type="curve" smooth="yes"/>
      <point x="137.621" y="80.7266"/>
      <point x="164.561" y="65.3125"/>
      <point x="171.998" y="60" type="curve" smooth="yes"/>
      <point x="181.588" y="54.2461"/>
      <point x="194.371" y="47"/>
      <point x="208.998" y="47" type="curve" smooth="yes"/>
      <point x="248.098" y="47"/>
      <point x="282.075" y="56.8076"/>
      <point x="304.998" y="74" type="curve" smooth="yes"/>
      <point x="314.476" y="81.3711"/>
      <point x="334.562" y="92.709"/>
      <point x="343.999" y="99" type="curve" smooth="yes"/>
      <point x="354.277" y="107.81"/>
      <point x="375.383" y="116.545"/>
      <point x="386.999" y="127" type="curve" smooth="yes"/>
      <point x="400.531" y="139.302"/>
      <point x="402.681" y="144.961"/>
      <point x="413" y="157" type="curve" smooth="yes"/>
      <point x="422.082" y="169.109"/>
      <point x="424" y="193.518"/>
      <point x="424" y="214" type="curve" smooth="yes"/>
      <point x="424" y="240.25"/>
      <point x="420.617" y="262.148"/>
      <point x="414" y="282" type="curve" smooth="yes"/>
      <point x="411.159" y="299.046"/>
      <point x="392.148" y="316.213"/>
      <point x="377" y="320" type="curve" smooth="yes"/>
      <point x="341" y="329" type="line" smooth="yes"/>
      <point x="324.8" y="333.05"/>
      <point x="303.856" y="336"/>
      <point x="283" y="336" type="curve" smooth="yes"/>
    </contour>
  </outline>
</glyph>
<glyph name="four" format="1">
  <advance width="550"/>
  <unicode hex="0034"/>
  <outline>
    <contour>
      <point x="169" y="238" type="line" smooth="yes"/>
      <point x="179.706" y="238"/>
      <point x="188.734" y="234"/>
      <point x="200.001" y="234" type="curve" smooth="yes"/>
      <point x="321.001" y="234" type="line"/>
      <point x="323.773" y="272.816"/>
      <point x="327.626" y="308.625"/>
      <point x="330.001" y="348.999" type="curve" smooth="yes"/>
      <point x="332.001" y="382.999" type="line" smooth="yes"/>
      <point x="335.247" y="441.427"/>
      <point x="348.566" y="500.083"/>
      <point x="355.002" y="557.999" type="curve" smooth="yes"/>
      <point x="357.403" y="579.614"/>
      <point x="361.935" y="607.064"/>
      <point x="365.001" y="626.999" type="curve" smooth="yes"/>
      <point x="371.001" y="665.999" type="line" smooth="yes"/>
      <point x="374.207" y="688.44"/>
      <point x="410.31" y="683.158"/>
      <point x="407.001" y="659.999" type="curve" smooth="yes"/>
      <point x="400.001" y="620.999" type="line" smooth="yes"/>
      <point x="393.619" y="576.325"/>
      <point x="385.92" y="528.272"/>
      <point x="381.001" y="484" type="curve" smooth="yes"/>
      <point x="377.281" y="448.659"/>
      <point x="370.181" y="418.052"/>
      <point x="368.001" y="381" type="curve" smooth="yes"/>
      <point x="366.001" y="347" type="line" smooth="yes"/>
      <point x="363.693" y="307.775"/>
      <point x="360.153" y="271.831"/>
      <point x="357.001" y="233.999" type="curve"/>
      <point x="448.001" y="233.999" type="line" smooth="yes"/>
      <point x="468.17" y="232.654"/>
      <point x="478.912" y="223.725"/>
      <point x="492.001" y="214.999" type="curve" smooth="yes"/>
      <point x="510.673" y="202.552"/>
      <point x="492.497" y="173.287"/>
      <point x="472.001" y="184.999" type="curve" smooth="yes"/>
      <point x="464.817" y="189.788"/>
      <point x="456.813" y="197.999"/>
      <point x="446.001" y="197.999" type="curve" smooth="yes"/>
      <point x="353.001" y="197.999" type="line"/>
      <point x="352.334" y="193.999"/>
      <point x="352.001" y="189.999"/>
      <point x="352.001" y="185.999" type="curve" smooth="yes"/>
      <point x="350.668" y="178.666"/>
      <point x="350.001" y="172.333"/>
      <point x="350.001" y="167" type="curve" smooth="yes"/>
      <point x="350.001" y="152.022"/>
      <point x="348.282" y="143.379"/>
      <point x="347.001" y="128" type="curve" smooth="yes"/>
      <point x="347.001" y="119.333"/>
      <point x="346.668" y="112"/>
      <point x="346.001" y="106" type="curve" smooth="yes"/>
      <point x="346.001" y="15" type="line" smooth="yes"/>
      <point x="346.001" y="5.77051"/>
      <point x="337.229" y="-3"/>
      <point x="328.001" y="-3" type="curve" smooth="yes"/>
      <point x="318.771" y="-3"/>
      <point x="310.001" y="5.77148"/>
      <point x="310.001" y="15" type="curve" smooth="yes"/>
      <point x="310.001" y="109" type="line" smooth="yes"/>
      <point x="310.668" y="114.333"/>
      <point x="311.001" y="121"/>
      <point x="311.001" y="129" type="curve" smooth="yes"/>
      <point x="312.141" y="144.954"/>
      <point x="314.001" y="153.466"/>
      <point x="314.001" y="168" type="curve" smooth="yes"/>
      <point x="314.001" y="174"/>
      <point x="314.668" y="181"/>
      <point x="316.001" y="189" type="curve" smooth="yes"/>
      <point x="316.001" y="192.333"/>
      <point x="316.334" y="195.333"/>
      <point x="317.001" y="198" type="curve" smooth="yes"/>
      <point x="200.001" y="198" type="line" smooth="yes"/>
      <point x="188.823" y="198"/>
      <point x="178.02" y="202"/>
      <point x="168.001" y="202" type="curve" smooth="yes"/>
      <point x="136.001" y="202" type="line" smooth="yes"/>
      <point x="120.422" y="202"/>
      <point x="98.9092" y="206"/>
      <point x="82.001" y="206" type="curve" smooth="yes"/>
      <point x="56.5469" y="206"/>
      <point x="39.2471" y="233.995"/>
      <point x="58.001" y="259" type="curve" smooth="yes"/>
      <point x="69.46" y="274.757"/>
      <point x="77.3701" y="283.727"/>
      <point x="88" y="301" type="curve" smooth="yes"/>
      <point x="98.3643" y="318.274"/>
      <point x="108.532" y="330.665"/>
      <point x="120" y="345" type="curve" smooth="yes"/>
      <point x="136" y="365" type="line" smooth="yes"/>
      <point x="145.559" y="377.289"/>
      <point x="156.163" y="392.375"/>
      <point x="165" y="405" type="curve" smooth="yes"/>
      <point x="175.252" y="416.716"/>
      <point x="181.396" y="433.995"/>
      <point x="191" y="446" type="curve" smooth="yes"/>
      <point x="208.869" y="466.421"/>
      <point x="227.298" y="489.669"/>
      <point x="239.001" y="516" type="curve" smooth="yes"/>
      <point x="244.84" y="530.015"/>
      <point x="251.243" y="542.314"/>
      <point x="256" y="555" type="curve" smooth="yes"/>
      <point x="260.566" y="567.177"/>
      <point x="268.492" y="595.695"/>
      <point x="289.5" y="585.999" type="curve" smooth="yes"/>
      <point x="296.346" y="582.84"/>
      <point x="303.729" y="573.032"/>
      <point x="299" y="562" type="curve" smooth="yes"/>
      <point x="283.594" y="535.038"/>
      <point x="275.082" y="502.572"/>
      <point x="258" y="476" type="curve" smooth="yes"/>
      <point x="246.949" y="461.266"/>
      <point x="242.917" y="454.223"/>
      <point x="233" y="441" type="curve" smooth="yes"/>
      <point x="217.986" y="423.842"/>
      <point x="207.639" y="401.754"/>
      <point x="194" y="383.001" type="curve" smooth="yes"/>
      <point x="173.204" y="356.264"/>
      <point x="155.322" y="328.804"/>
      <point x="132.999" y="304" type="curve" smooth="yes"/>
      <point x="123.336" y="291.575"/>
      <point x="110.018" y="269.454"/>
      <point x="101.999" y="258" type="curve" smooth="yes"/>
      <point x="89.999" y="242" type="line"/>
      <point x="98.999" y="242" type="line" smooth="yes"/>
      <point x="107.356" y="240.955"/>
      <point x="127.882" y="238"/>
      <point x="136" y="238" type="curve" smooth="yes"/>
    </contour>
  </outline>
</glyph>
<glyph name="five" format="1">
  <advance width="467"/>
  <unicode hex="0035"/>
  <outline>
    <contour>
      <point x="242" y="594" type="line" smooth="yes"/>
      <point x="259.842" y="594"/>
      <point x="279.354" y="591.239"/>
      <point x="294.999" y="589.004" type="curve" smooth="yes"/>
      <point x="300.332" y="589.004"/>
      <point x="306.665" y="588.671"/>
      <point x="313.998" y="588.004" type="curve" smooth="yes"/>
      <point x="332.998" y="588.004" type="line" smooth="yes"/>
      <point x="338.998" y="588.004"/>
      <point x="346.665" y="587.671"/>
      <point x="355.998" y="587.004" type="curve" smooth="yes"/>
      <point x="379.73" y="587.004"/>
      <point x="392.287" y="580.737"/>
      <point x="407.998" y="574.004" type="curve" smooth="yes"/>
      <point x="426.722" y="563.305"/>
      <point x="413.416" y="530.295"/>
      <point x="391.998" y="541.004" type="curve" smooth="yes"/>
      <point x="380.748" y="547.433"/>
      <point x="374.657" y="551.004"/>
      <point x="354.998" y="551.004" type="curve" smooth="yes"/>
      <point x="345.665" y="551.671"/>
      <point x="338.332" y="552.004"/>
      <point x="332.999" y="552.004" type="curve" smooth="yes"/>
      <point x="311.999" y="552.004" type="line" smooth="yes"/>
      <point x="304.666" y="552.671"/>
      <point x="298.333" y="553.004"/>
      <point x="293" y="553.004" type="curve" smooth="yes"/>
      <point x="277.541" y="554.937"/>
      <point x="260.13" y="558.004"/>
      <point x="243.001" y="558.004" type="curve" smooth="yes"/>
      <point x="179.001" y="558.004" type="line" smooth="yes"/>
      <point x="152.271" y="558.004"/>
      <point x="136.895" y="545.79"/>
      <point x="128.002" y="528.004" type="curve" smooth="yes"/>
      <point x="124.002" y="516.004" type="line" smooth="yes"/>
      <point x="117.918" y="500.795"/>
      <point x="115.519" y="478.591"/>
      <point x="112.001" y="461.004" type="curve" smooth="yes"/>
      <point x="105.942" y="444.849"/>
      <point x="102.213" y="418.701"/>
      <point x="100.001" y="401.004" type="curve" smooth="yes"/>
      <point x="98.001" y="383.004" type="line" smooth="yes"/>
      <point x="95.2559" y="370.65"/>
      <point x="92.6523" y="361.259"/>
      <point x="90.001" y="348.004" type="curve"/>
      <point x="117.775" y="368.835"/>
      <point x="163.354" y="375.343"/>
      <point x="202.001" y="385.005" type="curve" smooth="yes"/>
      <point x="222.329" y="388.132"/>
      <point x="242.062" y="391.005"/>
      <point x="263.001" y="391.005" type="curve" smooth="yes"/>
      <point x="280.001" y="391.005" type="line" smooth="yes"/>
      <point x="295.81" y="391.005"/>
      <point x="308.309" y="388.688"/>
      <point x="319.001" y="382.005" type="curve" smooth="yes"/>
      <point x="335.001" y="372.005" type="line" smooth="yes"/>
      <point x="350.56" y="358.392"/>
      <point x="362.204" y="340.068"/>
      <point x="375.002" y="323.005" type="curve" smooth="yes"/>
      <point x="396.918" y="290.132"/>
      <point x="408.002" y="237.743"/>
      <point x="408.002" y="186.005" type="curve" smooth="yes"/>
      <point x="408.002" y="169.005" type="line" smooth="yes"/>
      <point x="408.002" y="138.811"/>
      <point x="398.301" y="122.685"/>
      <point x="382.002" y="104.505" type="curve" smooth="yes"/>
      <point x="363.138" y="83.4639"/>
      <point x="341.862" y="76.918"/>
      <point x="318.002" y="62.0049" type="curve" smooth="yes"/>
      <point x="287.825" y="43.1445"/>
      <point x="259.179" y="25.9131"/>
      <point x="221.002" y="15.0059" type="curve" smooth="yes"/>
      <point x="165.115" y="2.58691"/>
      <point x="134.606" y="46.4014"/>
      <point x="108.002" y="73.0059" type="curve" smooth="yes"/>
      <point x="89.9463" y="96.2207"/>
      <point x="80.877" y="127.318"/>
      <point x="69.002" y="157.007" type="curve" smooth="yes"/>
      <point x="65.002" y="167.007" type="line" smooth="yes"/>
      <point x="60.7744" y="181.802"/>
      <point x="73.6445" y="197.017"/>
      <point x="90.001" y="190.007" type="curve" smooth="yes"/>
      <point x="94.668" y="188.007"/>
      <point x="97.668" y="184.674"/>
      <point x="99.001" y="180.007" type="curve" smooth="yes"/>
      <point x="103.001" y="170.007" type="line" smooth="yes"/>
      <point x="111.059" y="149.862"/>
      <point x="119.084" y="126.841"/>
      <point x="128.001" y="109.006" type="curve" smooth="yes"/>
      <point x="132.495" y="98.5195"/>
      <point x="141.993" y="90.417"/>
      <point x="148.002" y="82.0049" type="curve" smooth="yes"/>
      <point x="155.002" y="73.6055"/>
      <point x="164.566" y="67.4404"/>
      <point x="172.002" y="60.0049" type="curve" smooth="yes"/>
      <point x="180.148" y="53.8945"/>
      <point x="194.039" y="53.4219"/>
      <point x="206.002" y="50.0039" type="curve" smooth="yes"/>
      <point x="213.002" y="50.0039" type="line"/>
      <point x="241.263" y="55.6562"/>
      <point x="261.727" y="71.8662"/>
      <point x="284.001" y="83.0039" type="curve" smooth="yes"/>
      <point x="301.808" y="94.1328"/>
      <point x="319.91" y="104.59"/>
      <point x="339.001" y="115.003" type="curve" smooth="yes"/>
      <point x="355.236" y="124.28"/>
      <point x="372.001" y="145.073"/>
      <point x="372.001" y="169.003" type="curve" smooth="yes"/>
      <point x="372.001" y="187.003" type="line" smooth="yes"/>
      <point x="372.001" y="227.338"/>
      <point x="362.252" y="261"/>
      <point x="351.001" y="291.003" type="curve" smooth="yes"/>
      <point x="345.001" y="303.003" type="line" smooth="yes"/>
      <point x="331.354" y="324.838"/>
      <point x="314.616" y="355.003"/>
      <point x="280.001" y="355.003" type="curve" smooth="yes"/>
      <point x="263.001" y="355.003" type="line" smooth="yes"/>
      <point x="257.668" y="355.003"/>
      <point x="252.668" y="354.67"/>
      <point x="248.001" y="354.003" type="curve" smooth="yes"/>
      <point x="235.245" y="354.003"/>
      <point x="220.903" y="350.986"/>
      <point x="209" y="349.003" type="curve" smooth="yes"/>
      <point x="185" y="345.003" type="line"/>
      <point x="163" y="339.003" type="line" smooth="yes"/>
      <point x="150.21" y="334.739"/>
      <point x="130.075" y="330.331"/>
      <point x="118.999" y="324.002" type="curve" smooth="yes"/>
      <point x="101.977" y="312.653"/>
      <point x="77.1738" y="300.689"/>
      <point x="56.999" y="317.501" type="curve" smooth="yes"/>
      <point x="40.0635" y="331.613"/>
      <point x="59.416" y="370.924"/>
      <point x="61.998" y="389.001" type="curve" smooth="yes"/>
      <point x="65.2832" y="415.285"/>
      <point x="69.7305" y="445.775"/>
      <point x="76.998" y="470.001" type="curve" smooth="yes"/>
      <point x="82.4717" y="494.631"/>
      <point x="86.1699" y="522.4"/>
      <point x="94.999" y="543" type="curve" smooth="yes"/>
      <point x="109.564" y="572.13"/>
      <point x="136.074" y="594"/>
      <point x="179" y="594" type="curve" smooth="yes"/>
    </contour>
  </outline>
</glyph>
<glyph name="six" format="1">
  <advance width="479"/>
  <unicode hex="0036"/>
  <outline>
    <contour>
      <point x="86" y="212" type="curve"/>
      <point x="85.998" y="186.001" type="line" smooth="yes"/>
      <point x="85.998" y="162.16"/>
      <point x="98.751" y="146.122"/>
      <point x="109.998" y="133.001" type="curve" smooth="yes"/>
      <point x="113.331" y="129.001"/>
      <point x="118.998" y="124.334"/>
      <point x="126.998" y="119.001" type="curve" smooth="yes"/>
      <point x="141.96" y="106.341"/>
      <point x="149.872" y="99.5957"/>
      <point x="163.998" y="89.001" type="curve" smooth="yes"/>
      <point x="180.998" y="77.001" type="line" smooth="yes"/>
      <point x="191.132" y="69.7627"/>
      <point x="205.242" y="63.9766"/>
      <point x="215.999" y="58.001" type="curve" smooth="yes"/>
      <point x="231.453" y="47.6982"/>
      <point x="263.658" y="44.793"/>
      <point x="285.999" y="42" type="curve" smooth="yes"/>
      <point x="290.666" y="41.333"/>
      <point x="295.333" y="41"/>
      <point x="300" y="41" type="curve" smooth="yes"/>
      <point x="320" y="41" type="line" smooth="yes"/>
      <point x="361.116" y="41"/>
      <point x="370.788" y="69.1025"/>
      <point x="382" y="99" type="curve" smooth="yes"/>
      <point x="388.895" y="115.088"/>
      <point x="389.533" y="143.001"/>
      <point x="392" y="161.501" type="curve" smooth="yes"/>
      <point x="392.667" y="166.501"/>
      <point x="393" y="171.668"/>
      <point x="393" y="177.001" type="curve" smooth="yes"/>
      <point x="393" y="197.001" type="line" smooth="yes"/>
      <point x="393" y="214.043"/>
      <point x="378.274" y="221.01"/>
      <point x="368" y="229.001" type="curve" smooth="yes"/>
      <point x="345.111" y="244.26"/>
      <point x="322.364" y="259.409"/>
      <point x="291.999" y="267" type="curve" smooth="yes"/>
      <point x="261.688" y="273.495"/>
      <point x="233.967" y="277.912"/>
      <point x="199.999" y="281" type="curve" smooth="yes"/>
      <point x="194.666" y="281.667"/>
      <point x="189.333" y="281.667"/>
      <point x="184" y="281" type="curve" smooth="yes"/>
      <point x="139.128" y="281"/>
      <point x="109.924" y="254.848"/>
      <point x="95" y="225" type="curve" smooth="yes"/>
      <point x="92.1514" y="220.015"/>
      <point x="91.001" y="215.751"/>
    </contour>
    <contour>
      <point x="398.998" y="643.001" type="line" smooth="yes"/>
      <point x="409.354" y="643.001"/>
      <point x="416.997" y="634.683"/>
      <point x="416.997" y="624.502" type="curve" smooth="yes"/>
      <point x="416.997" y="614.307"/>
      <point x="409.345" y="607.002"/>
      <point x="398.997" y="607.002" type="curve" smooth="yes"/>
      <point x="309.997" y="607.002" type="line" smooth="yes"/>
      <point x="286.066" y="607.002"/>
      <point x="270.274" y="598.438"/>
      <point x="251.998" y="590.002" type="curve" smooth="yes"/>
      <point x="233.286" y="582.806"/>
      <point x="218.874" y="574.166"/>
      <point x="205.998" y="560.002" type="curve" smooth="yes"/>
      <point x="191.933" y="543.379"/>
      <point x="175.158" y="522.918"/>
      <point x="162.998" y="504.002" type="curve" smooth="yes"/>
      <point x="152.796" y="485.864"/>
      <point x="129.676" y="441.476"/>
      <point x="121.998" y="421.002" type="curve" smooth="yes"/>
      <point x="110.625" y="388.777"/>
      <point x="101.01" y="355.073"/>
      <point x="94.998" y="319.002" type="curve" smooth="yes"/>
      <point x="91.1221" y="302.53"/>
      <point x="88.998" y="292.181"/>
      <point x="88.998" y="276.002" type="curve"/>
      <point x="112.114" y="303.741"/>
      <point x="152.154" y="321.405"/>
      <point x="204.999" y="317.002" type="curve" smooth="yes"/>
      <point x="281.337" y="308.52"/>
      <point x="342.968" y="294.236"/>
      <point x="389.499" y="257.501" type="curve" smooth="yes"/>
      <point x="408.668" y="242.368"/>
      <point x="428.999" y="229.638"/>
      <point x="428.999" y="197.002" type="curve" smooth="yes"/>
      <point x="428.999" y="177.002" type="line" smooth="yes"/>
      <point x="428.999" y="152.911"/>
      <point x="425.251" y="134.763"/>
      <point x="421.999" y="112.001" type="curve" smooth="yes"/>
      <point x="413.936" y="55.5586"/>
      <point x="384.329" y="5.00098"/>
      <point x="319.999" y="5.00098" type="curve" smooth="yes"/>
      <point x="300.999" y="5.00098" type="line" smooth="yes"/>
      <point x="263.062" y="5.00098"/>
      <point x="221.821" y="12.1074"/>
      <point x="196.999" y="27.001" type="curve" smooth="yes"/>
      <point x="185.892" y="34.9346"/>
      <point x="171.453" y="39.9824"/>
      <point x="159.998" y="48.001" type="curve" smooth="yes"/>
      <point x="142.998" y="60.001" type="line" smooth="yes"/>
      <point x="128.552" y="71.2373"/>
      <point x="121.122" y="77.5986"/>
      <point x="104.998" y="90.001" type="curve" smooth="yes"/>
      <point x="88.6719" y="101.974"/>
      <point x="80.917" y="111.114"/>
      <point x="70.998" y="125.001" type="curve" smooth="yes"/>
      <point x="65.665" y="131.668"/>
      <point x="61.998" y="138.335"/>
      <point x="59.998" y="145.002" type="curve" smooth="yes"/>
      <point x="53.998" y="161.002" type="line" smooth="yes"/>
      <point x="51.3311" y="169.002"/>
      <point x="49.998" y="177.335"/>
      <point x="49.998" y="186.002" type="curve" smooth="yes"/>
      <point x="49.998" y="235.002" type="line" smooth="yes"/>
      <point x="49.998" y="352.62"/>
      <point x="87.7275" y="446.742"/>
      <point x="131.998" y="522.001" type="curve" smooth="yes"/>
      <point x="145.062" y="544.21"/>
      <point x="163.768" y="565.065"/>
      <point x="179.998" y="584.001" type="curve" smooth="yes"/>
      <point x="201.509" y="608.821"/>
      <point x="230.345" y="620.396"/>
      <point x="262.998" y="634.001" type="curve" smooth="yes"/>
      <point x="280.078" y="640.101"/>
      <point x="289.271" y="643.001"/>
      <point x="309.998" y="643.001" type="curve" smooth="yes"/>
    </contour>
  </outline>
</glyph>
<glyph name="seven" format="1">
  <advance width="581"/>
  <unicode hex="0037"/>
  <outline>
    <contour>
      <point x="68" y="578" type="line" smooth="yes"/>
      <point x="58.7705" y="578"/>
      <point x="49.999" y="586.771"/>
      <point x="49.999" y="596" type="curve" smooth="yes"/>
      <point x="49.999" y="605.229"/>
      <point x="58.7705" y="614"/>
      <point x="67.999" y="614" type="curve" smooth="yes"/>
      <point x="78.999" y="614" type="line" smooth="yes"/>
      <point x="103.744" y="614"/>
      <point x="137.104" y="622"/>
      <point x="161.999" y="622" type="curve" smooth="yes"/>
      <point x="498.999" y="622" type="line" smooth="yes"/>
      <point x="517.91" y="622"/>
      <point x="535.325" y="601.634"/>
      <point x="530.998" y="580" type="curve" smooth="yes"/>
      <point x="528.002" y="563.523"/>
      <point x="515.549" y="551.163"/>
      <point x="501.998" y="541" type="curve" smooth="yes"/>
      <point x="480.72" y="521.85"/>
      <point x="449.65" y="495.203"/>
      <point x="432.998" y="473" type="curve" smooth="yes"/>
      <point x="416.698" y="449.715"/>
      <point x="396.983" y="425.866"/>
      <point x="380.998" y="401" type="curve" smooth="yes"/>
      <point x="366.87" y="380.593"/>
      <point x="369.195" y="375.756"/>
      <point x="355.998" y="352" type="curve" smooth="yes"/>
      <point x="331.09" y="297.201"/>
      <point x="316.825" y="231.294"/>
      <point x="294.999" y="174" type="curve" smooth="yes"/>
      <point x="274.445" y="115.274"/>
      <point x="253.849" y="53.7002"/>
      <point x="227.999" y="2.00098" type="curve" smooth="yes"/>
      <point x="223.999" y="-5.99902"/>
      <point x="220.666" y="-12.999"/>
      <point x="217.999" y="-18.999" type="curve" smooth="yes"/>
      <point x="213.999" y="-28.999" type="line" smooth="yes"/>
      <point x="205.544" y="-48.7266"/>
      <point x="170.411" y="-36.1738"/>
      <point x="180.999" y="-14.998" type="curve" smooth="yes"/>
      <point x="184.999" y="-4.99805" type="line" smooth="yes"/>
      <point x="194.284" y="18.2158"/>
      <point x="208.509" y="43.3271"/>
      <point x="217.999" y="68.001" type="curve" smooth="yes"/>
      <point x="225.965" y="87.1182"/>
      <point x="239.416" y="122.252"/>
      <point x="246.999" y="145.001" type="curve" smooth="yes"/>
      <point x="260.999" y="187.001" type="line" smooth="yes"/>
      <point x="280.335" y="235.341"/>
      <point x="294.297" y="286.895"/>
      <point x="310.999" y="337.001" type="curve" smooth="yes"/>
      <point x="317.682" y="357.049"/>
      <point x="329.078" y="377.43"/>
      <point x="335.999" y="393.001" type="curve" smooth="yes"/>
      <point x="348.579" y="430.74"/>
      <point x="383.682" y="463.523"/>
      <point x="404" y="494" type="curve" smooth="yes"/>
      <point x="427.949" y="523.937"/>
      <point x="466.123" y="554.123"/>
      <point x="493" y="581" type="curve" smooth="yes"/>
      <point x="494.333" y="583"/>
      <point x="495.333" y="584.667"/>
      <point x="496" y="586" type="curve" smooth="yes"/>
      <point x="163" y="586" type="line" smooth="yes"/>
      <point x="155" y="586"/>
      <point x="145" y="585"/>
      <point x="133" y="583" type="curve" smooth="yes"/>
      <point x="103" y="580" type="line" smooth="yes"/>
      <point x="95.667" y="578.667"/>
      <point x="87.667" y="578"/>
      <point x="79" y="578" type="curve" smooth="yes"/>
    </contour>
  </outline>
</glyph>
<glyph name="eight" format="1">
  <advance width="468"/>
  <unicode hex="0038"/>
  <outline>
    <contour>
      <point x="280" y="297" type="curve"/>
      <point x="273.094" y="297"/>
      <point x="265.835" y="294.869"/>
      <point x="258.001" y="293.999" type="curve" smooth="yes"/>
      <point x="242.001" y="290.999" type="line" smooth="yes"/>
      <point x="203.212" y="286.15"/>
      <point x="167.98" y="269.979"/>
      <point x="145.501" y="247.499" type="curve" smooth="yes"/>
      <point x="130.001" y="231.999" type="line" smooth="yes"/>
      <point x="110.201" y="212.199"/>
      <point x="96.001" y="181.784"/>
      <point x="96.001" y="143" type="curve" smooth="yes"/>
      <point x="96.001" y="122" type="line" smooth="yes"/>
      <point x="99.3428" y="91.9209"/>
      <point x="103.268" y="56.7998"/>
      <point x="123.001" y="42" type="curve" smooth="yes"/>
      <point x="140.633" y="33.1846"/>
      <point x="156.992" y="23"/>
      <point x="183.001" y="23" type="curve" smooth="yes"/>
      <point x="204.501" y="23" type="line" smooth="yes"/>
      <point x="259.064" y="23"/>
      <point x="310.108" y="40.7959"/>
      <point x="345.001" y="63" type="curve" smooth="yes"/>
      <point x="360.824" y="71.6309"/>
      <point x="376.381" y="87.9336"/>
      <point x="381.501" y="105" type="curve" smooth="yes"/>
      <point x="382.501" y="108.333"/>
      <point x="382.668" y="112"/>
      <point x="382.001" y="116" type="curve" smooth="yes"/>
      <point x="380.001" y="132" type="line" smooth="yes"/>
      <point x="375.676" y="166.601"/>
      <point x="360.018" y="193.256"/>
      <point x="345" y="219" type="curve" smooth="yes"/>
      <point x="328.729" y="248.831"/>
      <point x="303.071" y="273.929"/>
    </contour>
    <contour>
      <point x="288.001" y="334.999" type="curve" smooth="yes"/>
      <point x="301.697" y="337.282"/>
      <point x="329.263" y="339.79"/>
      <point x="333" y="351.002" type="curve" smooth="yes"/>
      <point x="340.876" y="366.753"/>
      <point x="345" y="391.315"/>
      <point x="345" y="412.002" type="curve" smooth="yes"/>
      <point x="345" y="535.002" type="line" smooth="yes"/>
      <point x="345" y="548.604"/>
      <point x="341.521" y="563.914"/>
      <point x="339" y="574.002" type="curve" smooth="yes"/>
      <point x="332.575" y="596.488"/>
      <point x="366.52" y="607.683"/>
      <point x="373" y="585.002" type="curve" smooth="yes"/>
      <point x="377.649" y="572.604"/>
      <point x="381" y="552.908"/>
      <point x="381" y="535.002" type="curve" smooth="yes"/>
      <point x="381" y="412.002" type="line" smooth="yes"/>
      <point x="381" y="375.519"/>
      <point x="372.443" y="332.712"/>
      <point x="350" y="317.002" type="curve" smooth="yes"/>
      <point x="343.333" y="312.335"/>
      <point x="336" y="309.002"/>
      <point x="328" y="307.002" type="curve" smooth="yes"/>
      <point x="326" y="307.002"/>
      <point x="324" y="306.669"/>
      <point x="322" y="306.002" type="curve"/>
      <point x="354.029" y="273.973"/>
      <point x="382.031" y="235.924"/>
      <point x="400" y="191.002" type="curve" smooth="yes"/>
      <point x="407.286" y="169.144"/>
      <point x="414.859" y="148.271"/>
      <point x="418" y="120.002" type="curve" smooth="yes"/>
      <point x="420.615" y="88.6162"/>
      <point x="405.284" y="69.2861"/>
      <point x="389" y="53.002" type="curve" smooth="yes"/>
      <point x="352.252" y="8.9043"/>
      <point x="278.002" y="-6.45215"/>
      <point x="206" y="-12.998" type="curve"/>
      <point x="183" y="-12.998" type="line" smooth="yes"/>
      <point x="165.021" y="-12.998"/>
      <point x="150.808" y="-10.1211"/>
      <point x="138.001" y="-4.99805" type="curve" smooth="yes"/>
      <point x="120.001" y="3.00195" type="line" smooth="yes"/>
      <point x="97.376" y="13.0576"/>
      <point x="76.1992" y="35.1436"/>
      <point x="70.001" y="62.002" type="curve" smooth="yes"/>
      <point x="64.2988" y="81.0098"/>
      <point x="61.915" y="99.0303"/>
      <point x="60.001" y="122.002" type="curve" smooth="yes"/>
      <point x="60.001" y="143.002" type="line"/>
      <point x="65.2275" y="205.722"/>
      <point x="84.7354" y="242.27"/>
      <point x="121.001" y="274.002" type="curve" smooth="yes"/>
      <point x="137.696" y="288.61"/>
      <point x="152.663" y="301.223"/>
      <point x="176.002" y="309.002" type="curve" smooth="yes"/>
      <point x="193.051" y="315.821"/>
      <point x="212.873" y="323.485"/>
      <point x="233.002" y="326.002" type="curve"/>
      <point x="222.934" y="333.193"/>
      <point x="210.582" y="338.015"/>
      <point x="201.002" y="344.002" type="curve" smooth="yes"/>
      <point x="157.867" y="370.961"/>
      <point x="102.748" y="386.188"/>
      <point x="69.002" y="423.002" type="curve" smooth="yes"/>
      <point x="55.75" y="437.273"/>
      <point x="50.002" y="445.281"/>
      <point x="50.002" y="466.002" type="curve" smooth="yes"/>
      <point x="50.002" y="506.423"/>
      <point x="60.3525" y="539.963"/>
      <point x="76.002" y="565.001" type="curve" smooth="yes"/>
      <point x="86.0713" y="585.139"/>
      <point x="104.437" y="599.826"/>
      <point x="122.003" y="613.001" type="curve" smooth="yes"/>
      <point x="136.509" y="620.913"/>
      <point x="153.543" y="626.001"/>
      <point x="175.003" y="626.001" type="curve" smooth="yes"/>
      <point x="237.003" y="626.001" type="line" smooth="yes"/>
      <point x="266.011" y="626.001"/>
      <point x="286.88" y="622.432"/>
      <point x="306.002" y="612.001" type="curve" smooth="yes"/>
      <point x="309.335" y="610.001"/>
      <point x="312.002" y="609.001"/>
      <point x="314.002" y="609.001" type="curve" smooth="yes"/>
      <point x="325.225" y="607.131"/>
      <point x="337.962" y="601.724"/>
      <point x="336.002" y="588.001" type="curve" smooth="yes"/>
      <point x="331.501" y="556.491"/>
      <point x="289.857" y="582.037"/>
      <point x="274.002" y="586.001" type="curve" smooth="yes"/>
      <point x="261.623" y="588.752"/>
      <point x="253.061" y="590.001"/>
      <point x="238.002" y="590.001" type="curve" smooth="yes"/>
      <point x="176.002" y="590.001" type="line" smooth="yes"/>
      <point x="145.72" y="587.672"/>
      <point x="131.745" y="577.556"/>
      <point x="116.002" y="560.501" type="curve" smooth="yes"/>
      <point x="98.9971" y="542.078"/>
      <point x="87.002" y="511.085"/>
      <point x="87.002" y="478" type="curve" smooth="yes"/>
      <point x="86.335" y="474"/>
      <point x="86.002" y="470"/>
      <point x="86.002" y="466" type="curve" smooth="yes"/>
      <point x="86.002" y="452.466"/>
      <point x="103.428" y="438.409"/>
      <point x="111.002" y="432.999" type="curve" smooth="yes"/>
      <point x="130.673" y="419.885"/>
      <point x="157.124" y="409.387"/>
      <point x="178.002" y="397.999" type="curve" smooth="yes"/>
      <point x="189.085" y="390.61"/>
      <point x="207.483" y="381.118"/>
      <point x="219.002" y="375.999" type="curve" smooth="yes"/>
      <point x="239.481" y="363.199"/>
      <point x="263.383" y="351.745"/>
      <point x="284.002" y="337.999" type="curve" smooth="yes"/>
      <point x="285.335" y="337.332"/>
      <point x="286.668" y="336.332"/>
    </contour>
  </outline>
</glyph>
<glyph name="nine" format="1">
  <advance width="462"/>
  <unicode hex="0039"/>
  <outline>
    <contour>
      <point x="367" y="377" type="curve"/>
      <point x="365" y="387.001" type="line" smooth="yes"/>
      <point x="364.333" y="392.334"/>
      <point x="363" y="397.667"/>
      <point x="361" y="403" type="curve" smooth="yes"/>
      <point x="355" y="423" type="line" smooth="yes"/>
      <point x="352.221" y="435.507"/>
      <point x="346.973" y="445.407"/>
      <point x="343" y="456" type="curve" smooth="yes"/>
      <point x="336" y="473" type="line" smooth="yes"/>
      <point x="330.89" y="483.222"/>
      <point x="326.77" y="493.347"/>
      <point x="321" y="502" type="curve" smooth="yes"/>
      <point x="318.333" y="505.333"/>
      <point x="313.666" y="510.333"/>
      <point x="306.999" y="517" type="curve" smooth="yes"/>
      <point x="289.999" y="534" type="line" smooth="yes"/>
      <point x="269.661" y="550.948"/>
      <point x="254.936" y="560.562"/>
      <point x="223.999" y="569" type="curve" smooth="yes"/>
      <point x="208.666" y="573"/>
      <point x="198.666" y="575.333"/>
      <point x="193.999" y="576" type="curve" smooth="yes"/>
      <point x="179.999" y="578" type="line"/>
      <point x="166.999" y="578" type="line" smooth="yes"/>
      <point x="142.596" y="578"/>
      <point x="131.195" y="553.293"/>
      <point x="121" y="538" type="curve" smooth="yes"/>
      <point x="110.117" y="520.587"/>
      <point x="102.486" y="494.62"/>
      <point x="96" y="473" type="curve" smooth="yes"/>
      <point x="94.2354" y="464.175"/>
      <point x="87" y="415.043"/>
      <point x="87" y="405" type="curve" smooth="yes"/>
      <point x="86.333" y="398.333"/>
      <point x="86" y="392.333"/>
      <point x="86" y="387" type="curve" smooth="yes"/>
      <point x="86" y="369.702"/>
      <point x="89.5752" y="354.658"/>
      <point x="95" y="342.001" type="curve" smooth="yes"/>
      <point x="101" y="328.001" type="line" smooth="yes"/>
      <point x="104.68" y="321.868"/>
      <point x="126.594" y="293.233"/>
      <point x="134" y="289.001" type="curve" smooth="yes"/>
      <point x="144.946" y="283.527"/>
      <point x="159.183" y="279.688"/>
      <point x="171" y="278" type="curve" smooth="yes"/>
      <point x="185" y="275" type="line"/>
      <point x="249" y="275" type="line" smooth="yes"/>
      <point x="284.169" y="275"/>
      <point x="304.377" y="303.377"/>
      <point x="322" y="321" type="curve" smooth="yes"/>
      <point x="327.333" y="325.667"/>
      <point x="332" y="330.667"/>
      <point x="336" y="336" type="curve" smooth="yes"/>
      <point x="350" y="352" type="line" smooth="yes"/>
      <point x="356.812" y="361.082"/>
      <point x="361.744" y="368.24"/>
    </contour>
    <contour>
      <point x="162" y="-11.999" type="curve" smooth="yes"/>
      <point x="145.479" y="-11.999"/>
      <point x="134.151" y="-15"/>
      <point x="118.997" y="-15" type="curve" smooth="yes"/>
      <point x="106.881" y="-15"/>
      <point x="95.5664" y="-22.8115"/>
      <point x="84.4971" y="-16" type="curve" smooth="yes"/>
      <point x="71.583" y="-8.05273"/>
      <point x="74.8633" y="13.3008"/>
      <point x="90.9971" y="16" type="curve" smooth="yes"/>
      <point x="99.4355" y="17.4121"/>
      <point x="110.678" y="21"/>
      <point x="118.997" y="21" type="curve" smooth="yes"/>
      <point x="153.378" y="21"/>
      <point x="192.879" y="26.4404"/>
      <point x="215.998" y="38" type="curve" smooth="yes"/>
      <point x="221.998" y="41.333"/>
      <point x="227.665" y="44"/>
      <point x="232.998" y="46" type="curve" smooth="yes"/>
      <point x="245.998" y="53" type="line" smooth="yes"/>
      <point x="258.444" y="58.334"/>
      <point x="264.115" y="63.0586"/>
      <point x="277.998" y="70" type="curve" smooth="yes"/>
      <point x="299.68" y="80.8408"/>
      <point x="321.463" y="95.9297"/>
      <point x="331.998" y="117" type="curve" smooth="yes"/>
      <point x="340.878" y="143.639"/>
      <point x="352.142" y="165.719"/>
      <point x="357.998" y="195" type="curve" smooth="yes"/>
      <point x="362.738" y="221.072"/>
      <point x="368.998" y="249.573"/>
      <point x="368.998" y="281" type="curve" smooth="yes"/>
      <point x="368.998" y="319" type="line"/>
      <point x="349.604" y="299.605"/>
      <point x="332.179" y="275.636"/>
      <point x="309.998" y="259" type="curve" smooth="yes"/>
      <point x="297.763" y="251.471"/>
      <point x="266.714" y="239"/>
      <point x="248.998" y="239" type="curve" smooth="yes"/>
      <point x="201.998" y="239" type="line" smooth="yes"/>
      <point x="192.665" y="239"/>
      <point x="184.998" y="239.333"/>
      <point x="178.998" y="240" type="curve" smooth="yes"/>
      <point x="164.998" y="242" type="line" smooth="yes"/>
      <point x="149.718" y="245.82"/>
      <point x="131.932" y="249.498"/>
      <point x="117.998" y="257.001" type="curve" smooth="yes"/>
      <point x="107.998" y="262.334"/>
      <point x="97.998" y="271.667"/>
      <point x="87.998" y="285" type="curve" smooth="yes"/>
      <point x="78.665" y="297.667"/>
      <point x="72.665" y="306.334"/>
      <point x="69.998" y="311.001" type="curve" smooth="yes"/>
      <point x="61.998" y="327.001" type="line" smooth="yes"/>
      <point x="55.1436" y="344.137"/>
      <point x="49.998" y="363.029"/>
      <point x="49.998" y="387.001" type="curve" smooth="yes"/>
      <point x="49.998" y="393.001"/>
      <point x="50.3311" y="399.668"/>
      <point x="50.998" y="407.001" type="curve" smooth="yes"/>
      <point x="50.998" y="465.345"/>
      <point x="69.7959" y="519.964"/>
      <point x="89.998" y="557.001" type="curve" smooth="yes"/>
      <point x="107.225" y="581.61"/>
      <point x="125.922" y="614.001"/>
      <point x="166.998" y="614.001" type="curve" smooth="yes"/>
      <point x="172.998" y="614.001"/>
      <point x="178.665" y="613.668"/>
      <point x="183.998" y="613.001" type="curve" smooth="yes"/>
      <point x="203.893" y="613.001"/>
      <point x="254.488" y="599.256"/>
      <point x="268.999" y="592.001" type="curve" smooth="yes"/>
      <point x="292.699" y="578.834"/>
      <point x="312.902" y="560.506"/>
      <point x="331.999" y="543.001" type="curve" smooth="yes"/>
      <point x="351.396" y="525.096"/>
      <point x="358.166" y="511.374"/>
      <point x="368.999" y="487.001" type="curve" smooth="yes"/>
      <point x="375.999" y="470.001" type="line" smooth="yes"/>
      <point x="384.363" y="453.272"/>
      <point x="389.695" y="432.913"/>
      <point x="395.999" y="414.001" type="curve" smooth="yes"/>
      <point x="395.999" y="412.001"/>
      <point x="396.332" y="410.001"/>
      <point x="396.999" y="408.001" type="curve" smooth="yes"/>
      <point x="409.01" y="408.001"/>
      <point x="417.131" y="392.698"/>
      <point x="409.999" y="382.001" type="curve" smooth="yes"/>
      <point x="406.999" y="375.001" type="line" smooth="yes"/>
      <point x="405.666" y="373.668"/>
      <point x="404.666" y="372.001"/>
      <point x="403.999" y="370.001" type="curve" smooth="yes"/>
      <point x="404.666" y="365.334"/>
      <point x="404.999" y="359.334"/>
      <point x="404.999" y="352.001" type="curve" smooth="yes"/>
      <point x="404.999" y="281.001" type="line" smooth="yes"/>
      <point x="404.999" y="238.367"/>
      <point x="399.124" y="200.376"/>
      <point x="387.999" y="167.002" type="curve" smooth="yes"/>
      <point x="375.373" y="133.333"/>
      <point x="368.32" y="100.757"/>
      <point x="345.999" y="75.002" type="curve" smooth="yes"/>
      <point x="331.368" y="59.1523"/>
      <point x="314.363" y="48.4287"/>
      <point x="294.999" y="38.002" type="curve" smooth="yes"/>
      <point x="276.999" y="29.002" type="line" smooth="yes"/>
      <point x="271.666" y="26.335"/>
      <point x="266.666" y="23.668"/>
      <point x="261.999" y="21.001" type="curve" smooth="yes"/>
      <point x="248.999" y="14.001" type="line" smooth="yes"/>
      <point x="222.867" y="0.93457"/>
      <point x="199.531" y="-9.65332"/>
    </contour>
  </outline>
</glyph>
<glyph name="colon" format="1">
  <advance width="149"/>
  <unicode hex="003A"/>
  <outline>
    <contour>
      <point x="60" y="27.5" type="curve" smooth="yes"/>
      <point x="60" y="37.4346"/>
      <point x="68.5918" y="45"/>
      <point x="78.5" y="45" type="curve" smooth="yes"/>
      <point x="89.2598" y="45"/>
      <point x="99" y="35.2568"/>
      <point x="99" y="24.5" type="curve" smooth="yes"/>
      <point x="99" y="14.5908"/>
      <point x="91.4346" y="6"/>
      <point x="81.5" y="6" type="curve" smooth="yes"/>
      <point x="70.29" y="6"/>
      <point x="60" y="16.1592"/>
    </contour>
    <contour>
      <point x="50" y="437.5" type="curve" smooth="yes"/>
      <point x="50" y="447.409"/>
      <point x="57.5654" y="456"/>
      <point x="67.5" y="456" type="curve" smooth="yes"/>
      <point x="77.8594" y="456"/>
      <point x="89" y="445.534"/>
      <point x="89" y="434.5" type="curve" smooth="yes"/>
      <point x="89" y="424.305"/>
      <point x="81.3477" y="417"/>
      <point x="71" y="417" type="curve" smooth="yes"/>
      <point x="59.8242" y="417"/>
      <point x="50" y="426.47"/>
    </contour>
  </outline>
</glyph>
<glyph name="semicolon" format="1">
  <advance width="160"/>
  <unicode hex="003B"/>
  <outline>
    <contour>
      <point x="60" y="435.5" type="curve" smooth="yes"/>
      <point x="60" y="445.409"/>
      <point x="67.5654" y="454"/>
      <point x="77.5" y="454" type="curve" smooth="yes"/>
      <point x="87.3779" y="454"/>
      <point x="99" y="442.372"/>
      <point x="99" y="432.5" type="curve" smooth="yes"/>
      <point x="99" y="422.565"/>
      <point x="90.4082" y="415"/>
      <point x="80.5" y="415" type="curve" smooth="yes"/>
      <point x="69.7402" y="415"/>
      <point x="60" y="424.743"/>
    </contour>
    <contour>
      <point x="71" y="69" type="curve" smooth="yes"/>
      <point x="77.2168" y="90.7598"/>
      <point x="111.211" y="80.7344"/>
      <point x="105" y="58.9971" type="curve" smooth="yes"/>
      <point x="103" y="52.9971" type="line"/>
      <point x="107.19" y="40.4258"/>
      <point x="112.521" y="27.6025"/>
      <point x="110" y="14.9971" type="curve" smooth="yes"/>
      <point x="105.138" y="-11.7432"/>
      <point x="92.9854" y="-34.0459"/>
      <point x="85" y="-58.002" type="curve" smooth="yes"/>
      <point x="76.71" y="-77.3447"/>
      <point x="44.1221" y="-70.0732"/>
      <point x="51" y="-46.001" type="curve" smooth="yes"/>
      <point x="55" y="-36.001" type="line" smooth="yes"/>
      <point x="60.583" y="-19.252"/>
      <point x="71.6025" y="1.82227"/>
      <point x="74" y="20.999" type="curve" smooth="yes"/>
      <point x="74.667" y="23.666"/>
      <point x="74" y="27.333"/>
      <point x="72" y="32" type="curve" smooth="yes"/>
      <point x="65.7295" y="47.2285"/>
      <point x="67.5322" y="56.8633"/>
    </contour>
  </outline>
</glyph>
<glyph name="less" format="1">
  <advance width="430"/>
  <unicode hex="003C"/>
  <outline>
    <contour>
      <point x="356" y="411" type="line" smooth="yes"/>
      <point x="365.229" y="411"/>
      <point x="374" y="402.229"/>
      <point x="374" y="393.001" type="curve" smooth="yes"/>
      <point x="374" y="383.771"/>
      <point x="365.229" y="375.001"/>
      <point x="356" y="375.001" type="curve" smooth="yes"/>
      <point x="335" y="375.001" type="line" smooth="yes"/>
      <point x="325.515" y="375.001"/>
      <point x="305.745" y="373.214"/>
      <point x="298" y="371.001" type="curve" smooth="yes"/>
      <point x="283.779" y="364.681"/>
      <point x="265.567" y="359.712"/>
      <point x="254.001" y="352.001" type="curve" smooth="yes"/>
      <point x="237.351" y="339.051"/>
      <point x="220.704" y="330.512"/>
      <point x="199.001" y="324.001" type="curve" smooth="yes"/>
      <point x="166.172" y="314.621"/>
      <point x="133.641" y="299.257"/>
      <point x="103.002" y="287.001" type="curve" smooth="yes"/>
      <point x="97.417" y="284.906"/>
      <point x="91.5781" y="282.577"/>
      <point x="88.002" y="279.001" type="curve"/>
      <point x="113.688" y="264.323"/>
      <point x="139.702" y="252.848"/>
      <point x="167.001" y="240.001" type="curve" smooth="yes"/>
      <point x="195.28" y="225.355"/>
      <point x="225.152" y="211.425"/>
      <point x="254" y="197.001" type="curve" smooth="yes"/>
      <point x="293.447" y="180.095"/>
      <point x="326.748" y="156.152"/>
      <point x="362" y="135.001" type="curve" smooth="yes"/>
      <point x="372" y="129.001" type="line" smooth="yes"/>
      <point x="390.396" y="116.737"/>
      <point x="372.336" y="86.3809"/>
      <point x="352" y="98.001" type="curve" smooth="yes"/>
      <point x="343" y="104.001" type="line" smooth="yes"/>
      <point x="324.416" y="116.391"/>
      <point x="305.814" y="127.442"/>
      <point x="286" y="139.001" type="curve" smooth="yes"/>
      <point x="262" y="153.001" type="line" smooth="yes"/>
      <point x="236.633" y="166.838"/>
      <point x="210.814" y="178"/>
      <point x="184.001" y="191.001" type="curve" smooth="yes"/>
      <point x="151.001" y="207.001" type="line" smooth="yes"/>
      <point x="129.329" y="218.475"/>
      <point x="111.748" y="226.853"/>
      <point x="90.001" y="237.001" type="curve" smooth="yes"/>
      <point x="69.915" y="247.044"/>
      <point x="41.0156" y="263.91"/>
      <point x="52.001" y="290.001" type="curve" smooth="yes"/>
      <point x="62.4863" y="312.72"/>
      <point x="86.5195" y="317.761"/>
      <point x="109.001" y="329.001" type="curve" smooth="yes"/>
      <point x="119.737" y="333.881"/>
      <point x="139.914" y="340.305"/>
      <point x="151" y="344" type="curve" smooth="yes"/>
      <point x="177.11" y="357.056"/>
      <point x="209.829" y="363.063"/>
      <point x="231" y="380" type="curve" smooth="yes"/>
      <point x="257.457" y="396.536"/>
      <point x="292.215" y="411"/>
      <point x="335" y="411" type="curve" smooth="yes"/>
    </contour>
  </outline>
</glyph>
<glyph name="equal" format="1">
  <advance width="577"/>
  <unicode hex="003D"/>
  <outline>
    <contour>
      <point x="101" y="197" type="curve" smooth="yes"/>
      <point x="81.3955" y="183.931"/>
      <point x="63.3301" y="216.953"/>
      <point x="83" y="227.999" type="curve" smooth="yes"/>
      <point x="114.237" y="245.541"/>
      <point x="161.847" y="243.999"/>
      <point x="213.999" y="243.999" type="curve" smooth="yes"/>
      <point x="380.999" y="243.999" type="line" smooth="yes"/>
      <point x="414.945" y="243.999"/>
      <point x="444.062" y="239.155"/>
      <point x="474.999" y="233.999" type="curve" smooth="yes"/>
      <point x="487.666" y="232.666"/>
      <point x="497.333" y="231.333"/>
      <point x="504" y="230" type="curve" smooth="yes"/>
      <point x="514" y="228" type="line" smooth="yes"/>
      <point x="527.592" y="224.116"/>
      <point x="533.556" y="203.649"/>
      <point x="519.5" y="195" type="curve" smooth="yes"/>
      <point x="512.059" y="190.421"/>
      <point x="504.787" y="193.27"/>
      <point x="497" y="195" type="curve" smooth="yes"/>
      <point x="461.218" y="198.976"/>
      <point x="420.643" y="208"/>
      <point x="381" y="208" type="curve" smooth="yes"/>
      <point x="213" y="208" type="line" smooth="yes"/>
      <point x="174.952" y="208"/>
      <point x="143.904" y="207.272"/>
      <point x="114" y="203" type="curve" smooth="yes"/>
      <point x="109.847" y="201.615"/>
      <point x="105.286" y="198.837"/>
    </contour>
    <contour>
      <point x="482" y="447.999" type="line" smooth="yes"/>
      <point x="501.331" y="447.999"/>
      <point x="524.98" y="446.723"/>
      <point x="523.5" y="426" type="curve" smooth="yes"/>
      <point x="522.034" y="405.473"/>
      <point x="499.398" y="412"/>
      <point x="482.001" y="412" type="curve" smooth="yes"/>
      <point x="380.001" y="412" type="line" smooth="yes"/>
      <point x="365.334" y="412"/>
      <point x="350.001" y="411.667"/>
      <point x="334.001" y="411" type="curve" smooth="yes"/>
      <point x="251.476" y="411"/>
      <point x="162.843" y="405.807"/>
      <point x="92.001" y="394" type="curve" smooth="yes"/>
      <point x="81.9287" y="391.985"/>
      <point x="72.9951" y="383.859"/>
      <point x="61.001" y="389" type="curve" smooth="yes"/>
      <point x="47.8252" y="394.646"/>
      <point x="47.2705" y="415.135"/>
      <point x="61.001" y="422" type="curve" smooth="yes"/>
      <point x="81.835" y="429.812"/>
      <point x="105.835" y="430.906"/>
      <point x="133.001" y="436" type="curve" smooth="yes"/>
      <point x="159.433" y="438.937"/>
      <point x="202.028" y="442.847"/>
      <point x="232.001" y="443.999" type="curve" smooth="yes"/>
      <point x="264.038" y="443.999"/>
      <point x="301.51" y="446.999"/>
      <point x="334" y="446.999" type="curve" smooth="yes"/>
      <point x="350" y="447.666"/>
      <point x="365.333" y="447.999"/>
      <point x="380" y="447.999" type="curve" smooth="yes"/>
    </contour>
  </outline>
</glyph>
<glyph name="greater" format="1">
  <advance width="483"/>
  <unicode hex="003E"/>
  <outline>
    <contour>
      <point x="70" y="395" type="line" smooth="yes"/>
      <point x="54.2969" y="395"/>
      <point x="43.2373" y="412.086"/>
      <point x="54.001" y="425.002" type="curve" smooth="yes"/>
      <point x="57.334" y="429.002"/>
      <point x="61.334" y="431.002"/>
      <point x="66.001" y="431.002" type="curve" smooth="yes"/>
      <point x="80.001" y="432.002" type="line" smooth="yes"/>
      <point x="113.582" y="435.952"/>
      <point x="129.867" y="421.568"/>
      <point x="153.001" y="410.001" type="curve" smooth="yes"/>
      <point x="194.951" y="390.64"/>
      <point x="234.728" y="363.184"/>
      <point x="282.001" y="349.002" type="curve" smooth="yes"/>
      <point x="304.001" y="341.002" type="line" smooth="yes"/>
      <point x="324.066" y="334.982"/>
      <point x="337.335" y="330.835"/>
      <point x="355.001" y="322.002" type="curve" smooth="yes"/>
      <point x="377.626" y="310.689"/>
      <point x="398.2" y="302.003"/>
      <point x="419.001" y="289.002" type="curve" smooth="yes"/>
      <point x="441.482" y="274.951"/>
      <point x="433.501" y="244.502"/>
      <point x="415.501" y="234.502" type="curve" smooth="yes"/>
      <point x="398.735" y="225.188"/>
      <point x="375.935" y="213.065"/>
      <point x="360.001" y="203.002" type="curve" smooth="yes"/>
      <point x="332.702" y="184.324"/>
      <point x="309.836" y="169.704"/>
      <point x="279.001" y="153.002" type="curve" smooth="yes"/>
      <point x="237.953" y="132.479"/>
      <point x="190.573" y="108.718"/>
      <point x="155.001" y="85.0029" type="curve" smooth="yes"/>
      <point x="147.668" y="80.3359"/>
      <point x="141.668" y="75.6689"/>
      <point x="137.001" y="71.002" type="curve" smooth="yes"/>
      <point x="123.001" y="57.002" type="line" smooth="yes"/>
      <point x="116.096" y="48.9453"/>
      <point x="103.706" y="37.9062"/>
      <point x="91.501" y="49.002" type="curve" smooth="yes"/>
      <point x="84.7188" y="55.168"/>
      <point x="83.5781" y="66.4043"/>
      <point x="90.001" y="74.002" type="curve" smooth="yes"/>
      <point x="112.266" y="100.338"/>
      <point x="135.521" y="117.464"/>
      <point x="169.001" y="135.001" type="curve" smooth="yes"/>
      <point x="225.087" y="168.652"/>
      <point x="288.979" y="197.407"/>
      <point x="341.001" y="233.001" type="curve" smooth="yes"/>
      <point x="356.759" y="243.244"/>
      <point x="375.06" y="254.031"/>
      <point x="393.001" y="263.002" type="curve"/>
      <point x="385.099" y="266.953"/>
      <point x="378.265" y="270.411"/>
      <point x="370.001" y="275.002" type="curve" smooth="yes"/>
      <point x="336.656" y="298.819"/>
      <point x="288.718" y="304.794"/>
      <point x="250.001" y="322.001" type="curve" smooth="yes"/>
      <point x="219.875" y="335.39"/>
      <point x="187.842" y="349.471"/>
      <point x="159.001" y="365" type="curve" smooth="yes"/>
      <point x="144.596" y="374.167"/>
      <point x="128.966" y="381.837"/>
      <point x="114" y="390" type="curve" smooth="yes"/>
      <point x="100.547" y="396.115"/>
      <point x="99.6025" y="398.51"/>
      <point x="83" y="397" type="curve" smooth="yes"/>
    </contour>
  </outline>
</glyph>
<glyph name="question" format="1">
  <advance width="448"/>
  <unicode hex="003F"/>
  <outline>
    <contour>
      <point x="217.5" y="8" type="curve" smooth="yes"/>
      <point x="207.044" y="8"/>
      <point x="196" y="19.4199"/>
      <point x="196" y="29.5" type="curve" smooth="yes"/>
      <point x="196" y="39.4346"/>
      <point x="204.592" y="47"/>
      <point x="214.5" y="47" type="curve" smooth="yes"/>
      <point x="225.26" y="47"/>
      <point x="235" y="37.2568"/>
      <point x="235" y="26.5" type="curve" smooth="yes"/>
      <point x="235" y="16.5908"/>
      <point x="227.435" y="8"/>
    </contour>
    <contour>
      <point x="363" y="526" type="line"/>
      <point x="358.764" y="568.366"/>
      <point x="344.022" y="598"/>
      <point x="295.998" y="598" type="curve" smooth="yes"/>
      <point x="223.998" y="598" type="line" smooth="yes"/>
      <point x="186.759" y="598"/>
      <point x="158.468" y="583.446"/>
      <point x="130.998" y="572" type="curve" smooth="yes"/>
      <point x="111.537" y="565.513"/>
      <point x="96.6084" y="545.639"/>
      <point x="90.9971" y="526" type="curve" smooth="yes"/>
      <point x="87.4473" y="510.027"/>
      <point x="85.9473" y="484.797"/>
      <point x="63.9971" y="489.5" type="curve" smooth="yes"/>
      <point x="38.7139" y="494.918"/>
      <point x="56.0283" y="540.655"/>
      <point x="63.998" y="555" type="curve" smooth="yes"/>
      <point x="79.1445" y="582.263"/>
      <point x="103.188" y="603.625"/>
      <point x="135.998" y="613" type="curve" smooth="yes"/>
      <point x="160.64" y="623.561"/>
      <point x="189.07" y="634"/>
      <point x="221.999" y="634" type="curve" smooth="yes"/>
      <point x="295.999" y="634" type="line" smooth="yes"/>
      <point x="312.698" y="634"/>
      <point x="332.874" y="627.464"/>
      <point x="344.999" y="624" type="curve" smooth="yes"/>
      <point x="379.326" y="610.27"/>
      <point x="395.8" y="570.787"/>
      <point x="398.999" y="526.001" type="curve" smooth="yes"/>
      <point x="398.999" y="492.001" type="line" smooth="yes"/>
      <point x="398.999" y="461.649"/>
      <point x="379.706" y="439.061"/>
      <point x="366.999" y="420" type="curve" smooth="yes"/>
      <point x="346.294" y="393.38"/>
      <point x="319.278" y="371.248"/>
      <point x="300.999" y="342.001" type="curve" smooth="yes"/>
      <point x="288.999" y="326.001" type="line" smooth="yes"/>
      <point x="284.999" y="320.668"/>
      <point x="281.666" y="315.668"/>
      <point x="278.999" y="311.001" type="curve" smooth="yes"/>
      <point x="271.999" y="297.001" type="line" smooth="yes"/>
      <point x="262.086" y="277.175"/>
      <point x="259.054" y="250.129"/>
      <point x="249.999" y="229.001" type="curve" smooth="yes"/>
      <point x="247.406" y="216.035"/>
      <point x="246.879" y="198.639"/>
      <point x="243" y="187.001" type="curve" smooth="yes"/>
      <point x="241.871" y="180.23"/>
      <point x="240" y="168.184"/>
      <point x="240" y="161.001" type="curve" smooth="yes"/>
      <point x="240" y="154.001" type="line" smooth="yes"/>
      <point x="240" y="144.499"/>
      <point x="232.174" y="136.001"/>
      <point x="222.5" y="136.001" type="curve" smooth="yes"/>
      <point x="212.861" y="136.001"/>
      <point x="204" y="144.506"/>
      <point x="204" y="154.001" type="curve" smooth="yes"/>
      <point x="204" y="161.001" type="line" smooth="yes"/>
      <point x="204" y="182.037"/>
      <point x="212" y="200.72"/>
      <point x="212" y="221.001" type="curve" smooth="yes"/>
      <point x="213.289" y="233.893"/>
      <point x="218.148" y="243.595"/>
      <point x="221" y="255.001" type="curve" smooth="yes"/>
      <point x="229.952" y="290.81"/>
      <point x="240.28" y="321.097"/>
      <point x="259" y="347" type="curve" smooth="yes"/>
      <point x="276.179" y="370.771"/>
      <point x="291.283" y="393.455"/>
      <point x="313" y="413" type="curve" smooth="yes"/>
      <point x="329.455" y="429.455"/>
      <point x="344.199" y="447.398"/>
      <point x="355" y="469" type="curve" smooth="yes"/>
      <point x="361" y="483" type="line" smooth="yes"/>
      <point x="362.333" y="486.333"/>
      <point x="363" y="489.333"/>
      <point x="363" y="492" type="curve" smooth="yes"/>
    </contour>
  </outline>
</glyph>
<glyph name="at" format="1">
  <advance width="794"/>
  <unicode hex="0040"/>
  <outline>
    <contour>
      <point x="487" y="121" type="curve"/>
      <point x="478.786" y="153.854"/>
      <point x="472.092" y="192.508"/>
      <point x="466.002" y="226.001" type="curve" smooth="yes"/>
      <point x="460.717" y="247.141"/>
      <point x="460.447" y="268.771"/>
      <point x="456.001" y="291.001" type="curve" smooth="yes"/>
      <point x="447.821" y="318.268"/>
      <point x="441.67" y="343.663"/>
      <point x="430.001" y="367" type="curve" smooth="yes"/>
      <point x="423.357" y="376.965"/>
      <point x="413.621" y="393"/>
      <point x="397.001" y="393" type="curve" smooth="yes"/>
      <point x="369.203" y="393"/>
      <point x="345.449" y="378.214"/>
      <point x="328.001" y="366" type="curve" smooth="yes"/>
      <point x="313.563" y="356.375"/>
      <point x="293.001" y="334.921"/>
      <point x="293.001" y="314" type="curve" smooth="yes"/>
      <point x="293.001" y="275" type="line" smooth="yes"/>
      <point x="293.001" y="222.907"/>
      <point x="310.619" y="182.146"/>
      <point x="324.001" y="142" type="curve" smooth="yes"/>
      <point x="326.668" y="136"/>
      <point x="330.001" y="130.667"/>
      <point x="334.001" y="126" type="curve" smooth="yes"/>
      <point x="363.001" y="97" type="line" smooth="yes"/>
      <point x="371.137" y="85.6094"/>
      <point x="378.706" y="80"/>
      <point x="398.5" y="80" type="curve" smooth="yes"/>
      <point x="412.025" y="80"/>
      <point x="425.212" y="86.5625"/>
      <point x="435" y="92" type="curve" smooth="yes"/>
      <point x="452.758" y="99.8926"/>
      <point x="469.901" y="112.451"/>
    </contour>
    <contour>
      <point x="528.003" y="106.001" type="curve"/>
      <point x="536.626" y="88.7549"/>
      <point x="537.321" y="64.6055"/>
      <point x="549.005" y="50.001" type="curve" smooth="yes"/>
      <point x="555.849" y="39.7354"/>
      <point x="560.063" y="30.5312"/>
      <point x="565.005" y="19.001" type="curve" smooth="yes"/>
      <point x="571.005" y="7.00098" type="line"/>
      <point x="579.005" y="7.00098" type="line" smooth="yes"/>
      <point x="595.946" y="7.00098"/>
      <point x="607.142" y="17.8711"/>
      <point x="616.006" y="28.001" type="curve" smooth="yes"/>
      <point x="640.554" y="49.8213"/>
      <point x="666.044" y="76.0771"/>
      <point x="681.006" y="106.001" type="curve" smooth="yes"/>
      <point x="687.006" y="120.001" type="line" smooth="yes"/>
      <point x="698.49" y="150.626"/>
      <point x="709.006" y="185.117"/>
      <point x="709.006" y="227" type="curve" smooth="yes"/>
      <point x="708.339" y="233.667"/>
      <point x="708.006" y="240"/>
      <point x="708.006" y="246" type="curve" smooth="yes"/>
      <point x="708.006" y="279" type="line" smooth="yes"/>
      <point x="708.006" y="298.448"/>
      <point x="699.163" y="313.117"/>
      <point x="692.006" y="326" type="curve" smooth="yes"/>
      <point x="682.671" y="347.003"/>
      <point x="664.874" y="361.132"/>
      <point x="649.006" y="377" type="curve" smooth="yes"/>
      <point x="633.006" y="393" type="line"/>
      <point x="611.248" y="407.505"/>
      <point x="581.263" y="436.495"/>
      <point x="561.006" y="450" type="curve" smooth="yes"/>
      <point x="535.99" y="469.457"/>
      <point x="513.745" y="490.209"/>
      <point x="489.006" y="510" type="curve" smooth="yes"/>
      <point x="473.663" y="523.426"/>
      <point x="456.598" y="531.026"/>
      <point x="438.507" y="541.5" type="curve" smooth="yes"/>
      <point x="418.52" y="553.071"/>
      <point x="399.034" y="564.997"/>
      <point x="372.007" y="568" type="curve" smooth="yes"/>
      <point x="352.007" y="570" type="line" smooth="yes"/>
      <point x="345.34" y="570.667"/>
      <point x="339.34" y="571.334"/>
      <point x="334.007" y="572.001" type="curve" smooth="yes"/>
      <point x="328.674" y="572.001"/>
      <point x="323.341" y="571.668"/>
      <point x="318.008" y="571.001" type="curve" smooth="yes"/>
      <point x="306.713" y="571.001"/>
      <point x="289.994" y="560.114"/>
      <point x="283.008" y="554.001" type="curve" smooth="yes"/>
      <point x="255.194" y="531.75"/>
      <point x="236.545" y="495.596"/>
      <point x="216.008" y="464" type="curve" smooth="yes"/>
      <point x="192.87" y="427.365"/>
      <point x="177.819" y="382.804"/>
      <point x="159.008" y="341.001" type="curve" smooth="yes"/>
      <point x="142.518" y="301.836"/>
      <point x="126.703" y="254.318"/>
      <point x="114.008" y="212.001" type="curve" smooth="yes"/>
      <point x="98.1709" y="159.212"/>
      <point x="90.6709" y="104.621"/>
      <point x="86.0078" y="44.001" type="curve"/>
      <point x="86.0078" y="21.001" type="line" smooth="yes"/>
      <point x="86.0078" y="-27.4512"/>
      <point x="136.215" y="-50.6572"/>
      <point x="168.008" y="-67.999" type="curve" smooth="yes"/>
      <point x="180.354" y="-75.4072"/>
      <point x="189.119" y="-81.1104"/>
      <point x="205.008" y="-83.999" type="curve" smooth="yes"/>
      <point x="213.008" y="-85.999"/>
      <point x="221.341" y="-87.999"/>
      <point x="230.008" y="-89.999" type="curve" smooth="yes"/>
      <point x="258.008" y="-93.999" type="line" smooth="yes"/>
      <point x="283.024" y="-99.7725"/>
      <point x="316.175" y="-100.999"/>
      <point x="345.009" y="-100.999" type="curve" smooth="yes"/>
      <point x="398.009" y="-100.999" type="line" smooth="yes"/>
      <point x="434.847" y="-100.999"/>
      <point x="460.263" y="-93.748"/>
      <point x="490.009" y="-84.999" type="curve" smooth="yes"/>
      <point x="500.676" y="-82.332"/>
      <point x="508.009" y="-79.999"/>
      <point x="512.009" y="-77.999" type="curve" smooth="yes"/>
      <point x="522.053" y="-75.9902"/>
      <point x="529.099" y="-64.6895"/>
      <point x="541.508" y="-67.999" type="curve" smooth="yes"/>
      <point x="555.712" y="-71.7871"/>
      <point x="560.233" y="-92.8701"/>
      <point x="546.008" y="-100.999" type="curve" smooth="yes"/>
      <point x="522.804" y="-116.468"/>
      <point x="483.092" y="-126.484"/>
      <point x="450.007" y="-131.998" type="curve" smooth="yes"/>
      <point x="433.896" y="-135.716"/>
      <point x="416.973" y="-136.998"/>
      <point x="398.007" y="-136.998" type="curve" smooth="yes"/>
      <point x="345.007" y="-136.998" type="line" smooth="yes"/>
      <point x="302.222" y="-136.998"/>
      <point x="260.124" y="-130.555"/>
      <point x="224.007" y="-124.998" type="curve" smooth="yes"/>
      <point x="206.265" y="-122.464"/>
      <point x="185.153" y="-117.429"/>
      <point x="171.007" y="-110.998" type="curve" smooth="yes"/>
      <point x="139.075" y="-93.2588"/>
      <point x="106.328" y="-77.5889"/>
      <point x="82.5068" y="-51.499" type="curve" smooth="yes"/>
      <point x="65.3105" y="-32.665"/>
      <point x="50.0068" y="-12.126"/>
      <point x="50.0068" y="21.001" type="curve" smooth="yes"/>
      <point x="50.0068" y="45.001" type="line"/>
      <point x="54.6719" y="110.308"/>
      <point x="65.3252" y="164.536"/>
      <point x="79.0068" y="222.001" type="curve" smooth="yes"/>
      <point x="96.9424" y="281.787"/>
      <point x="120.144" y="343.116"/>
      <point x="144.007" y="398.002" type="curve" smooth="yes"/>
      <point x="161.007" y="445.223"/>
      <point x="185.36" y="483.531"/>
      <point x="211.008" y="522.002" type="curve" smooth="yes"/>
      <point x="239.319" y="564.469"/>
      <point x="267.397" y="608.002"/>
      <point x="336.008" y="608.002" type="curve" smooth="yes"/>
      <point x="364.713" y="604.812"/>
      <point x="394.405" y="602.043"/>
      <point x="417.008" y="593.002" type="curve" smooth="yes"/>
      <point x="442.952" y="581.471"/>
      <point x="468.833" y="566.485"/>
      <point x="492.007" y="552.002" type="curve" smooth="yes"/>
      <point x="505.75" y="545.131"/>
      <point x="519.651" y="531.004"/>
      <point x="532.007" y="520.502" type="curve" smooth="yes"/>
      <point x="549.65" y="505.505"/>
      <point x="563.296" y="491.828"/>
      <point x="583.007" y="480.002" type="curve" smooth="yes"/>
      <point x="611.361" y="457.318"/>
      <point x="647.988" y="427.564"/>
      <point x="675.007" y="403.002" type="curve" smooth="yes"/>
      <point x="686.291" y="390.464"/>
      <point x="702.58" y="376.469"/>
      <point x="712.007" y="363.002" type="curve" smooth="yes"/>
      <point x="726.895" y="339.607"/>
      <point x="744.007" y="314.871"/>
      <point x="744.007" y="279.002" type="curve" smooth="yes"/>
      <point x="744.007" y="246.002" type="line" smooth="yes"/>
      <point x="744.007" y="240.669"/>
      <point x="744.34" y="234.669"/>
      <point x="745.007" y="228.002" type="curve" smooth="yes"/>
      <point x="745.007" y="220.669"/>
      <point x="744.674" y="213.002"/>
      <point x="744.007" y="205.002" type="curve" smooth="yes"/>
      <point x="742.007" y="185.002" type="line" smooth="yes"/>
      <point x="738.769" y="149.386"/>
      <point x="724.685" y="119.478"/>
      <point x="714.006" y="91.002" type="curve" smooth="yes"/>
      <point x="700.895" y="64.7793"/>
      <point x="679.271" y="37.9043"/>
      <point x="658.006" y="19.001" type="curve" smooth="yes"/>
      <point x="642.006" y="3.00098" type="line" smooth="yes"/>
      <point x="626.076" y="-12.9287"/>
      <point x="609.078" y="-28.999"/>
      <point x="579.006" y="-28.999" type="curve" smooth="yes"/>
      <point x="559.388" y="-28.999"/>
      <point x="548.016" y="-26.0176"/>
      <point x="540.005" y="-11.999" type="curve" smooth="yes"/>
      <point x="532.329" y="1.43457"/>
      <point x="527.688" y="16.9775"/>
      <point x="519.006" y="30.002" type="curve" smooth="yes"/>
      <point x="509.008" y="44.999"/>
      <point x="503.848" y="67.7568"/>
      <point x="497.006" y="86.0029" type="curve"/>
      <point x="487.006" y="80.0029" type="line"/>
      <point x="456.032" y="66.7285"/>
      <point x="422.887" y="33.6709"/>
      <point x="374.005" y="47.002" type="curve" smooth="yes"/>
      <point x="357.386" y="51.1572"/>
      <point x="347.113" y="61.8936"/>
      <point x="336.005" y="73.002" type="curve" smooth="yes"/>
      <point x="323.005" y="86.002" type="line" smooth="yes"/>
      <point x="301.266" y="105.023"/>
      <point x="290.561" y="126.336"/>
      <point x="280.005" y="158.002" type="curve" smooth="yes"/>
      <point x="268.139" y="188.515"/>
      <point x="262.989" y="217.142"/>
      <point x="259.005" y="253.002" type="curve" smooth="yes"/>
      <point x="257.672" y="260.335"/>
      <point x="257.005" y="267.668"/>
      <point x="257.005" y="275.001" type="curve" smooth="yes"/>
      <point x="257.005" y="314.001" type="line" smooth="yes"/>
      <point x="257.005" y="340.723"/>
      <point x="270.462" y="357.75"/>
      <point x="284.005" y="374.001" type="curve" smooth="yes"/>
      <point x="305.881" y="400.252"/>
      <point x="339.027" y="418.34"/>
      <point x="378.005" y="427.002" type="curve" smooth="yes"/>
      <point x="385.338" y="428.335"/>
      <point x="391.671" y="429.002"/>
      <point x="397.004" y="429.002" type="curve" smooth="yes"/>
      <point x="462.553" y="429.002"/>
      <point x="477.044" y="350.189"/>
      <point x="491.004" y="299.002" type="curve"/>
      <point x="495.004" y="275.002" type="line" smooth="yes"/>
      <point x="497.73" y="242.288"/>
      <point x="506.297" y="213.598"/>
      <point x="511.004" y="183.002" type="curve" smooth="yes"/>
      <point x="513.674" y="166.979"/>
      <point x="517.003" y="152.003"/>
      <point x="521.003" y="136.001" type="curve" smooth="yes"/>
      <point x="523.003" y="124.001" type="line" smooth="yes"/>
      <point x="527.274" y="119.729"/>
      <point x="529.664" y="114.307"/>
    </contour>
  </outline>
</glyph>
<glyph name="A" format="1">
  <advance width="593"/>
  <unicode hex="0041"/>
  <outline>
    <contour>
      <point x="141" y="196" type="curve"/>
      <point x="121.788" y="198.956"/>
      <point x="120.052" y="226.592"/>
      <point x="138.996" y="232.004" type="curve" smooth="yes"/>
      <point x="147.996" y="234.004" type="line" smooth="yes"/>
      <point x="149.329" y="234.004"/>
      <point x="150.996" y="234.337"/>
      <point x="152.996" y="235.004" type="curve" smooth="yes"/>
      <point x="152.996" y="235.671"/>
      <point x="153.329" y="236.671"/>
      <point x="153.996" y="238.004" type="curve" smooth="yes"/>
      <point x="161.972" y="252.36"/>
      <point x="168.238" y="273.109"/>
      <point x="174.996" y="290.004" type="curve" smooth="yes"/>
      <point x="183.795" y="310.533"/>
      <point x="188.034" y="325.518"/>
      <point x="196.997" y="346.004" type="curve" smooth="yes"/>
      <point x="210.837" y="373.683"/>
      <point x="215.096" y="405.248"/>
      <point x="226.998" y="435.003" type="curve" smooth="yes"/>
      <point x="231.776" y="447.744"/>
      <point x="232.365" y="461.263"/>
      <point x="236.998" y="474.003" type="curve" smooth="yes"/>
      <point x="246.689" y="506.308"/>
      <point x="260.071" y="534.918"/>
      <point x="272.998" y="564.003" type="curve" smooth="yes"/>
      <point x="275.426" y="572.501"/>
      <point x="283.378" y="590.557"/>
      <point x="286.997" y="599.002" type="curve" smooth="yes"/>
      <point x="290.706" y="612.602"/>
      <point x="299.18" y="628.194"/>
      <point x="316.497" y="627.502" type="curve" smooth="yes"/>
      <point x="344.381" y="626.387"/>
      <point x="346.553" y="583.924"/>
      <point x="352.997" y="557.502" type="curve" smooth="yes"/>
      <point x="365.657" y="505.598"/>
      <point x="375.36" y="463.229"/>
      <point x="385.998" y="407.002" type="curve" smooth="yes"/>
      <point x="394.719" y="363.397"/>
      <point x="403.042" y="339.565"/>
      <point x="413.998" y="302.002" type="curve" smooth="yes"/>
      <point x="421.992" y="274.024"/>
      <point x="427.361" y="268.795"/>
      <point x="437.998" y="246.002" type="curve" smooth="yes"/>
      <point x="449.998" y="218.002" type="line" smooth="yes"/>
      <point x="460.109" y="192.725"/>
      <point x="470.723" y="166.679"/>
      <point x="477.998" y="140.003" type="curve" smooth="yes"/>
      <point x="489.637" y="101.209"/>
      <point x="510.854" y="70.3398"/>
      <point x="525.999" y="35.0029" type="curve" smooth="yes"/>
      <point x="531.207" y="24.5869"/>
      <point x="553.893" y="12.8848"/>
      <point x="538.999" y="-3.49805" type="curve" smooth="yes"/>
      <point x="535.666" y="-7.16504"/>
      <point x="531.499" y="-8.99805"/>
      <point x="526.499" y="-8.99805" type="curve" smooth="yes"/>
      <point x="518.104" y="-8.99805"/>
      <point x="513.049" y="-3.20605"/>
      <point x="507.999" y="1.00195" type="curve" smooth="yes"/>
      <point x="488.261" y="18.5469"/>
      <point x="479.712" y="51.0039"/>
      <point x="465.999" y="75.002" type="curve" smooth="yes"/>
      <point x="441.856" y="117.251"/>
      <point x="433.125" y="172.75"/>
      <point x="410.999" y="217.002" type="curve"/>
      <point x="409.666" y="216.335"/>
      <point x="408.333" y="216.002"/>
      <point x="407" y="216.002" type="curve" smooth="yes"/>
      <point x="407" y="216.002"/>
      <point x="397" y="217.002"/>
      <point x="397" y="217.002" type="curve" smooth="yes"/>
      <point x="390.333" y="217.002"/>
      <point x="383" y="216.669"/>
      <point x="375" y="216.002" type="curve" smooth="yes"/>
      <point x="349" y="214.002" type="line" smooth="yes"/>
      <point x="299.485" y="210.193"/>
      <point x="246.437" y="204.859"/>
      <point x="194.999" y="202.002" type="curve" smooth="yes"/>
      <point x="188.999" y="201.335"/>
      <point x="183.666" y="201.002"/>
      <point x="178.999" y="201.002" type="curve"/>
      <point x="167.576" y="132.465"/>
      <point x="142.121" y="85.1377"/>
      <point x="117.999" y="30.001" type="curve" smooth="yes"/>
      <point x="108.147" y="4.66895"/>
      <point x="101.235" y="-10.1943"/>
      <point x="86.999" y="-28.999" type="curve" smooth="yes"/>
      <point x="80.29" y="-37.8604"/>
      <point x="70.5049" y="-49.0039"/>
      <point x="56.999" y="-40" type="curve" smooth="yes"/>
      <point x="38.5127" y="-27.6758"/>
      <point x="61.7363" y="-5.52637"/>
      <point x="66.999" y="5" type="curve" smooth="yes"/>
      <point x="74.499" y="20" type="line" smooth="yes"/>
      <point x="80.2246" y="31.4502"/>
      <point x="92.1436" y="61.3115"/>
      <point x="98" y="74" type="curve" smooth="yes"/>
      <point x="110" y="100" type="line" smooth="yes"/>
      <point x="123.256" y="131.813"/>
      <point x="133.369" y="157.847"/>
    </contour>
    <contour>
      <point x="193.995" y="238.004" type="line"/>
      <point x="243.007" y="241.067"/>
      <point x="297.812" y="243.577"/>
      <point x="345.996" y="250.002" type="curve" smooth="yes"/>
      <point x="371.996" y="252.002" type="line" smooth="yes"/>
      <point x="379.996" y="252.669"/>
      <point x="387.663" y="253.002"/>
      <point x="394.996" y="253.002" type="curve"/>
      <point x="394.329" y="253.669"/>
      <point x="393.996" y="254.336"/>
      <point x="393.996" y="255.003" type="curve" smooth="yes"/>
      <point x="381.443" y="273.833"/>
      <point x="373.738" y="312.778"/>
      <point x="364.996" y="339.003" type="curve" smooth="yes"/>
      <point x="343.706" y="411.996"/>
      <point x="331.964" y="496.131"/>
      <point x="313.996" y="568.003" type="curve"/>
      <point x="304.427" y="548.864"/>
      <point x="300.305" y="538.606"/>
      <point x="291.995" y="517.003" type="curve" smooth="yes"/>
      <point x="289.328" y="512.336"/>
      <point x="286.828" y="506.836"/>
      <point x="284.495" y="500.503" type="curve" smooth="yes"/>
      <point x="277.495" y="481.503" type="line" smooth="yes"/>
      <point x="273.25" y="469.98"/>
      <point x="268.476" y="458.324"/>
      <point x="266.995" y="445.004" type="curve" smooth="yes"/>
      <point x="263.392" y="423.385"/>
      <point x="252.476" y="403.408"/>
      <point x="247.995" y="381.004" type="curve" smooth="yes"/>
      <point x="236.366" y="334.489"/>
      <point x="211.253" y="294.407"/>
      <point x="197.995" y="248.004" type="curve"/>
    </contour>
  </outline>
</glyph>
<glyph name="B" format="1">
  <advance width="521"/>
  <unicode hex="0042"/>
  <outline>
    <contour>
      <point x="114" y="578" type="line" smooth="yes"/>
      <point x="103.324" y="578"/>
      <point x="98.3613" y="575.82"/>
      <point x="92" y="572.003" type="curve"/>
      <point x="92" y="540.003" type="line" smooth="yes"/>
      <point x="92" y="532.003"/>
      <point x="91.667" y="523.336"/>
      <point x="91" y="514.003" type="curve" smooth="yes"/>
      <point x="91" y="477.887"/>
      <point x="86" y="443.774"/>
      <point x="86" y="405.003" type="curve" smooth="yes"/>
      <point x="86" y="96.0029" type="line" smooth="yes"/>
      <point x="86" y="92.0029"/>
      <point x="86.333" y="88.3359"/>
      <point x="87" y="85.0029" type="curve" smooth="yes"/>
      <point x="91" y="71.0029" type="line" smooth="yes"/>
      <point x="93.5537" y="64.6191"/>
      <point x="98.7285" y="55.7598"/>
      <point x="107" y="53.0029" type="curve" smooth="yes"/>
      <point x="123.555" y="46.9824"/>
      <point x="137.184" y="47.4561"/>
      <point x="154.999" y="43.002" type="curve" smooth="yes"/>
      <point x="159.666" y="42.335"/>
      <point x="165.666" y="42.335"/>
      <point x="172.999" y="43.002" type="curve" smooth="yes"/>
      <point x="245.999" y="43.002" type="line" smooth="yes"/>
      <point x="272.446" y="43.002"/>
      <point x="294.624" y="47.3486"/>
      <point x="311.999" y="57.002" type="curve" smooth="yes"/>
      <point x="329.999" y="67.002" type="line"/>
      <point x="345.999" y="77.002" type="line" smooth="yes"/>
      <point x="363.392" y="88.5967"/>
      <point x="377.581" y="95.2969"/>
      <point x="392.999" y="109.001" type="curve" smooth="yes"/>
      <point x="407.544" y="125.162"/>
      <point x="426.07" y="141.284"/>
      <point x="432" y="165.001" type="curve" smooth="yes"/>
      <point x="434.202" y="176.012"/>
      <point x="436.709" y="186.036"/>
      <point x="435" y="198" type="curve" smooth="yes"/>
      <point x="435" y="205.691"/>
      <point x="425.621" y="215.379"/>
      <point x="422" y="219" type="curve" smooth="yes"/>
      <point x="407.186" y="231.346"/>
      <point x="384.64" y="240.836"/>
      <point x="369" y="253" type="curve" smooth="yes"/>
      <point x="357.12" y="259.6"/>
      <point x="343.623" y="267.913"/>
      <point x="330" y="272" type="curve" smooth="yes"/>
      <point x="310" y="278" type="line" smooth="yes"/>
      <point x="292.717" y="283.185"/>
      <point x="272.399" y="288"/>
      <point x="250" y="288" type="curve" smooth="yes"/>
      <point x="237.579" y="288"/>
      <point x="224.79" y="290"/>
      <point x="212" y="290" type="curve" smooth="yes"/>
      <point x="130" y="290" type="line" smooth="yes"/>
      <point x="119.509" y="290"/>
      <point x="117.221" y="324.652"/>
      <point x="128" y="326" type="curve" smooth="yes"/>
      <point x="134" y="327.333"/>
      <point x="140.333" y="328"/>
      <point x="147" y="328" type="curve" smooth="yes"/>
      <point x="313" y="328" type="line" smooth="yes"/>
      <point x="317" y="328"/>
      <point x="320.667" y="328.333"/>
      <point x="324" y="329" type="curve" smooth="yes"/>
      <point x="338" y="331" type="line" smooth="yes"/>
      <point x="359.886" y="334.127"/>
      <point x="383.336" y="340.337"/>
      <point x="396" y="353.001" type="curve" smooth="yes"/>
      <point x="401.338" y="359.406"/>
      <point x="407.7" y="367.081"/>
      <point x="410" y="376.001" type="curve" smooth="yes"/>
      <point x="412.886" y="387.195"/>
      <point x="417.333" y="398.001"/>
      <point x="421" y="409.001" type="curve" smooth="yes"/>
      <point x="422.333" y="414.334"/>
      <point x="423" y="419.667"/>
      <point x="423" y="425" type="curve" smooth="yes"/>
      <point x="423.667" y="431"/>
      <point x="424" y="437.333"/>
      <point x="424" y="444" type="curve" smooth="yes"/>
      <point x="424" y="466.093"/>
      <point x="418.443" y="478.557"/>
      <point x="407" y="490" type="curve" smooth="yes"/>
      <point x="387.91" y="514.544"/>
      <point x="357.15" y="532.646"/>
      <point x="329.001" y="548" type="curve" smooth="yes"/>
      <point x="307.313" y="562.458"/>
      <point x="284.438" y="565.927"/>
      <point x="254" y="571" type="curve" smooth="yes"/>
      <point x="234.479" y="576.324"/>
      <point x="212.446" y="579"/>
      <point x="189" y="579" type="curve" smooth="yes"/>
      <point x="181.667" y="578.333"/>
      <point x="174.667" y="578"/>
      <point x="168" y="578" type="curve" smooth="yes"/>
    </contour>
    <contour>
      <point x="49.999" y="405.004" type="line" smooth="yes"/>
      <point x="49.999" y="443.843"/>
      <point x="54.999" y="479.854"/>
      <point x="54.999" y="516.005" type="curve" smooth="yes"/>
      <point x="55.666" y="524.672"/>
      <point x="55.999" y="532.672"/>
      <point x="55.999" y="540.005" type="curve" smooth="yes"/>
      <point x="55.999" y="574.005" type="line" smooth="yes"/>
      <point x="55.999" y="577.338"/>
      <point x="56.999" y="580.671"/>
      <point x="58.999" y="584.004" type="curve" smooth="yes"/>
      <point x="58.999" y="605.46"/>
      <point x="91.9941" y="614.004"/>
      <point x="113.999" y="614.004" type="curve" smooth="yes"/>
      <point x="167.999" y="614.004" type="line" smooth="yes"/>
      <point x="173.999" y="614.004"/>
      <point x="180.666" y="614.337"/>
      <point x="187.999" y="615.004" type="curve" smooth="yes"/>
      <point x="204.012" y="615.004"/>
      <point x="220.018" y="613.834"/>
      <point x="236.999" y="611.004" type="curve" smooth="yes"/>
      <point x="260.999" y="607.004" type="line" smooth="yes"/>
      <point x="279.531" y="601.949"/>
      <point x="295.207" y="601.2"/>
      <point x="311.998" y="594.004" type="curve" smooth="yes"/>
      <point x="323.998" y="590.004" type="line" smooth="yes"/>
      <point x="337.628" y="585.915"/>
      <point x="359.559" y="571.867"/>
      <point x="370.998" y="565.004" type="curve" smooth="yes"/>
      <point x="412.492" y="539.47"/>
      <point x="459.998" y="509.546"/>
      <point x="459.998" y="444.005" type="curve" smooth="yes"/>
      <point x="459.998" y="411.482"/>
      <point x="451.077" y="389.323"/>
      <point x="444.998" y="365.006" type="curve" smooth="yes"/>
      <point x="434.667" y="336.595"/>
      <point x="412.838" y="312.716"/>
      <point x="381.998" y="305.006" type="curve" smooth="yes"/>
      <point x="373.539" y="302.699"/>
      <point x="365.97" y="299.006"/>
      <point x="358.998" y="299.006" type="curve"/>
      <point x="382.89" y="287.061"/>
      <point x="405.438" y="273.379"/>
      <point x="426.998" y="259.006" type="curve" smooth="yes"/>
      <point x="441.881" y="250.888"/>
      <point x="453.041" y="240.081"/>
      <point x="461.998" y="226.006" type="curve" smooth="yes"/>
      <point x="489.966" y="187.551"/>
      <point x="457.109" y="126.129"/>
      <point x="436.998" y="104.007" type="curve" smooth="yes"/>
      <point x="420.587" y="85.7725"/>
      <point x="403.339" y="68.8633"/>
      <point x="381.998" y="57.0068" type="curve" smooth="yes"/>
      <point x="369.994" y="51.0049"/>
      <point x="360.415" y="41.2148"/>
      <point x="347.998" y="35.0059" type="curve" smooth="yes"/>
      <point x="327.998" y="25.0059" type="line" smooth="yes"/>
      <point x="305.869" y="14.9473"/>
      <point x="277.302" y="7.00586"/>
      <point x="245.999" y="7.00586" type="curve" smooth="yes"/>
      <point x="173.999" y="7.00586" type="line" smooth="yes"/>
      <point x="156.12" y="5.72852"/>
      <point x="149.643" y="8.49219"/>
      <point x="132.999" y="10.0049" type="curve" smooth="yes"/>
      <point x="96.3594" y="14.0762"/>
      <point x="66.5498" y="28.168"/>
      <point x="56.999" y="60.0049" type="curve" smooth="yes"/>
      <point x="54.002" y="70.4941"/>
      <point x="49.999" y="83.0244"/>
      <point x="49.999" y="96.0039" type="curve" smooth="yes"/>
    </contour>
  </outline>
</glyph>
<glyph name="C" format="1">
  <advance width="567"/>
  <unicode hex="0043"/>
  <outline>
    <contour>
      <point x="491" y="610" type="line" smooth="yes"/>
      <point x="500.229" y="610"/>
      <point x="508.999" y="601.23"/>
      <point x="508.999" y="592.002" type="curve" smooth="yes"/>
      <point x="508.999" y="582.772"/>
      <point x="500.228" y="574.002"/>
      <point x="490.999" y="574.002" type="curve" smooth="yes"/>
      <point x="313.999" y="574.002" type="line" smooth="yes"/>
      <point x="270.576" y="574.002"/>
      <point x="226.671" y="565.147"/>
      <point x="195.999" y="552.002" type="curve" smooth="yes"/>
      <point x="174.115" y="539.497"/>
      <point x="147.602" y="530.208"/>
      <point x="135.998" y="507.002" type="curve" smooth="yes"/>
      <point x="127.792" y="490.59"/>
      <point x="123.433" y="474.073"/>
      <point x="112.998" y="459.001" type="curve"/>
      <point x="106.855" y="442.622"/>
      <point x="103.658" y="422.982"/>
      <point x="97.998" y="406.001" type="curve" smooth="yes"/>
      <point x="89.459" y="377.537"/>
      <point x="85.998" y="339.681"/>
      <point x="85.998" y="303.001" type="curve" smooth="yes"/>
      <point x="85.998" y="235.001" type="line" smooth="yes"/>
      <point x="85.998" y="213.218"/>
      <point x="88.9561" y="190.38"/>
      <point x="90.998" y="172.001" type="curve" smooth="yes"/>
      <point x="98.0205" y="136.889"/>
      <point x="122.287" y="116.153"/>
      <point x="144.498" y="95" type="curve" smooth="yes"/>
      <point x="161.805" y="78.5176"/>
      <point x="182.97" y="61.3975"/>
      <point x="205.499" y="51" type="curve" smooth="yes"/>
      <point x="218.499" y="45" type="line" smooth="yes"/>
      <point x="233.435" y="38.1064"/>
      <point x="253.438" y="33"/>
      <point x="273.999" y="33" type="curve" smooth="yes"/>
      <point x="337.999" y="33" type="line" smooth="yes"/>
      <point x="366.564" y="33"/>
      <point x="386.669" y="49.3027"/>
      <point x="402.999" y="64" type="curve" smooth="yes"/>
      <point x="431.91" y="87.1289"/>
      <point x="446.652" y="123.115"/>
      <point x="467.999" y="153.001" type="curve" smooth="yes"/>
      <point x="473.689" y="160.645"/>
      <point x="479.512" y="168.155"/>
      <point x="484.999" y="176.001" type="curve" smooth="yes"/>
      <point x="494.787" y="187.746"/>
      <point x="516.418" y="183.717"/>
      <point x="517.499" y="167.501" type="curve" smooth="yes"/>
      <point x="518.135" y="157.972"/>
      <point x="512.611" y="152.381"/>
      <point x="508" y="147.001" type="curve" smooth="yes"/>
      <point x="473.026" y="99.0186"/>
      <point x="447.597" y="40.7998"/>
      <point x="392" y="13.002" type="curve" smooth="yes"/>
      <point x="377.677" y="4.81738"/>
      <point x="359.824" y="-2.99805"/>
      <point x="338" y="-2.99805" type="curve" smooth="yes"/>
      <point x="274" y="-2.99805" type="line" smooth="yes"/>
      <point x="228.594" y="-2.99805"/>
      <point x="198.118" y="13.0166"/>
      <point x="169" y="30.002" type="curve" smooth="yes"/>
      <point x="142.456" y="45.1699"/>
      <point x="120.958" y="68.2402"/>
      <point x="99" y="88.002" type="curve" smooth="yes"/>
      <point x="87.9463" y="100.161"/>
      <point x="74.6709" y="116.992"/>
      <point x="68" y="132.001" type="curve" smooth="yes"/>
      <point x="62" y="146.001" type="line" smooth="yes"/>
      <point x="51.1992" y="167.604"/>
      <point x="50" y="203.802"/>
      <point x="50" y="235.002" type="curve" smooth="yes"/>
      <point x="50" y="303.002" type="line" smooth="yes"/>
      <point x="50" y="344.507"/>
      <point x="53.5859" y="386.76"/>
      <point x="64" y="418.001" type="curve" smooth="yes"/>
      <point x="70" y="438.001" type="line" smooth="yes"/>
      <point x="71.9658" y="450.777"/>
      <point x="77.6152" y="471.821"/>
      <point x="83" y="479.001" type="curve" smooth="yes"/>
      <point x="97.1865" y="502.645"/>
      <point x="102.379" y="529.163"/>
      <point x="122" y="547.001" type="curve" smooth="yes"/>
      <point x="141.763" y="566.764"/>
      <point x="170.376" y="583.113"/>
      <point x="200" y="592" type="curve" smooth="yes"/>
      <point x="217.573" y="596.394"/>
      <point x="236.287" y="603.274"/>
      <point x="257" y="605" type="curve" smooth="yes"/>
      <point x="270.511" y="606.229"/>
      <point x="299.163" y="610"/>
      <point x="314" y="610" type="curve" smooth="yes"/>
    </contour>
  </outline>
</glyph>
<glyph name="D" format="1">
  <advance width="548"/>
  <unicode hex="0044"/>
  <outline>
    <contour>
      <point x="91" y="393" type="curve" smooth="yes"/>
      <point x="91" y="360.56"/>
      <point x="86.0039" y="325.444"/>
      <point x="86.0039" y="291" type="curve" smooth="yes"/>
      <point x="86.0039" y="55" type="line"/>
      <point x="109.43" y="55"/>
      <point x="127.455" y="66.4834"/>
      <point x="144.004" y="72" type="curve" smooth="yes"/>
      <point x="165.004" y="79" type="line" smooth="yes"/>
      <point x="201.235" y="90.1484"/>
      <point x="238.753" y="96.5977"/>
      <point x="278.003" y="107.501" type="curve" smooth="yes"/>
      <point x="294.406" y="112.058"/>
      <point x="313.913" y="119.274"/>
      <point x="327.003" y="128.001" type="curve" smooth="yes"/>
      <point x="336.355" y="133.847"/>
      <point x="346.766" y="137.843"/>
      <point x="356.003" y="144.001" type="curve" smooth="yes"/>
      <point x="368.94" y="153.242"/>
      <point x="384.253" y="167.183"/>
      <point x="396.003" y="180.001" type="curve" smooth="yes"/>
      <point x="403.336" y="187.334"/>
      <point x="408.669" y="193.667"/>
      <point x="412.002" y="199" type="curve" smooth="yes"/>
      <point x="424.002" y="219" type="line" smooth="yes"/>
      <point x="439.228" y="249.451"/>
      <point x="455.285" y="284.27"/>
      <point x="460.001" y="322" type="curve" smooth="yes"/>
      <point x="461.334" y="328"/>
      <point x="462.001" y="333.667"/>
      <point x="462.001" y="339" type="curve" smooth="yes"/>
      <point x="462.668" y="343.667"/>
      <point x="463.001" y="348.667"/>
      <point x="463.001" y="354" type="curve" smooth="yes"/>
      <point x="463.001" y="371.126"/>
      <point x="457.37" y="387.263"/>
      <point x="451.001" y="400.001" type="curve" smooth="yes"/>
      <point x="441.001" y="418.001" type="line" smooth="yes"/>
      <point x="438.334" y="424.001"/>
      <point x="435.334" y="429.334"/>
      <point x="432.001" y="434.001" type="curve" smooth="yes"/>
      <point x="422.001" y="448.001" type="line"/>
      <point x="407.001" y="463.001" type="line" smooth="yes"/>
      <point x="387.316" y="479.106"/>
      <point x="367.869" y="501.054"/>
      <point x="343" y="511.001" type="curve" smooth="yes"/>
      <point x="324.007" y="518.306"/>
      <point x="311.141" y="525.532"/>
      <point x="292" y="531.001" type="curve" smooth="yes"/>
      <point x="266.723" y="538.584"/>
      <point x="243.511" y="550.187"/>
      <point x="213" y="554" type="curve" smooth="yes"/>
      <point x="196.707" y="555.629"/>
      <point x="181.913" y="560.886"/>
      <point x="165" y="563" type="curve" smooth="yes"/>
      <point x="147.591" y="565.176"/>
      <point x="125.544" y="569.939"/>
      <point x="107" y="572" type="curve" smooth="yes"/>
      <point x="102.333" y="572"/>
      <point x="97.333" y="572.333"/>
      <point x="92" y="573" type="curve"/>
      <point x="92" y="431" type="line" smooth="yes"/>
      <point x="92" y="417.667"/>
      <point x="91.667" y="405"/>
    </contour>
    <contour>
      <point x="74.0039" y="610" type="curve" smooth="yes"/>
      <point x="80" y="610.003" type="line" smooth="yes"/>
      <point x="88.9883" y="609.004"/>
      <point x="97.8955" y="608.003"/>
      <point x="108.001" y="608.003" type="curve" smooth="yes"/>
      <point x="140.165" y="605.322"/>
      <point x="173.75" y="600.315"/>
      <point x="203.002" y="593.003" type="curve" smooth="yes"/>
      <point x="232.639" y="584.535"/>
      <point x="266.422" y="582.293"/>
      <point x="291.003" y="570.003" type="curve" smooth="yes"/>
      <point x="299.53" y="564.887"/>
      <point x="310.038" y="563.432"/>
      <point x="320.004" y="559.003" type="curve" smooth="yes"/>
      <point x="336.004" y="553.003" type="line" smooth="yes"/>
      <point x="351.536" y="545.236"/>
      <point x="370.317" y="538.492"/>
      <point x="385.004" y="528.002" type="curve" smooth="yes"/>
      <point x="393.004" y="522.002"/>
      <point x="401.004" y="515.669"/>
      <point x="409.004" y="509.002" type="curve" smooth="yes"/>
      <point x="431.004" y="489.002" type="line" smooth="yes"/>
      <point x="450.051" y="471.542"/>
      <point x="459.813" y="457.985"/>
      <point x="473.004" y="436.001" type="curve" smooth="yes"/>
      <point x="483.004" y="416.001" type="line" smooth="yes"/>
      <point x="492.376" y="398.819"/>
      <point x="499.004" y="378.886"/>
      <point x="499.004" y="354.001" type="curve" smooth="yes"/>
      <point x="499.004" y="348.001"/>
      <point x="498.671" y="342.001"/>
      <point x="498.004" y="336.001" type="curve" smooth="yes"/>
      <point x="496.004" y="318.001" type="line" smooth="yes"/>
      <point x="493.583" y="293.794"/>
      <point x="485.641" y="273.001"/>
      <point x="477.004" y="254" type="curve" smooth="yes"/>
      <point x="464.336" y="215.997"/>
      <point x="447.997" y="180.993"/>
      <point x="422.004" y="155" type="curve" smooth="yes"/>
      <point x="404.063" y="135.565"/>
      <point x="383.508" y="114.802"/>
      <point x="359.004" y="105" type="curve" smooth="yes"/>
      <point x="348.235" y="98.8467"/>
      <point x="339.132" y="92.8516"/>
      <point x="327.003" y="88" type="curve" smooth="yes"/>
      <point x="309.003" y="80" type="line" smooth="yes"/>
      <point x="283.36" y="69.7432"/>
      <point x="249.054" y="63.8105"/>
      <point x="220.003" y="58" type="curve" smooth="yes"/>
      <point x="177.521" y="49.5039"/>
      <point x="145.6" y="29.9678"/>
      <point x="103.004" y="21" type="curve" smooth="yes"/>
      <point x="90.3369" y="18.333"/>
      <point x="81.3369" y="17"/>
      <point x="76.0039" y="17" type="curve" smooth="yes"/>
      <point x="62.8271" y="17"/>
      <point x="50.0039" y="28.7979"/>
      <point x="50.0039" y="42" type="curve" smooth="yes"/>
      <point x="50.0039" y="290" type="line" smooth="yes"/>
      <point x="50.0039" y="326.092"/>
      <point x="55.3613" y="362.18"/>
      <point x="56.0039" y="395" type="curve" smooth="yes"/>
      <point x="57.2891" y="460.629"/>
      <point x="56.0039" y="526.333"/>
      <point x="56.0039" y="592" type="curve" smooth="yes"/>
      <point x="56.0039" y="601.229"/>
      <point x="64.7754" y="610"/>
    </contour>
  </outline>
</glyph>
<glyph name="E" format="1">
  <advance width="516"/>
  <unicode hex="0045"/>
  <outline>
    <contour>
      <point x="438" y="580" type="line" smooth="yes"/>
      <point x="398.7" y="580"/>
      <point x="366.539" y="598"/>
      <point x="325.003" y="598" type="curve" smooth="yes"/>
      <point x="307.003" y="598" type="line" smooth="yes"/>
      <point x="292.429" y="598"/>
      <point x="279.651" y="603"/>
      <point x="266.003" y="603" type="curve" smooth="yes"/>
      <point x="140.003" y="603" type="line" smooth="yes"/>
      <point x="134.294" y="603"/>
      <point x="132.049" y="600.115"/>
      <point x="130.003" y="595" type="curve" smooth="yes"/>
      <point x="114.249" y="567.431"/>
      <point x="106.888" y="530.317"/>
      <point x="98.0029" y="497" type="curve" smooth="yes"/>
      <point x="94.0557" y="477.263"/>
      <point x="90.0029" y="458.332"/>
      <point x="90.0029" y="435" type="curve" smooth="yes"/>
      <point x="88.7451" y="412.355"/>
      <point x="86.0029" y="393.997"/>
      <point x="86.0029" y="372" type="curve" smooth="yes"/>
      <point x="86.0029" y="344" type="line"/>
      <point x="428.003" y="344" type="line" smooth="yes"/>
      <point x="437.232" y="344"/>
      <point x="446.003" y="335.229"/>
      <point x="446.003" y="326" type="curve" smooth="yes"/>
      <point x="446.003" y="316.771"/>
      <point x="437.231" y="308"/>
      <point x="428.003" y="308" type="curve" smooth="yes"/>
      <point x="86.0029" y="308" type="line"/>
      <point x="86.0029" y="107" type="line" smooth="yes"/>
      <point x="86.0029" y="86.4844"/>
      <point x="93.1738" y="63.9336"/>
      <point x="100.003" y="48" type="curve" smooth="yes"/>
      <point x="104.003" y="47.333"/>
      <point x="108.336" y="47"/>
      <point x="113.003" y="47" type="curve" smooth="yes"/>
      <point x="166.003" y="47" type="line" smooth="yes"/>
      <point x="222.142" y="47"/>
      <point x="261.62" y="60"/>
      <point x="317.002" y="60" type="curve" smooth="yes"/>
      <point x="326.335" y="59.333"/>
      <point x="334.668" y="59"/>
      <point x="342.001" y="59" type="curve" smooth="yes"/>
      <point x="348.668" y="58.333"/>
      <point x="355.668" y="58"/>
      <point x="363.001" y="58" type="curve" smooth="yes"/>
      <point x="370.334" y="57.333"/>
      <point x="376.334" y="57"/>
      <point x="381.001" y="57" type="curve" smooth="yes"/>
      <point x="449.001" y="57" type="line" smooth="yes"/>
      <point x="458.503" y="57"/>
      <point x="467.001" y="49.1738"/>
      <point x="467.001" y="39.5" type="curve" smooth="yes"/>
      <point x="467.001" y="29.8613"/>
      <point x="458.496" y="21"/>
      <point x="449.001" y="21" type="curve" smooth="yes"/>
      <point x="381.001" y="21" type="line" smooth="yes"/>
      <point x="375.668" y="21"/>
      <point x="369.335" y="21.333"/>
      <point x="362.002" y="22" type="curve" smooth="yes"/>
      <point x="354.669" y="22"/>
      <point x="347.002" y="22.333"/>
      <point x="339.002" y="23" type="curve" smooth="yes"/>
      <point x="332.335" y="23"/>
      <point x="324.668" y="23.333"/>
      <point x="316.001" y="24" type="curve" smooth="yes"/>
      <point x="261.93" y="24"/>
      <point x="222.026" y="11"/>
      <point x="166.001" y="11" type="curve" smooth="yes"/>
      <point x="113.001" y="11" type="line" smooth="yes"/>
      <point x="89.415" y="11"/>
      <point x="74.2373" y="15.4248"/>
      <point x="67.001" y="33" type="curve" smooth="yes"/>
      <point x="60.4189" y="49.4541"/>
      <point x="56.9443" y="72.167"/>
      <point x="51" y="89.999" type="curve" smooth="yes"/>
      <point x="50.333" y="95.332"/>
      <point x="50" y="100.999"/>
      <point x="50" y="106.999" type="curve" smooth="yes"/>
      <point x="50" y="372.999" type="line" smooth="yes"/>
      <point x="52.9482" y="417.218"/>
      <point x="53.8535" y="466.125"/>
      <point x="63" y="504.999" type="curve" smooth="yes"/>
      <point x="72.4775" y="542.909"/>
      <point x="80.8418" y="582.735"/>
      <point x="99" y="612.999" type="curve" smooth="yes"/>
      <point x="106.65" y="627.208"/>
      <point x="120.454" y="638.999"/>
      <point x="140" y="638.999" type="curve" smooth="yes"/>
      <point x="247" y="638.999" type="line" smooth="yes"/>
      <point x="254.333" y="639.666"/>
      <point x="262" y="639.333"/>
      <point x="270" y="638" type="curve" smooth="yes"/>
      <point x="290" y="636" type="line" smooth="yes"/>
      <point x="296" y="634.667"/>
      <point x="301.667" y="634"/>
      <point x="307" y="634" type="curve" smooth="yes"/>
      <point x="325" y="634" type="line" smooth="yes"/>
      <point x="346.765" y="634"/>
      <point x="363.371" y="630.525"/>
      <point x="383.5" y="626.5" type="curve" smooth="yes"/>
      <point x="406" y="622" type="line" smooth="yes"/>
      <point x="414.83" y="619.057"/>
      <point x="428.845" y="616"/>
      <point x="438" y="616" type="curve" smooth="yes"/>
      <point x="444" y="616" type="line" smooth="yes"/>
      <point x="453.502" y="616"/>
      <point x="462" y="608.174"/>
      <point x="462" y="598.5" type="curve" smooth="yes"/>
      <point x="462" y="588.861"/>
      <point x="453.495" y="580"/>
      <point x="444" y="580" type="curve" smooth="yes"/>
    </contour>
  </outline>
</glyph>
<glyph name="F" format="1">
  <advance width="593"/>
  <unicode hex="0046"/>
  <outline>
    <contour>
      <point x="68" y="302" type="line" smooth="yes"/>
      <point x="58.498" y="302"/>
      <point x="49.998" y="309.826"/>
      <point x="49.998" y="319.5" type="curve" smooth="yes"/>
      <point x="49.998" y="329.139"/>
      <point x="58.5029" y="338"/>
      <point x="67.998" y="338" type="curve" smooth="yes"/>
      <point x="94.998" y="338" type="line"/>
      <point x="94.998" y="410" type="line" smooth="yes"/>
      <point x="94.998" y="424.321"/>
      <point x="96.6748" y="440.77"/>
      <point x="97.998" y="454" type="curve" smooth="yes"/>
      <point x="102.998" y="492" type="line" smooth="yes"/>
      <point x="104.739" y="509.411"/>
      <point x="108.998" y="522.55"/>
      <point x="108.998" y="539" type="curve" smooth="yes"/>
      <point x="108.998" y="592.75"/>
      <point x="128.981" y="644.491"/>
      <point x="165.998" y="663" type="curve" smooth="yes"/>
      <point x="183.52" y="674.681"/>
      <point x="198.952" y="674.723"/>
      <point x="223.999" y="677" type="curve" smooth="yes"/>
      <point x="231.999" y="678.333"/>
      <point x="238.999" y="679"/>
      <point x="244.999" y="679" type="curve" smooth="yes"/>
      <point x="525.999" y="679" type="line" smooth="yes"/>
      <point x="535.229" y="679"/>
      <point x="543.999" y="670.229"/>
      <point x="543.999" y="661" type="curve" smooth="yes"/>
      <point x="543.999" y="651.771"/>
      <point x="535.228" y="643"/>
      <point x="525.999" y="643" type="curve" smooth="yes"/>
      <point x="245.999" y="643" type="line" smooth="yes"/>
      <point x="215.451" y="643"/>
      <point x="188.822" y="637.458"/>
      <point x="172" y="624" type="curve"/>
      <point x="156.061" y="604.873"/>
      <point x="145" y="571.32"/>
      <point x="145" y="538" type="curve" smooth="yes"/>
      <point x="145" y="521.891"/>
      <point x="140.863" y="504.771"/>
      <point x="139" y="488" type="curve" smooth="yes"/>
      <point x="134" y="449" type="line" smooth="yes"/>
      <point x="132.77" y="437.922"/>
      <point x="131.001" y="422.33"/>
      <point x="131.001" y="410" type="curve" smooth="yes"/>
      <point x="131.001" y="341" type="line"/>
      <point x="197.229" y="341"/>
      <point x="253.214" y="359.526"/>
      <point x="313.001" y="367" type="curve" smooth="yes"/>
      <point x="361.448" y="373.056"/>
      <point x="411.341" y="377.763"/>
      <point x="462.001" y="385" type="curve" smooth="yes"/>
      <point x="476.001" y="388" type="line" smooth="yes"/>
      <point x="498.062" y="391.151"/>
      <point x="504.617" y="354.952"/>
      <point x="481" y="352" type="curve" smooth="yes"/>
      <point x="467" y="350" type="line" smooth="yes"/>
      <point x="457" y="348"/>
      <point x="447.667" y="346.667"/>
      <point x="439" y="346" type="curve" smooth="yes"/>
      <point x="411" y="344" type="line" smooth="yes"/>
      <point x="370.085" y="340.853"/>
      <point x="325.652" y="332.775"/>
      <point x="285.001" y="326" type="curve" smooth="yes"/>
      <point x="250.001" y="319" type="line" smooth="yes"/>
      <point x="231.91" y="316.416"/>
      <point x="214.674" y="312.405"/>
      <point x="195.001" y="311" type="curve" smooth="yes"/>
      <point x="174.677" y="309.307"/>
      <point x="153.403" y="305"/>
      <point x="131.001" y="305" type="curve"/>
      <point x="131.001" y="130" type="line" smooth="yes"/>
      <point x="130.334" y="119.333"/>
      <point x="129.667" y="109.333"/>
      <point x="129" y="100" type="curve" smooth="yes"/>
      <point x="127" y="74" type="line"/>
      <point x="127" y="1" type="line" smooth="yes"/>
      <point x="127" y="-9.35645"/>
      <point x="118.681" y="-17"/>
      <point x="108.5" y="-17" type="curve" smooth="yes"/>
      <point x="98.3047" y="-17"/>
      <point x="91" y="-9.34766"/>
      <point x="91" y="1" type="curve" smooth="yes"/>
      <point x="91" y="76" type="line" smooth="yes"/>
      <point x="91" y="94.3408"/>
      <point x="94.6758" y="111.733"/>
      <point x="95" y="131" type="curve" smooth="yes"/>
      <point x="95.958" y="187.968"/>
      <point x="95" y="245"/>
      <point x="95" y="302" type="curve"/>
    </contour>
  </outline>
</glyph>
